<?xml version='1.0' encoding='UTF-8' standalone='no'?>
<!-- Created with Fritzing (https://fritzing.org/) -->
<svg xmlns="http://www.w3.org/2000/svg" viewBox="0 0 97.2856 53.8826" height="0.74837in" width="1.35119in" y="0in" x="0in"  xmlns:svg="http://www.w3.org/2000/svg" version="1.2" baseProfile="tiny">
 <g partID="57730">
  <g id="board">
   <rect id="boardoutline" height="53.3066" width="96.7096" stroke="black" y="0.288" fill-opacity="0.5" x="0.288" fill="none" stroke-width="0.5"/>
  </g>
 </g>
 <g partID="854231631">
  <g transform="translate(69.3958,48.941)">
   <g transform="matrix(0,-1,1,0,0,0)">
    <g id="silkscreen" gorn="0.2">
     <line stroke-linecap="round" y2="14.3532" y1="14.3532" class="other" stroke="black" stroke-width="0.359999" x2="9.35431" x1="0.850392"/>
     <line stroke-linecap="round" y2="0.18" y1="0.18" class="other" stroke="black" stroke-width="0.359999" x2="0.850392" x1="9.35431"/>
     <line stroke-linecap="round" y2="3.15637" y1="4.29023" class="other" stroke="black" stroke-width="0.359999" x2="0.850392" x1="0.850392"/>
     <line stroke-linecap="round" y2="0.746928" y1="0.18" class="other" stroke="black" stroke-width="0.359999" x2="0.850392" x1="0.850392"/>
     <line stroke-linecap="round" y2="0.746928" y1="0.18" class="other" stroke="black" stroke-width="0.359999" x2="9.35431" x1="9.35431"/>
     <line stroke-linecap="round" y2="3.15637" y1="4.29023" class="other" stroke="black" stroke-width="0.359999" x2="9.35431" x1="9.35431"/>
     <line stroke-linecap="round" y2="6.69967" y1="7.83353" class="other" stroke="black" stroke-width="0.359999" x2="0.850392" x1="0.850392"/>
     <line stroke-linecap="round" y2="10.243" y1="11.3768" class="other" stroke="black" stroke-width="0.359999" x2="0.850392" x1="0.850392"/>
     <line stroke-linecap="round" y2="14.3532" y1="13.7863" class="other" stroke="black" stroke-width="0.359999" x2="0.850392" x1="0.850392"/>
     <line stroke-linecap="round" y2="6.69967" y1="7.83353" class="other" stroke="black" stroke-width="0.359999" x2="9.35431" x1="9.35431"/>
     <line stroke-linecap="round" y2="10.243" y1="11.3768" class="other" stroke="black" stroke-width="0.359999" x2="9.35431" x1="9.35431"/>
     <line stroke-linecap="round" y2="14.3532" y1="13.7863" class="other" stroke="black" stroke-width="0.359999" x2="9.35431" x1="9.35431"/>
     <circle r="0.141732" class="other" cx="4.02519" stroke="black" fill="none" cy="1.20047" stroke-width="0.359999"/>
    </g>
   </g>
  </g>
 </g>
 <g partID="855175441">
  <g transform="translate(46.204,11.637)">
   <g id="silkscreen">
    <rect height="2.55118" width="8.22047" stroke="black" y="2.83465" x="0.141732" stroke-width="0.283465" fill="none" stroke-opacity="1"/>
   </g>
  </g>
 </g>
 <g partID="855184221">
  <g transform="translate(79.0728,29.8227)">
   <g id="copper1">
    <circle r="0.992124" id="connector0pin" cx="3.01733" stroke="white" fill="white" cy="3.01733" stroke-width="1.57039"/>
   </g>
  </g>
 </g>
 <g partID="855184251">
  <g transform="translate(71.8728,8.22272)">
   <g id="copper1">
    <circle r="0.992124" id="connector0pin" cx="3.01733" stroke="white" fill="white" cy="3.01733" stroke-width="1.57039"/>
   </g>
  </g>
 </g>
 <g partID="855136111">
  <g transform="translate(14.2728,29.8227)">
   <g id="copper1">
    <circle r="0.992124" id="connector0pin" cx="3.01733" stroke="white" fill="white" cy="3.01733" stroke-width="1.57039"/>
   </g>
  </g>
 </g>
 <g partID="855140601">
  <g transform="translate(43.0728,37.0225)">
   <g id="copper1">
    <circle r="0.992124" id="connector0pin" cx="3.01733" stroke="white" fill="white" cy="3.01733" stroke-width="1.57039"/>
   </g>
  </g>
 </g>
 <g partID="855140631">
  <g transform="translate(43.0728,29.8227)">
   <g id="copper1">
    <circle r="0.992124" id="connector0pin" cx="3.01733" stroke="white" fill="white" cy="3.01733" stroke-width="1.57039"/>
   </g>
  </g>
 </g>
 <g partID="855184882">
  <g transform="translate(66.4088,-0.25392)">
   <g id="copper1" flipped="1">
    <g transform="matrix(-1, 0, 0, 1, 27.1759, 0)">
     <g>
      <g transform="matrix(4.29042, 0, 0, 1.88015, -8.01687, -2.63744)">
       <g>
        <g>
         <g gorn="0.4.0.0.0.0.0.0.0.0.0.0.0.0.0.0.0">
          <g id="g23" gorn="0.4.0.0.0.0.0.0.0.0.0.0.0.0.0.0.0.0">
           <rect id="connector4pin" gorn="0.4.0.0.0.0.0.0.0.0.0.0.0.0.0.0.0.0.0" height="3.01534" style="fill-rule:evenodd" width="1.32138" stroke="white" y="2.17923" fill-opacity="1" x="6.56027" stroke-width="0.812113" fill="white"/>
           <rect id="connector3pin" gorn="0.4.0.0.0.0.0.0.0.0.0.0.0.0.0.0.0.0.1" height="3.01534" style="fill-rule:evenodd" width="1.32138" stroke="white" y="12.0844" fill-opacity="1" x="6.58049" stroke-width="0.812113" fill="white"/>
           <rect id="connector1pin" gorn="0.4.0.0.0.0.0.0.0.0.0.0.0.0.0.0.0.0.2" height="3.01534" style="fill-rule:evenodd" width="1.32138" stroke="white" y="12.1197" fill-opacity="1" x="2.21212" stroke-width="0.812113" fill="white"/>
           <rect id="connector0pin" gorn="0.4.0.0.0.0.0.0.0.0.0.0.0.0.0.0.0.0.3" height="3.01534" style="fill-rule:evenodd" width="1.32138" stroke="white" y="2.17898" fill-opacity="1" x="2.20876" stroke-width="0.812113" fill="white"/>
          </g>
         </g>
         <g gorn="0.4.0.0.0.0.0.0.0.0.0.0.0.0.0.0">
          <g id="copper0" gorn="0.4.0.0.0.0.0.0.0.0.0.0.0.0.0.0.0">
           <g id="g23" gorn="0.4.0.0.0.0.0.0.0.0.0.0.0.0.0.0.0.0">
            <rect id="connector4pin" gorn="0.4.0.0.0.0.0.0.0.0.0.0.0.0.0.0.0.0.0" height="3.01534" style="fill-rule:evenodd" width="1.32138" stroke="white" y="2.17923" fill-opacity="1" x="6.56027" stroke-width="0.812113" fill="white"/>
            <rect id="connector3pin" gorn="0.4.0.0.0.0.0.0.0.0.0.0.0.0.0.0.0.0.1" height="3.01534" style="fill-rule:evenodd" width="1.32138" stroke="white" y="12.0844" fill-opacity="1" x="6.58049" stroke-width="0.812113" fill="white"/>
            <rect id="connector1pin" gorn="0.4.0.0.0.0.0.0.0.0.0.0.0.0.0.0.0.0.2" height="3.01534" style="fill-rule:evenodd" width="1.32138" stroke="white" y="12.1197" fill-opacity="1" x="2.21212" stroke-width="0.812113" fill="white"/>
            <rect id="connector0pin" gorn="0.4.0.0.0.0.0.0.0.0.0.0.0.0.0.0.0.0.3" height="3.01534" style="fill-rule:evenodd" width="1.32138" stroke="white" y="2.17898" fill-opacity="1" x="2.20876" stroke-width="0.812113" fill="white"/>
           </g>
          </g>
         </g>
        </g>
       </g>
      </g>
     </g>
    </g>
   </g>
  </g>
 </g>
 <g partID="854208982">
  <g transform="translate(24.5584,7.16269)">
   <g transform="matrix(-1,0,0,-1,0,0)">
    <g id="copper1" flipped="1">
     <g transform="matrix(-1, 0, 0, 1, 20.7088, 0)">
      <g>
       <g>
        <g gorn="0.1.6">
         <circle r="1.35213" id="connector0pad" gorn="0.1.6.0" connectorname="1" stroke="white" cx="1.98879" fill="white" stroke-width="1.44" cy="3.12265"/>
         <path d="m0.276661,1.41052,3.42425,0,0,3.42425,-3.42425,0,0,-3.42425zM0.996661,3.12265a0.992126,0.992126,0,1,0,1.98425,0,0.992126,0.992126,0,1,0,-1.98425,0z" stroke="white" fill="white" stroke-width="0.72"/>
         <circle r="1.35213" id="connector1pad" gorn="0.1.6.2" connectorname="2" stroke="white" cx="6.24075" fill="white" stroke-width="1.44" cy="3.12265"/>
         <circle r="1.35213" id="connector2pad" gorn="0.1.6.3" connectorname="3" stroke="white" cx="10.4927" fill="white" stroke-width="1.44" cy="3.12265"/>
         <circle r="1.35213" id="connector3pad" gorn="0.1.6.4" connectorname="4" stroke="white" cx="14.7447" fill="white" stroke-width="1.44" cy="3.12265"/>
         <circle r="1.35213" id="connector4pad" gorn="0.1.6.5" connectorname="5" stroke="white" cx="18.9967" fill="white" stroke-width="1.44" cy="3.12265"/>
        </g>
        <g gorn="0.1">
         <circle r="1.35213" id="connector0pad" gorn="0.1.0" connectorname="1" stroke="white" cx="1.98879" fill="white" stroke-width="1.44" cy="3.12265"/>
         <path d="m0.276661,1.41052,3.42425,0,0,3.42425,-3.42425,0,0,-3.42425zM0.996661,3.12265a0.992126,0.992126,0,1,0,1.98425,0,0.992126,0.992126,0,1,0,-1.98425,0z" stroke="white" fill="white" stroke-width="0.72"/>
         <circle r="1.35213" id="connector1pad" gorn="0.1.2" connectorname="2" stroke="white" cx="6.24075" fill="white" stroke-width="1.44" cy="3.12265"/>
         <circle r="1.35213" id="connector2pad" gorn="0.1.3" connectorname="3" stroke="white" cx="10.4927" fill="white" stroke-width="1.44" cy="3.12265"/>
         <circle r="1.35213" id="connector3pad" gorn="0.1.4" connectorname="4" stroke="white" cx="14.7447" fill="white" stroke-width="1.44" cy="3.12265"/>
         <circle r="1.35213" id="connector4pad" gorn="0.1.5" connectorname="5" stroke="white" cx="18.9967" fill="white" stroke-width="1.44" cy="3.12265"/>
         <g id="copper0" gorn="0.1.6">
          <circle r="1.35213" id="connector0pad" gorn="0.1.6.0" connectorname="1" stroke="white" cx="1.98879" fill="white" stroke-width="1.44" cy="3.12265"/>
          <path d="m0.276661,1.41052,3.42425,0,0,3.42425,-3.42425,0,0,-3.42425zM0.996661,3.12265a0.992126,0.992126,0,1,0,1.98425,0,0.992126,0.992126,0,1,0,-1.98425,0z" stroke="white" fill="white" stroke-width="0.72"/>
          <circle r="1.35213" id="connector1pad" gorn="0.1.6.2" connectorname="2" stroke="white" cx="6.24075" fill="white" stroke-width="1.44" cy="3.12265"/>
          <circle r="1.35213" id="connector2pad" gorn="0.1.6.3" connectorname="3" stroke="white" cx="10.4927" fill="white" stroke-width="1.44" cy="3.12265"/>
          <circle r="1.35213" id="connector3pad" gorn="0.1.6.4" connectorname="4" stroke="white" cx="14.7447" fill="white" stroke-width="1.44" cy="3.12265"/>
          <circle r="1.35213" id="connector4pad" gorn="0.1.6.5" connectorname="5" stroke="white" cx="18.9967" fill="white" stroke-width="1.44" cy="3.12265"/>
         </g>
        </g>
       </g>
      </g>
     </g>
    </g>
   </g>
  </g>
 </g>
 <g partID="855150231">
  <g transform="translate(57.4728,15.4227)">
   <g id="copper1">
    <circle r="0.992124" id="connector0pin" cx="3.01733" stroke="white" fill="white" cy="3.01733" stroke-width="1.57039"/>
   </g>
  </g>
 </g>
 <g partID="855150261">
  <g transform="translate(57.4728,44.2225)">
   <g id="copper1">
    <circle r="0.992124" id="connector0pin" cx="3.01733" stroke="white" fill="white" cy="3.01733" stroke-width="1.57039"/>
   </g>
  </g>
 </g>
 <g partID="855163121">
  <g transform="translate(21.4072,31.979)">
   <g id="copper1">
    <circle r="0.992124" id="connector0pin" cx="3.01733" stroke="white" fill="white" cy="3.01733" stroke-width="1.57039"/>
   </g>
  </g>
 </g>
 <g partID="855172041">
  <g transform="translate(14.2728,8.22272)">
   <g id="copper1">
    <circle r="0.992124" id="connector0pin" cx="3.01733" stroke="white" fill="white" cy="3.01733" stroke-width="1.57039"/>
   </g>
  </g>
 </g>
 <g partID="855182091">
  <g transform="translate(7.0728,8.22272)">
   <g id="copper1">
    <circle r="0.992124" id="connector0pin" cx="3.01733" stroke="white" fill="white" cy="3.01733" stroke-width="1.57039"/>
   </g>
  </g>
 </g>
 <g partID="855182121">
  <g transform="translate(35.8728,8.22272)">
   <g id="copper1">
    <circle r="0.992124" id="connector0pin" cx="3.01733" stroke="white" fill="white" cy="3.01733" stroke-width="1.57039"/>
   </g>
  </g>
 </g>
 <g partID="854231630">
  <g transform="translate(69.3958,48.941)">
   <g transform="matrix(0,-1,1,0,0,0)">
    <g id="copper1" gorn="0.1">
     <rect id="connector0pad" stroke-linecap="round" gorn="0.1.0" connectorname="1" height="1.41732" width="3.40157" stroke="white" y="1.24299" x="0" fill="white" stroke-width="0.72"/>
     <rect id="connector1pad" stroke-linecap="round" gorn="0.1.1" connectorname="2" height="1.41732" width="3.40157" stroke="white" y="4.78629" x="0" fill="white" stroke-width="0.72"/>
     <rect id="connector2pad" stroke-linecap="round" gorn="0.1.2" connectorname="3" height="1.41732" width="3.40157" stroke="white" y="8.32959" x="0" fill="white" stroke-width="0.72"/>
     <rect id="connector3pad" stroke-linecap="round" gorn="0.1.3" connectorname="4" height="1.41732" width="3.40157" stroke="white" y="11.8729" x="0" fill="white" stroke-width="0.72"/>
     <rect id="connector7pin" stroke-linecap="round" gorn="0.1.4" connectorname="8" height="1.41732" width="3.40157" stroke="white" y="1.24299" x="6.80314" fill="white" stroke-width="0.72"/>
     <rect id="connector6pin" stroke-linecap="round" gorn="0.1.5" connectorname="7" height="1.41732" width="3.40157" stroke="white" y="4.78629" x="6.80314" fill="white" stroke-width="0.72"/>
     <rect id="connector5pin" stroke-linecap="round" gorn="0.1.6" connectorname="6" height="1.41732" width="3.40157" stroke="white" y="8.32959" x="6.80314" fill="white" stroke-width="0.72"/>
     <rect id="connector4pin" stroke-linecap="round" gorn="0.1.7" connectorname="5" height="1.41732" width="3.40157" stroke="white" y="11.8729" x="6.80314" fill="white" stroke-width="0.72"/>
     <g id="copper0" gorn="0.1.8"/>
    </g>
   </g>
  </g>
 </g>
 <g partID="855175440">
  <g transform="translate(46.204,11.637)">
   <g id="copper1">
    <!-- unten links -->
    <rect id="connector0pin" height="2.55118" width="2.26772" stroke="white" y="5.66929" x="0.425197" fill-opacity="1" fill="white" stroke-width="0.72"/>
    <g id="connector0terminal" height="0" width="0" stroke="white" y="6.94488" x="1.55906" stroke-width="0.72" fill="white"/>
    <!-- unten rechts -->
    <rect id="connector1pin" height="2.55118" width="2.26772" stroke="white" y="5.66929" x="5.81102" fill-opacity="1" fill="white" stroke-width="0.72"/>
    <g id="connector1terminal" height="0" width="0" stroke="white" y="6.94488" x="6.94488" stroke-width="0.72" fill="white"/>
    <!-- oben mitte -->
    <rect id="connector2pin" height="2.55118" width="2.26772" stroke="white" y="0" x="3.11811" fill-opacity="1" fill="white" stroke-width="0.72"/>
    <g id="connector2terminal" height="0" width="0" stroke="white" y="1.27559" x="4.25197" stroke-width="0.72" fill="white"/>
   </g>
  </g>
 </g>
</svg>
