<?xml version='1.0' encoding='UTF-8' standalone='no'?>
<!-- Created with Fritzing (https://fritzing.org/) -->
<svg xmlns="http://www.w3.org/2000/svg" x="0in" baseProfile="tiny" viewBox="0 0 111.516 53.8623" version="1.2" width="1.54884in" y="0in" height="0.748087in"  xmlns:svg="http://www.w3.org/2000/svg">
 <g partID="855297212">
  <g transform="matrix(1, 0, 0, 1, 0.00122729, 0.00121368)">
   <g id="silkscreen">
    <g style="display:inline">
     <path stroke="black" stroke-opacity="1" d="m90.2187,0.373785,-55.0166,0.00425197L35.2018,31.8195l-2.72461,2.56933,-32.1007,-0.0175748,-0.00293103,19.1133L111.138,53.4844L111.138,25.8019l-20.8653,0L85.9749,21.4762L85.9749,4.64528Z" fill-opacity="0.5" style="display:inline;fill-rule:evenodd;stroke-linecap:round;stroke-linejoin:round;stroke-miterlimit:4;stroke-dasharray:none;" fill="none" id="silkscreenoutline" stroke-width="0.75"/>
    </g>
   </g>
  </g>
 </g>
 <g partID="855297210">
  <g transform="matrix(1, 0, 0, 1, 110.064, 45.0012)">
   <g id="board">
    <g style="display:inline">
     <path stroke="black" d="m-19.6087,-45,-55.3896,0.00425197l0,31.8855l-2.74308,2.60564,-32.3181,-0.0178299,-0.00283465,19.3833l111.515,0l0,-28.0737l-21.0067,0l-4.32701,-4.38681l0,-17.0687z" fill-opacity="0.5" style="display:inline;fill-rule:evenodd;stroke-linecap:round;stroke-linejoin:round;stroke-miterlimit:4;stroke-dasharray:none" fill="none" id="boardoutline" stroke-width="0.5"/>
    </g>
   </g>
  </g>
 </g>
 <g partID="855297212">
  <g transform="matrix(1, 0, 0, 1, 0.00122729, 0.00121368)">
   <g id="silkscreen">
    <g style="display:inline">
     <path stroke="black" stroke-opacity="1" d="m90.2187,0.373785,-55.0166,0.00425197L35.2018,31.8195l-2.72461,2.56933,-32.1007,-0.0175748,-0.00293103,19.1133L111.138,53.4844L111.138,25.8019l-20.8653,0L85.9749,21.4762L85.9749,4.64528Z" fill-opacity="0.5" style="display:inline;fill-rule:evenodd;stroke-linecap:round;stroke-linejoin:round;stroke-miterlimit:4;stroke-dasharray:none;" fill="none" id="silkscreenoutline" stroke-width="0.75"/>
    </g>
   </g>
  </g>
 </g>
 <g partID="855297071">
  <g transform="translate(80.8112,-0.10136)">
   <g transform="matrix(3.39649, 0, 0, 1.76161, -3.58775, -1.74651)">
    <g id="silkscreen">
     <g gorn="0.3.0.0.0.0.0.0.0.0.0.0.0.0.0.0.0.0">
      <!-- 120 -->
      <line stroke="black" y1="16.2277" gorn="0.3.0.0.0.0.0.0.0.0.0.0.0.0.0.0.0.0.0" fill-opacity="1" y2="16.2301" x1="1.17085" x2="9.01475" id="line1771" fill="black" stroke-width="0.027466"/>
      <line stroke="black" y1="1.04785" gorn="0.3.0.0.0.0.0.0.0.0.0.0.0.0.0.0.0.0.1" fill-opacity="1" y2="1.05021" x1="1.1556" x2="8.99951" id="line12" fill="black" stroke-width="0.027466"/>
     </g>
    </g>
   </g>
  </g>
 </g>
 <g partID="855304012">
  <g transform="translate(2.296,35.4775)">
   <g transform="matrix(1.32554, 0, 0, 1, 0, 0.167244)">
    <g id="silkscreen">
     <g gorn="0.3.0.0.0.0.0.0">
      <line stroke="black" y1="0.288" gorn="0.3.0.0.0.0.0.0.0" y2="0.288" x1="3.68957" x2="0.288" stroke-linecap="round" id="line25" stroke-width="0.576" class="other"/>
     </g>
    </g>
   </g>
  </g>
 </g>
 <g partID="854231631">
  <g transform="translate(90.9878,48.9705)">
   <g transform="matrix(0,-1,1,0,0,0)">
    <g gorn="0.2" id="silkscreen">
     <line stroke="black" y1="14.3532" y2="14.3532" x1="0.850392" x2="9.35431" stroke-linecap="round" stroke-width="0.359999" class="other"/>
     <line stroke="black" y1="0.18" y2="0.18" x1="9.35431" x2="0.850392" stroke-linecap="round" stroke-width="0.359999" class="other"/>
     <line stroke="black" y1="4.29023" y2="3.15637" x1="0.850392" x2="0.850392" stroke-linecap="round" stroke-width="0.359999" class="other"/>
     <line stroke="black" y1="0.18" y2="0.746928" x1="0.850392" x2="0.850392" stroke-linecap="round" stroke-width="0.359999" class="other"/>
     <line stroke="black" y1="0.18" y2="0.746928" x1="9.35431" x2="9.35431" stroke-linecap="round" stroke-width="0.359999" class="other"/>
     <line stroke="black" y1="4.29023" y2="3.15637" x1="9.35431" x2="9.35431" stroke-linecap="round" stroke-width="0.359999" class="other"/>
     <line stroke="black" y1="7.83353" y2="6.69967" x1="0.850392" x2="0.850392" stroke-linecap="round" stroke-width="0.359999" class="other"/>
     <line stroke="black" y1="11.3768" y2="10.243" x1="0.850392" x2="0.850392" stroke-linecap="round" stroke-width="0.359999" class="other"/>
     <line stroke="black" y1="13.7863" y2="14.3532" x1="0.850392" x2="0.850392" stroke-linecap="round" stroke-width="0.359999" class="other"/>
     <line stroke="black" y1="7.83353" y2="6.69967" x1="9.35431" x2="9.35431" stroke-linecap="round" stroke-width="0.359999" class="other"/>
     <line stroke="black" y1="11.3768" y2="10.243" x1="9.35431" x2="9.35431" stroke-linecap="round" stroke-width="0.359999" class="other"/>
     <line stroke="black" y1="13.7863" y2="14.3532" x1="9.35431" x2="9.35431" stroke-linecap="round" stroke-width="0.359999" class="other"/>
     <circle stroke="black" cy="1.20047" cx="4.02519" fill="none" stroke-width="0.359999" class="other" r="0.141732"/>
    </g>
   </g>
  </g>
 </g>
 <g partID="855236321">
  <g transform="translate(67.8248,11.5246)">
   <g transform="matrix(1,0,0,1,0,0)">
    <g id="silkscreen">
     <rect x="0.141732" stroke="black" stroke-opacity="1" width="8.22047" y="2.83465" height="2.55118" fill="none" stroke-width="0.283465"/>
    </g>
   </g>
  </g>
 </g>
 <g partID="855271531">
  <g transform="translate(57.352,29.8522)">
   <g id="copper1">
    <circle stroke="white" cy="3.01733" cx="3.01733" fill="white" id="connector0pin" stroke-width="1.57039" r="0.992124"/>
   </g>
  </g>
 </g>
 <g partID="855271561">
  <g transform="translate(50.152,29.8522)">
   <g id="copper1">
    <circle stroke="white" cy="3.01733" cx="3.01733" fill="white" id="connector0pin" stroke-width="1.57039" r="0.992124"/>
   </g>
  </g>
 </g>
 <g partID="855136111">
  <g transform="translate(35.752,22.6522)">
   <g id="copper1">
    <circle stroke="white" cy="3.01733" cx="3.01733" fill="white" id="connector0pin" stroke-width="1.57039" r="0.992124"/>
   </g>
  </g>
 </g>
 <g partID="855140601">
  <g transform="translate(78.952,37.0519)">
   <g id="copper1">
    <circle stroke="white" cy="3.01733" cx="3.01733" fill="white" id="connector0pin" stroke-width="1.57039" r="0.992124"/>
   </g>
  </g>
 </g>
 <g partID="855140631">
  <g transform="translate(78.952,29.8522)">
   <g id="copper1">
    <circle stroke="white" cy="3.01733" cx="3.01733" fill="white" id="connector0pin" stroke-width="1.57039" r="0.992124"/>
   </g>
  </g>
 </g>
 <g partID="855304011">
  <g transform="translate(2.296,35.4775)">
   <g transform="matrix(1.52608, 0, 0, 1.52649, -0.427877, -0.174562)">
    <g id="copper1">
     <g gorn="0.2.0.0.0.0.0.0">
      <circle stroke="white" connectorname="5" gorn="0.2.0.0.0.0.0.0.0" cy="3.12265" cx="18.9967" fill="white" id="circle12" stroke-width="1.44" r="1.35213"/>
      <circle stroke="white" connectorname="4" gorn="0.2.0.0.0.0.0.0.1" cy="3.12265" cx="14.7447" fill="white" id="circle19" stroke-width="1.44" r="1.35213"/>
      <circle stroke="white" connectorname="3" gorn="0.2.0.0.0.0.0.0.2" cy="3.12265" cx="10.4927" fill="white" id="circle9" stroke-width="1.44" r="1.35213"/>
      <circle stroke="white" connectorname="2" gorn="0.2.0.0.0.0.0.0.3" cy="3.12265" cx="6.24076" fill="white" id="circle7" stroke-width="1.44" r="1.35213"/>
      <circle stroke="white" connectorname="1" gorn="0.2.0.0.0.0.0.0.4" cy="3.12265" cx="1.98879" fill="white" id="circle4" stroke-width="1.44" r="1.35213"/>
      <path stroke="white" d="m0.276661,1.41052l3.42425,0l0,3.42425l-3.42425,0zm0.72,1.71213a0.992126,0.992126,0,1,0,1.98425,0,0.992126,0.992126,0,1,0,-1.98425,0z" gorn="0.2.0.0.0.0.0.0.5" fill="white" id="path5" stroke-width="0.72"/>
      <g gorn="0.2.0.0.0.0.0.0.6" id="copper0">
       <circle stroke="white" connectorname="5" gorn="0.2.0.0.0.0.0.0.6.0" cy="3.12265" cx="18.9967" fill="white" id="connector4pad" stroke-width="1.44" r="1.35213"/>
       <circle stroke="white" connectorname="4" gorn="0.2.0.0.0.0.0.0.6.1" cy="3.12265" cx="14.7447" fill="white" id="connector3pad" stroke-width="1.44" r="1.35213"/>
       <circle stroke="white" connectorname="3" gorn="0.2.0.0.0.0.0.0.6.2" cy="3.12265" cx="10.4927" fill="white" id="connector2pad" stroke-width="1.44" r="1.35213"/>
       <circle stroke="white" connectorname="2" gorn="0.2.0.0.0.0.0.0.6.3" cy="3.12265" cx="6.24076" fill="white" id="connector1pad" stroke-width="1.44" r="1.35213"/>
       <path stroke="white" d="m0.276661,1.41052l3.42425,0l0,3.42425l-3.42425,0zm0.72,1.71213a0.992126,0.992126,0,1,0,1.98425,0,0.992126,0.992126,0,1,0,-1.98425,0z" gorn="0.2.0.0.0.0.0.0.6.4" fill="white" id="connector0pad" stroke-width="0.72"/>
       <circle stroke="white" connectorname="1" gorn="0.2.0.0.0.0.0.0.6.5" cy="3.12265" cx="1.98879" fill="white" id="circle11" stroke-width="1.44" r="1.35213"/>
      </g>
     </g>
    </g>
   </g>
  </g>
 </g>
 <g partID="855150261">
  <g transform="translate(78.952,44.2519)">
   <g id="copper1">
    <circle stroke="white" cy="3.01733" cx="3.01733" fill="white" id="connector0pin" stroke-width="1.57039" r="0.992124"/>
   </g>
  </g>
 </g>
 <g partID="855163121">
  <g transform="translate(71.752,37.0519)">
   <g id="copper1">
    <circle stroke="white" cy="3.01733" cx="3.01733" fill="white" id="connector0pin" stroke-width="1.57039" r="0.992124"/>
   </g>
  </g>
 </g>
 <g partID="855289461">
  <g transform="translate(71.752,1.05216)">
   <g id="copper1">
    <circle stroke="white" cy="3.01733" cx="3.01733" fill="white" id="connector0pin" stroke-width="1.57039" r="0.992124"/>
   </g>
  </g>
 </g>
 <g partID="855288661">
  <g transform="translate(100.552,29.8522)">
   <g id="copper1">
    <circle stroke="white" cy="3.01733" cx="3.01733" fill="white" id="connector0pin" stroke-width="1.57039" r="0.992124"/>
   </g>
  </g>
 </g>
 <g partID="855287181">
  <g transform="translate(57.352,8.25216)">
   <g id="copper1">
    <circle stroke="white" cy="3.01733" cx="3.01733" fill="white" id="connector0pin" stroke-width="1.57039" r="0.992124"/>
   </g>
  </g>
 </g>
 <g partID="855182091">
  <g transform="translate(50.152,8.25216)">
   <g id="copper1">
    <circle stroke="white" cy="3.01733" cx="3.01733" fill="white" id="connector0pin" stroke-width="1.57039" r="0.992124"/>
   </g>
  </g>
 </g>
 <g partID="854231630">
  <g transform="translate(90.9878,48.9705)">
   <g transform="matrix(0,-1,1,0,0,0)">
    <g gorn="0.1" id="copper1">
     <rect x="0" stroke="white" connectorname="1" gorn="0.1.0" width="3.40157" y="1.24299" stroke-linecap="round" id="connector0pad" fill="white" height="1.41732" stroke-width="0.72"/>
     <rect x="0" stroke="white" connectorname="2" gorn="0.1.1" width="3.40157" y="4.78629" stroke-linecap="round" id="connector1pad" fill="white" height="1.41732" stroke-width="0.72"/>
     <rect x="0" stroke="white" connectorname="3" gorn="0.1.2" width="3.40157" y="8.32959" stroke-linecap="round" id="connector2pad" fill="white" height="1.41732" stroke-width="0.72"/>
     <rect x="0" stroke="white" connectorname="4" gorn="0.1.3" width="3.40157" y="11.8729" stroke-linecap="round" id="connector3pad" fill="white" height="1.41732" stroke-width="0.72"/>
     <rect x="6.80314" stroke="white" connectorname="8" gorn="0.1.4" width="3.40157" y="1.24299" stroke-linecap="round" id="connector7pin" fill="white" height="1.41732" stroke-width="0.72"/>
     <rect x="6.80314" stroke="white" connectorname="7" gorn="0.1.5" width="3.40157" y="4.78629" stroke-linecap="round" id="connector6pin" fill="white" height="1.41732" stroke-width="0.72"/>
     <rect x="6.80314" stroke="white" connectorname="6" gorn="0.1.6" width="3.40157" y="8.32959" stroke-linecap="round" id="connector5pin" fill="white" height="1.41732" stroke-width="0.72"/>
     <rect x="6.80314" stroke="white" connectorname="5" gorn="0.1.7" width="3.40157" y="11.8729" stroke-linecap="round" id="connector4pin" fill="white" height="1.41732" stroke-width="0.72"/>
     <g gorn="0.1.8" id="copper0"/>
    </g>
   </g>
  </g>
 </g>
 <g partID="855236320">
  <g transform="translate(67.8248,11.5246)">
   <g transform="matrix(1,0,0,1,0,0)">
    <g id="copper1">
     <!-- unten links -->
     <rect x="0.425197" stroke="white" fill-opacity="1" width="2.26772" y="5.66929" height="2.55118" id="connector0pin" fill="white" stroke-width="0.72"/>
     <g x="1.55906" stroke="white" width="0" y="6.94488" height="0" id="connector0terminal" fill="white" stroke-width="0.72"/>
     <!-- unten rechts -->
     <rect x="5.81102" stroke="white" fill-opacity="1" width="2.26772" y="5.66929" height="2.55118" id="connector1pin" fill="white" stroke-width="0.72"/>
     <g x="6.94488" stroke="white" width="0" y="6.94488" height="0" id="connector1terminal" fill="white" stroke-width="0.72"/>
     <!-- oben mitte -->
     <rect x="3.11811" stroke="white" fill-opacity="1" width="2.26772" y="0" height="2.55118" id="connector2pin" fill="white" stroke-width="0.72"/>
     <g x="4.25197" stroke="white" width="0" y="1.27559" height="0" id="connector2terminal" fill="white" stroke-width="0.72"/>
    </g>
   </g>
  </g>
 </g>
</svg>
