<?xml version='1.0' encoding='UTF-8' standalone='no'?>
<!-- Created with Fritzing (https://fritzing.org/) -->
<svg xmlns="http://www.w3.org/2000/svg" viewBox="0 0 97.2856 53.8826" height="0.74837in" width="1.35119in" y="0in" x="0in" xmlns:svg="http://www.w3.org/2000/svg"  version="1.2" baseProfile="tiny">
 <g transform="matrix(-1, 0, 0, 1, 97.2856, 0)">
  <g partID="57730">
   <g id="board" >
    <rect id="boardoutline" height="53.3066" width="96.7096" stroke="black" y="0.288" fill-opacity="0.5" x="0.288"  fill="none" stroke-width="0.5"/>
   </g>
  </g>
  <g partID="855184221">
   <g transform="translate(79.0728,29.8227)">
    <g id="copper1" >
     <g r="0.992124" id="0" cx="3.01733" stroke="black"  fill="none" cy="3.01733" stroke-width="0.850392"/>
    </g>
   </g>
  </g>
  <g partID="855184251">
   <g transform="translate(71.8728,8.22272)">
    <g id="copper1" >
     <g r="0.992124" id="1" cx="3.01733" stroke="black"  fill="none" cy="3.01733" stroke-width="0.850392"/>
    </g>
   </g>
  </g>
  <g partID="855136111">
   <g transform="translate(14.2728,29.8227)">
    <g id="copper1" >
     <g r="0.992124" id="2" cx="3.01733" stroke="black"  fill="none" cy="3.01733" stroke-width="0.850392"/>
    </g>
   </g>
  </g>
  <g partID="855140601">
   <g transform="translate(43.0728,37.0225)">
    <g id="copper1" >
     <g r="0.992124" id="3" cx="3.01733" stroke="black"  fill="none" cy="3.01733" stroke-width="0.850392"/>
    </g>
   </g>
  </g>
  <g partID="855140631">
   <g transform="translate(43.0728,29.8227)">
    <g id="copper1" >
     <g r="0.992124" id="4" cx="3.01733" stroke="black"  fill="none" cy="3.01733" stroke-width="0.850392"/>
    </g>
   </g>
  </g>
  <g partID="855184882">
   <g transform="translate(66.4088,-0.25392)">
    <g id="copper1" flipped="1">
     <g transform="matrix(-1, 0, 0, 1, 27.1759, 0)">
      <g>
       <g transform="matrix(4.29042, 0, 0, 1.88015, -8.01687, -2.63744)">
        <g>
         <g>
          <g gorn="0.4.0.0.0.0.0.0.0.0.0.0.0.0.0.0.0">
           <g id="g23" gorn="0.4.0.0.0.0.0.0.0.0.0.0.0.0.0.0.0.0">
            <g id="5" gorn="0.4.0.0.0.0.0.0.0.0.0.0.0.0.0.0.0.0.0" height="3.01534" style="fill-rule:evenodd" width="1.32138" y="2.17923" fill-opacity="1" x="6.56027" stroke-width="0.0921132" fill="black"/>
            <g id="6" gorn="0.4.0.0.0.0.0.0.0.0.0.0.0.0.0.0.0.0.1" height="3.01534" style="fill-rule:evenodd" width="1.32138" y="12.0844" fill-opacity="1" x="6.58049" stroke-width="0.0921132" fill="black"/>
            <g id="7" gorn="0.4.0.0.0.0.0.0.0.0.0.0.0.0.0.0.0.0.2" height="3.01534" style="fill-rule:evenodd" width="1.32138" y="12.1197" fill-opacity="1" x="2.21212" stroke-width="0.0921132" fill="black"/>
            <g id="8" gorn="0.4.0.0.0.0.0.0.0.0.0.0.0.0.0.0.0.0.3" height="3.01534" style="fill-rule:evenodd" width="1.32138" y="2.17898" fill-opacity="1" x="2.20876" stroke-width="0.0921132" fill="black"/>
           </g>
          </g>
          <g gorn="0.4.0.0.0.0.0.0.0.0.0.0.0.0.0.0">
           <g id="copper0" gorn="0.4.0.0.0.0.0.0.0.0.0.0.0.0.0.0.0">
            <g id="g23" gorn="0.4.0.0.0.0.0.0.0.0.0.0.0.0.0.0.0.0">
             <g id="9" gorn="0.4.0.0.0.0.0.0.0.0.0.0.0.0.0.0.0.0.0" height="3.01534" style="fill-rule:evenodd" width="1.32138" y="2.17923" fill-opacity="1" x="6.56027" stroke-width="0.0921132" fill="black"/>
             <g id="10" gorn="0.4.0.0.0.0.0.0.0.0.0.0.0.0.0.0.0.0.1" height="3.01534" style="fill-rule:evenodd" width="1.32138" y="12.0844" fill-opacity="1" x="6.58049" stroke-width="0.0921132" fill="black"/>
             <g id="11" gorn="0.4.0.0.0.0.0.0.0.0.0.0.0.0.0.0.0.0.2" height="3.01534" style="fill-rule:evenodd" width="1.32138" y="12.1197" fill-opacity="1" x="2.21212" stroke-width="0.0921132" fill="black"/>
             <g id="12" gorn="0.4.0.0.0.0.0.0.0.0.0.0.0.0.0.0.0.0.3" height="3.01534" style="fill-rule:evenodd" width="1.32138" y="2.17898" fill-opacity="1" x="2.20876" stroke-width="0.0921132" fill="black"/>
            </g>
           </g>
          </g>
         </g>
        </g>
       </g>
      </g>
     </g>
    </g>
   </g>
  </g>
  <g partID="854208982">
   <g transform="translate(24.5584,7.16269)">
    <g transform="matrix(-1,0,0,-1,0,0)">
     <g id="copper1" flipped="1">
      <g transform="matrix(-1, 0, 0, 1, 20.7088, 0)">
       <g>
        <g>
         <g gorn="0.1.6">
          <g r="1.35213" id="13" gorn="0.1.6.0" connectorname="1" stroke="black" cx="1.98879" fill="none" stroke-width="0.72" cy="3.12265"/>
          <g id="14" d="m0.276661,1.41052,3.42425,0,0,3.42425,-3.42425,0,0,-3.42425zM0.996661,3.12265a0.992126,0.992126,0,1,0,1.98425,0,0.992126,0.992126,0,1,0,-1.98425,0z" stroke="none" fill="black" stroke-width="0"/>
          <g r="1.35213" id="15" gorn="0.1.6.2" connectorname="2" stroke="black" cx="6.24075" fill="none" stroke-width="0.72" cy="3.12265"/>
          <g r="1.35213" id="16" gorn="0.1.6.3" connectorname="3" stroke="black" cx="10.4927" fill="none" stroke-width="0.72" cy="3.12265"/>
          <g r="1.35213" id="17" gorn="0.1.6.4" connectorname="4" stroke="black" cx="14.7447" fill="none" stroke-width="0.72" cy="3.12265"/>
          <g r="1.35213" id="18" gorn="0.1.6.5" connectorname="5" stroke="black" cx="18.9967" fill="none" stroke-width="0.72" cy="3.12265"/>
         </g>
         <g gorn="0.1">
          <g r="1.35213" id="19" gorn="0.1.0" connectorname="1" stroke="black" cx="1.98879" fill="none" stroke-width="0.72" cy="3.12265"/>
          <g id="20" d="m0.276661,1.41052,3.42425,0,0,3.42425,-3.42425,0,0,-3.42425zM0.996661,3.12265a0.992126,0.992126,0,1,0,1.98425,0,0.992126,0.992126,0,1,0,-1.98425,0z" stroke="none" fill="black" stroke-width="0"/>
          <g r="1.35213" id="21" gorn="0.1.2" connectorname="2" stroke="black" cx="6.24075" fill="none" stroke-width="0.72" cy="3.12265"/>
          <g r="1.35213" id="22" gorn="0.1.3" connectorname="3" stroke="black" cx="10.4927" fill="none" stroke-width="0.72" cy="3.12265"/>
          <g r="1.35213" id="23" gorn="0.1.4" connectorname="4" stroke="black" cx="14.7447" fill="none" stroke-width="0.72" cy="3.12265"/>
          <g r="1.35213" id="24" gorn="0.1.5" connectorname="5" stroke="black" cx="18.9967" fill="none" stroke-width="0.72" cy="3.12265"/>
          <g id="copper0" gorn="0.1.6">
           <g r="1.35213" id="25" gorn="0.1.6.0" connectorname="1" stroke="black" cx="1.98879" fill="none" stroke-width="0.72" cy="3.12265"/>
           <g id="26" d="m0.276661,1.41052,3.42425,0,0,3.42425,-3.42425,0,0,-3.42425zM0.996661,3.12265a0.992126,0.992126,0,1,0,1.98425,0,0.992126,0.992126,0,1,0,-1.98425,0z" stroke="none" fill="black" stroke-width="0"/>
           <g r="1.35213" id="27" gorn="0.1.6.2" connectorname="2" stroke="black" cx="6.24075" fill="none" stroke-width="0.72" cy="3.12265"/>
           <g r="1.35213" id="28" gorn="0.1.6.3" connectorname="3" stroke="black" cx="10.4927" fill="none" stroke-width="0.72" cy="3.12265"/>
           <g r="1.35213" id="29" gorn="0.1.6.4" connectorname="4" stroke="black" cx="14.7447" fill="none" stroke-width="0.72" cy="3.12265"/>
           <g r="1.35213" id="30" gorn="0.1.6.5" connectorname="5" stroke="black" cx="18.9967" fill="none" stroke-width="0.72" cy="3.12265"/>
          </g>
         </g>
        </g>
       </g>
      </g>
     </g>
    </g>
   </g>
  </g>
  <g partID="855150231">
   <g transform="translate(57.4728,15.4227)">
    <g id="copper1" >
     <g r="0.992124" id="31" cx="3.01733" stroke="black"  fill="none" cy="3.01733" stroke-width="0.850392"/>
    </g>
   </g>
  </g>
  <g partID="855150261">
   <g transform="translate(57.4728,44.2225)">
    <g id="copper1" >
     <g r="0.992124" id="32" cx="3.01733" stroke="black"  fill="none" cy="3.01733" stroke-width="0.850392"/>
    </g>
   </g>
  </g>
  <g partID="855163121">
   <g transform="translate(21.4072,31.979)">
    <g id="copper1" >
     <g r="0.992124" id="33" cx="3.01733" stroke="black"  fill="none" cy="3.01733" stroke-width="0.850392"/>
    </g>
   </g>
  </g>
  <g partID="855172041">
   <g transform="translate(14.2728,8.22272)">
    <g id="copper1" >
     <g r="0.992124" id="34" cx="3.01733" stroke="black"  fill="none" cy="3.01733" stroke-width="0.850392"/>
    </g>
   </g>
  </g>
  <g partID="855182091">
   <g transform="translate(7.0728,8.22272)">
    <g id="copper1" >
     <g r="0.992124" id="35" cx="3.01733" stroke="black"  fill="none" cy="3.01733" stroke-width="0.850392"/>
    </g>
   </g>
  </g>
  <g partID="855182121">
   <g transform="translate(35.8728,8.22272)">
    <g id="copper1" >
     <g r="0.992124" id="36" cx="3.01733" stroke="black"  fill="none" cy="3.01733" stroke-width="0.850392"/>
    </g>
   </g>
  </g>
  <g partID="854231630">
   <g transform="translate(69.3958,48.941)">
    <g transform="matrix(0,-1,1,0,0,0)">
     <g id="copper1" gorn="0.1" >
      <rect id="37" stroke-linecap="round" gorn="0.1.0" connectorname="1" height="1.41732" width="3.40157" stroke="none" y="1.24299" x="0"  fill="black" stroke-width="0"/>
      <rect id="38" stroke-linecap="round" gorn="0.1.1" connectorname="2" height="1.41732" width="3.40157" stroke="none" y="4.78629" x="0"  fill="black" stroke-width="0"/>
      <rect id="39" stroke-linecap="round" gorn="0.1.2" connectorname="3" height="1.41732" width="3.40157" stroke="none" y="8.32959" x="0"  fill="black" stroke-width="0"/>
      <rect id="40" stroke-linecap="round" gorn="0.1.3" connectorname="4" height="1.41732" width="3.40157" stroke="none" y="11.8729" x="0"  fill="black" stroke-width="0"/>
      <rect id="41" stroke-linecap="round" gorn="0.1.4" connectorname="8" height="1.41732" width="3.40157" stroke="none" y="1.24299" x="6.80314"  fill="black" stroke-width="0"/>
      <rect id="42" stroke-linecap="round" gorn="0.1.5" connectorname="7" height="1.41732" width="3.40157" stroke="none" y="4.78629" x="6.80314"  fill="black" stroke-width="0"/>
      <rect id="43" stroke-linecap="round" gorn="0.1.6" connectorname="6" height="1.41732" width="3.40157" stroke="none" y="8.32959" x="6.80314"  fill="black" stroke-width="0"/>
      <rect id="44" stroke-linecap="round" gorn="0.1.7" connectorname="5" height="1.41732" width="3.40157" stroke="none" y="11.8729" x="6.80314"  fill="black" stroke-width="0"/>
      <g id="45" gorn="0.1.8" />
     </g>
    </g>
   </g>
  </g>
  <g partID="855175440">
   <g transform="translate(46.204,11.637)">
    <g id="copper1" >
     <!-- unten links -->
     <rect id="46" height="2.55118" width="2.26772" stroke="none" y="5.66929" x="0.425197" fill-opacity="1"  fill="black"/>
     <g id="47" height="0" width="0" y="6.94488" x="1.55906"  stroke-width="0" fill="none"/>
     <!-- unten rechts -->
     <rect id="48" height="2.55118" width="2.26772" stroke="none" y="5.66929" x="5.81102" fill-opacity="1"  fill="black"/>
     <g id="49" height="0" width="0" y="6.94488" x="6.94488"  stroke-width="0" fill="none"/>
     <!-- oben mitte -->
     <rect id="50" height="2.55118" width="2.26772" stroke="none" y="0" x="3.11811" fill-opacity="1"  fill="black"/>
     <g id="51" height="0" width="0" y="1.27559" x="4.25197"  stroke-width="0" fill="none"/>
    </g>
   </g>
  </g>
 </g>
</svg>
