<?xml version='1.0' encoding='UTF-8' standalone='no'?>
<!-- Created with Fritzing (https://fritzing.org/) -->
<svg xmlns="http://www.w3.org/2000/svg" height="0.748087in" baseProfile="tiny" viewBox="0 0 111.516 53.8623"  xmlns:svg="http://www.w3.org/2000/svg" version="1.2" x="0in" y="0in" width="1.54884in">
 <g transform="matrix(-1, 0, 0, 1, 111.516, 0)">
  <g partID="855297210">
   <g transform="matrix(1, 0, 0, 1, 110.064, 45.0012)">
    <g id="board">
     <g style="display:inline">
      <path stroke="black" id="boardoutline" d="m-19.6087,-45,-55.3896,0.00425197l0,31.8855l-2.74308,2.60564,-32.3181,-0.0178299,-0.00283465,19.3833l111.515,0l0,-28.0737l-21.0067,0l-4.32701,-4.38681l0,-17.0687z" style="display:inline;fill-rule:evenodd;stroke-linecap:round;stroke-linejoin:round;stroke-miterlimit:4;stroke-dasharray:none" stroke-width="0.5" fill="none" fill-opacity="0.5"/>
     </g>
    </g>
   </g>
  </g>
  <g partID="855307770">
   <g transform="translate(109.81,31.5983)">
    <g transform="matrix(0,1,-1,0,0,0)">
     <g flipped="1" id="copper0">
      <g transform="matrix(-1, 0, 0, 1, 12.4724, 0)">
       <g>
        <g>
         <g>
          <rect stroke="none" height="5.66928" id="0" connectorname="1" stroke-width="0" x="0" fill="black" y="1.13839" width="3.40157" stroke-linecap="round"/>
          <rect stroke="none" height="5.66928" id="1" connectorname="2" stroke-width="0" x="9.07085" fill="black" y="1.13839" width="3.40157" stroke-linecap="round"/>
          <g id="2"/>
         </g>
         <g id="3"/>
        </g>
       </g>
      </g>
     </g>
    </g>
   </g>
  </g>
  <g partID="855307830">
   <g transform="translate(72.644,49.5375)">
    <g transform="matrix(0,-1,1,0,0,0)">
     <g flipped="1" id="copper0">
      <g transform="matrix(-1, 0, 0, 1, 9.35433, 0)">
       <g>
        <g>
         <g>
          <rect stroke="none" height="3.11811" id="4" stroke-width="0" x="0.566929" fill="black" width="3.40157" y="0.566929" fill-opacity="1"/>
          <rect stroke="none" height="3.11811" id="5" stroke-width="0" x="5.38583" fill="black" width="3.40157" y="0.566929" fill-opacity="1"/>
         </g>
        </g>
       </g>
      </g>
     </g>
    </g>
   </g>
  </g>
  <g partID="855271530">
   <g transform="translate(57.352,29.8522)">
    <g id="copper0" >
     <g cx="3.01733" cy="3.01733" r="0.992124" stroke="black" id="6"  stroke-width="0.850392" fill="none"/>
    </g>
   </g>
  </g>
  <g partID="855271560">
   <g transform="translate(50.152,29.8522)">
    <g id="copper0" >
     <g cx="3.01733" cy="3.01733" r="0.992124" stroke="black" id="7"  stroke-width="0.850392" fill="none"/>
    </g>
   </g>
  </g>
  <g partID="855284150">
   <g transform="translate(89.2832,30.7435)">
    <g flipped="1" id="copper0">
     <g transform="matrix(-1, 0, 0, 1, 9.35433, 0)">
      <g>
       <g>
        <g>
         <rect stroke="none" height="3.11811" id="8" stroke-width="0" x="0.566929" fill="black" width="3.40157" y="0.566929" fill-opacity="1"/>
         <rect stroke="none" height="3.11811" id="9" stroke-width="0" x="5.38583" fill="black" width="3.40157" y="0.566929" fill-opacity="1"/>
        </g>
       </g>
      </g>
     </g>
    </g>
   </g>
  </g>
  <g partID="855284180">
   <g transform="translate(89.2832,37.9439)">
    <g flipped="1" id="copper0">
     <g transform="matrix(-1, 0, 0, 1, 9.35433, 0)">
      <g>
       <g>
        <g>
         <rect stroke="none" height="3.11811" id="10" stroke-width="0" x="0.566929" fill="black" width="3.40157" y="0.566929" fill-opacity="1"/>
         <rect stroke="none" height="3.11811" id="11" stroke-width="0" x="5.38583" fill="black" width="3.40157" y="0.566929" fill-opacity="1"/>
        </g>
       </g>
      </g>
     </g>
    </g>
   </g>
  </g>
  <g partID="855136110">
   <g transform="translate(35.752,22.6522)">
    <g id="copper0" >
     <g cx="3.01733" cy="3.01733" r="0.992124" stroke="black" id="12"  stroke-width="0.850392" fill="none"/>
    </g>
   </g>
  </g>
  <g partID="855140600">
   <g transform="translate(78.952,37.0519)">
    <g id="copper0" >
     <g cx="3.01733" cy="3.01733" r="0.992124" stroke="black" id="13"  stroke-width="0.850392" fill="none"/>
    </g>
   </g>
  </g>
  <g partID="855140630">
   <g transform="translate(78.952,29.8522)">
    <g id="copper0" >
     <g cx="3.01733" cy="3.01733" r="0.992124" stroke="black" id="14"  stroke-width="0.850392" fill="none"/>
    </g>
   </g>
  </g>
  <g partID="855297070">
   <g transform="translate(80.8112,-0.10136)">
    <g transform="matrix(4.29042, 0, 0, 1.88015, -8.01687, -2.63744)">
     <g id="copper0">
      <g gorn="0.4.0.0.0.0.0.0.0.0.0.0.0.0.0.0.0.0">
       <g id="g31" gorn="0.4.0.0.0.0.0.0.0.0.0.0.0.0.0.0.0.0.0">
        <g transform="matrix(2.42789, 0, 0, 5.54033, 1.86855, 1.40278)">
         <g>
          <g>
           <g>
            <g>
             <g>
              <g>
               <g>
                <g>
                 <g>
                  <g>
                   <g>
                    <g>
                     <g>
                      <g id="15" d="M0.140062,0.140062L0.140062,0.684282L0.684422,0.140062Z" style="fill-rule:evenodd;" gorn="0.4.0.0.0.0.0.0.0.0.0.0.0.0.0.0.0.0.0.0.0.0.0.0.0.0.0.0.0.0.0.0.0" fill="black" fill-opacity="1"/>
                     </g>
                    </g>
                   </g>
                  </g>
                 </g>
                </g>
               </g>
              </g>
             </g>
            </g>
           </g>
          </g>
         </g>
        </g>
        <g transform="matrix(2.42789, 0, 0, 5.54033, 1.86855, 1.40278)">
         <g>
          <g>
           <g>
            <g>
             <g>
              <g>
               <g>
                <g>
                 <g>
                  <g>
                   <g>
                    <g>
                     <g>
                      <g id="16" d="m0.141468,1.93429l0,0.54436l0.54436,0z" style="fill-rule:evenodd" gorn="0.4.0.0.0.0.0.0.0.0.0.0.0.0.0.0.0.0.0.1.0.0.0.0.0.0.0.0.0.0.0.0.0" fill="black" fill-opacity="1"/>
                     </g>
                    </g>
                   </g>
                  </g>
                 </g>
                </g>
               </g>
              </g>
             </g>
            </g>
           </g>
          </g>
         </g>
        </g>
       </g>
      </g>
     </g>
    </g>
   </g>
  </g>
  <g partID="855304010">
   <g transform="translate(2.296,35.4775)">
    <g transform="matrix(1.52608, 0, 0, 1.52649, -0.427877, -0.174562)">
     <g id="copper0">
      <g gorn="0.2.0.0.0.0.0.0.6">
       <g cy="3.12265" cx="18.9967" r="1.35213" stroke="black" id="17" connectorname="5" stroke-width="0.72" fill="none" gorn="0.2.0.0.0.0.0.0.6.0"/>
       <g cy="3.12265" cx="14.7447" r="1.35213" stroke="black" id="18" connectorname="4" stroke-width="0.72" fill="none" gorn="0.2.0.0.0.0.0.0.6.1"/>
       <g cy="3.12265" cx="10.4927" r="1.35213" stroke="black" id="19" connectorname="3" stroke-width="0.72" fill="none" gorn="0.2.0.0.0.0.0.0.6.2"/>
       <g cy="3.12265" cx="6.24076" r="1.35213" stroke="black" id="20" connectorname="2" stroke-width="0.72" fill="none" gorn="0.2.0.0.0.0.0.0.6.3"/>
       <g stroke="none" id="21" d="m0.276661,1.41052l3.42425,0l0,3.42425l-3.42425,0zm0.72,1.71213a0.992126,0.992126,0,1,0,1.98425,0,0.992126,0.992126,0,1,0,-1.98425,0z" stroke-width="0" fill="black" gorn="0.2.0.0.0.0.0.0.6.4"/>
       <g cy="3.12265" cx="1.98879" r="1.35213" stroke="black" id="22" connectorname="1" stroke-width="0.72" fill="none" gorn="0.2.0.0.0.0.0.0.6.5"/>
      </g>
     </g>
    </g>
   </g>
  </g>
  <g partID="854194110">
   <g transform="translate(69.3696,19.6386)">
    <g transform="matrix(2.22045e-16,1,-1,2.22045e-16,0,0)">
     <g flipped="1" id="copper0">
      <g transform="matrix(-1, 0, 0, 1, 27.936, 0)">
       <g>
        <g>
         <g>
          <rect stroke="none" height="1.584" id="23" connectorname="1" stroke-width="0" x="0" fill="black" y="5.23899" width="3.6" stroke-linecap="round"/>
          <rect stroke="none" height="1.584" id="24" connectorname="2" stroke-width="0" x="0" fill="black" y="7.50671" width="3.6" stroke-linecap="round"/>
          <rect stroke="none" height="1.584" id="25" connectorname="3" stroke-width="0" x="0" fill="black" y="9.77443" width="3.6" stroke-linecap="round"/>
          <rect stroke="none" height="1.584" id="26" connectorname="4" stroke-width="0" x="0" fill="black" y="12.0421" width="3.6" stroke-linecap="round"/>
          <rect stroke="none" height="1.584" id="27" connectorname="5" stroke-width="0" x="0" fill="black" y="14.3099" width="3.6" stroke-linecap="round"/>
          <rect stroke="none" height="1.584" id="28" connectorname="6" stroke-width="0" x="0" fill="black" y="16.5776" width="3.6" stroke-linecap="round"/>
          <rect stroke="none" height="1.584" id="29" connectorname="7" stroke-width="0" x="0" fill="black" y="18.8453" width="3.6" stroke-linecap="round"/>
          <rect stroke="none" height="1.584" id="30" connectorname="8" stroke-width="0" x="0" fill="black" y="21.113" width="3.6" stroke-linecap="round"/>
          <rect stroke="none" height="3.6" id="31" connectorname="9" stroke-width="0" x="5.23899" fill="black" y="24.336" width="1.584" stroke-linecap="round"/>
          <rect stroke="none" height="3.6" id="32" connectorname="10" stroke-width="0" x="7.50671" fill="black" y="24.336" width="1.584" stroke-linecap="round"/>
          <rect stroke="none" height="3.6" id="33" connectorname="11" stroke-width="0" x="9.77443" fill="black" y="24.336" width="1.584" stroke-linecap="round"/>
          <rect stroke="none" height="3.6" id="34" connectorname="12" stroke-width="0" x="12.0421" fill="black" y="24.336" width="1.584" stroke-linecap="round"/>
          <rect stroke="none" height="3.6" id="35" connectorname="13" stroke-width="0" x="14.3099" fill="black" y="24.336" width="1.584" stroke-linecap="round"/>
          <rect stroke="none" height="3.6" id="36" connectorname="14" stroke-width="0" x="16.5776" fill="black" y="24.336" width="1.584" stroke-linecap="round"/>
          <rect stroke="none" height="3.6" id="37" connectorname="15" stroke-width="0" x="18.8453" fill="black" y="24.336" width="1.584" stroke-linecap="round"/>
          <rect stroke="none" height="3.6" id="38" connectorname="16" stroke-width="0" x="21.113" fill="black" y="24.336" width="1.584" stroke-linecap="round"/>
          <rect stroke="none" height="1.584" id="39" connectorname="17" stroke-width="0" x="24.336" fill="black" y="21.113" width="3.6" stroke-linecap="round"/>
          <rect stroke="none" height="1.584" id="40" connectorname="18" stroke-width="0" x="24.336" fill="black" y="18.8453" width="3.6" stroke-linecap="round"/>
          <rect stroke="none" height="1.584" id="41" connectorname="19" stroke-width="0" x="24.336" fill="black" y="16.5776" width="3.6" stroke-linecap="round"/>
          <rect stroke="none" height="1.584" id="42" connectorname="20" stroke-width="0" x="24.336" fill="black" y="14.3099" width="3.6" stroke-linecap="round"/>
          <rect stroke="none" height="1.584" id="43" connectorname="21" stroke-width="0" x="24.336" fill="black" y="12.0421" width="3.6" stroke-linecap="round"/>
          <rect stroke="none" height="1.584" id="44" connectorname="22" stroke-width="0" x="24.336" fill="black" y="9.77443" width="3.6" stroke-linecap="round"/>
          <rect stroke="none" height="1.584" id="45" connectorname="23" stroke-width="0" x="24.336" fill="black" y="7.50671" width="3.6" stroke-linecap="round"/>
          <rect stroke="none" height="1.584" id="46" connectorname="24" stroke-width="0" x="24.336" fill="black" y="5.23899" width="3.6" stroke-linecap="round"/>
          <rect stroke="none" height="3.6" id="47" connectorname="25" stroke-width="0" x="21.113" fill="black" y="0" width="1.584" stroke-linecap="round"/>
          <rect stroke="none" height="3.6" id="48" connectorname="26" stroke-width="0" x="18.8453" fill="black" y="0" width="1.584" stroke-linecap="round"/>
          <rect stroke="none" height="3.6" id="49" connectorname="27" stroke-width="0" x="16.5776" fill="black" y="0" width="1.584" stroke-linecap="round"/>
          <rect stroke="none" height="3.6" id="50" connectorname="28" stroke-width="0" x="14.3099" fill="black" y="0" width="1.584" stroke-linecap="round"/>
          <rect stroke="none" height="3.6" id="51" connectorname="29" stroke-width="0" x="12.0421" fill="black" y="0" width="1.584" stroke-linecap="round"/>
          <rect stroke="none" height="3.6" id="52" connectorname="30" stroke-width="0" x="9.77443" fill="black" y="0" width="1.584" stroke-linecap="round"/>
          <rect stroke="none" height="3.6" id="53" connectorname="31" stroke-width="0" x="7.50671" fill="black" y="0" width="1.584" stroke-linecap="round"/>
          <rect stroke="none" height="3.6" id="54" connectorname="32" stroke-width="0" x="5.23899" fill="black" y="0" width="1.584" stroke-linecap="round"/>
          <g id="55"/>
         </g>
         <g id="56"/>
        </g>
       </g>
      </g>
     </g>
    </g>
   </g>
  </g>
  <g partID="855150260">
   <g transform="translate(78.952,44.2519)">
    <g id="copper0" >
     <g cx="3.01733" cy="3.01733" r="0.992124" stroke="black" id="57"  stroke-width="0.850392" fill="none"/>
    </g>
   </g>
  </g>
  <g partID="855163120">
   <g transform="translate(71.752,37.0519)">
    <g id="copper0" >
     <g cx="3.01733" cy="3.01733" r="0.992124" stroke="black" id="58"  stroke-width="0.850392" fill="none"/>
    </g>
   </g>
  </g>
  <g partID="855289460">
   <g transform="translate(71.752,1.05216)">
    <g id="copper0" >
     <g cx="3.01733" cy="3.01733" r="0.992124" stroke="black" id="59"  stroke-width="0.850392" fill="none"/>
    </g>
   </g>
  </g>
  <g partID="855288660">
   <g transform="translate(100.552,29.8522)">
    <g id="copper0" >
     <g cx="3.01733" cy="3.01733" r="0.992124" stroke="black" id="60"  stroke-width="0.850392" fill="none"/>
    </g>
   </g>
  </g>
  <g partID="855287180">
   <g transform="translate(57.352,8.25216)">
    <g id="copper0" >
     <g cx="3.01733" cy="3.01733" r="0.992124" stroke="black" id="61"  stroke-width="0.850392" fill="none"/>
    </g>
   </g>
  </g>
  <g partID="855182090">
   <g transform="translate(50.152,8.25216)">
    <g id="copper0" >
     <g cx="3.01733" cy="3.01733" r="0.992124" stroke="black" id="62"  stroke-width="0.850392" fill="none"/>
    </g>
   </g>
  </g>
 </g>
</svg>
