<?xml version='1.0' encoding='UTF-8' standalone='no'?>
<!-- Created with Fritzing (https://fritzing.org/) -->
<svg xmlns="http://www.w3.org/2000/svg" x="0in" baseProfile="tiny" viewBox="0 0 111.516 53.8623" version="1.2" width="1.54884in" y="0in" height="0.748087in" xmlns:svg="http://www.w3.org/2000/svg" >
 <g partID="855297210">
  <g transform="matrix(1, 0, 0, 1, 110.064, 45.0012)">
   <g id="board">
    <g style="display:inline">
     <path stroke="black" d="m-19.6087,-45,-55.3896,0.00425197l0,31.8855l-2.74308,2.60564,-32.3181,-0.0178299,-0.00283465,19.3833l111.515,0l0,-28.0737l-21.0067,0l-4.32701,-4.38681l0,-17.0687z" fill-opacity="0.5" style="display:inline;fill-rule:evenodd;stroke-linecap:round;stroke-linejoin:round;stroke-miterlimit:4;stroke-dasharray:none" fill="none" id="boardoutline" stroke-width="0.5"/>
    </g>
   </g>
  </g>
 </g>
 <g partID="855271530">
  <g transform="translate(57.352,29.8522)">
   <g id="copper0" >
    <g stroke="black" cy="3.01733" cx="3.01733" fill="none" id="0"  stroke-width="0.850392" r="0.992124"/>
   </g>
  </g>
 </g>
 <g partID="855271560">
  <g transform="translate(50.152,29.8522)">
   <g id="copper0" >
    <g stroke="black" cy="3.01733" cx="3.01733" fill="none" id="1"  stroke-width="0.850392" r="0.992124"/>
   </g>
  </g>
 </g>
 <g partID="855284150">
  <g transform="translate(89.2832,30.7435)">
   <g flipped="1" id="copper0">
    <g transform="matrix(-1, 0, 0, 1, 9.35433, 0)">
     <g>
      <g>
       <g>
        <rect x="0.566929" stroke="none" fill-opacity="1" width="3.40157" y="0.566929" height="3.11811" id="2" fill="black" stroke-width="0"/>
        <rect x="5.38583" stroke="none" fill-opacity="1" width="3.40157" y="0.566929" height="3.11811" id="3" fill="black" stroke-width="0"/>
       </g>
      </g>
     </g>
    </g>
   </g>
  </g>
 </g>
 <g partID="855284180">
  <g transform="translate(89.2832,37.9439)">
   <g flipped="1" id="copper0">
    <g transform="matrix(-1, 0, 0, 1, 9.35433, 0)">
     <g>
      <g>
       <g>
        <rect x="0.566929" stroke="none" fill-opacity="1" width="3.40157" y="0.566929" height="3.11811" id="4" fill="black" stroke-width="0"/>
        <rect x="5.38583" stroke="none" fill-opacity="1" width="3.40157" y="0.566929" height="3.11811" id="5" fill="black" stroke-width="0"/>
       </g>
      </g>
     </g>
    </g>
   </g>
  </g>
 </g>
 <g partID="855136110">
  <g transform="translate(35.752,22.6522)">
   <g id="copper0" >
    <g stroke="black" cy="3.01733" cx="3.01733" fill="none" id="6"  stroke-width="0.850392" r="0.992124"/>
   </g>
  </g>
 </g>
 <g partID="855140600">
  <g transform="translate(78.952,37.0519)">
   <g id="copper0" >
    <g stroke="black" cy="3.01733" cx="3.01733" fill="none" id="7"  stroke-width="0.850392" r="0.992124"/>
   </g>
  </g>
 </g>
 <g partID="855140630">
  <g transform="translate(78.952,29.8522)">
   <g id="copper0" >
    <g stroke="black" cy="3.01733" cx="3.01733" fill="none" id="8"  stroke-width="0.850392" r="0.992124"/>
   </g>
  </g>
 </g>
 <g partID="855297070">
  <g transform="translate(80.8112,-0.10136)">
   <g transform="matrix(4.29042, 0, 0, 1.88015, -8.01687, -2.63744)">
    <g id="copper0">
     <g gorn="0.4.0.0.0.0.0.0.0.0.0.0.0.0.0.0.0.0">
      <g gorn="0.4.0.0.0.0.0.0.0.0.0.0.0.0.0.0.0.0.0" id="g31">
       <g transform="matrix(2.42789, 0, 0, 5.54033, 1.86855, 1.40278)">
        <g>
         <g>
          <g>
           <g>
            <g>
             <g>
              <g>
               <g>
                <g>
                 <g>
                  <g>
                   <g>
                    <g>
                     <g d="M0.140062,0.140062L0.140062,0.684282L0.684422,0.140062Z" gorn="0.4.0.0.0.0.0.0.0.0.0.0.0.0.0.0.0.0.0.0.0.0.0.0.0.0.0.0.0.0.0.0.0" fill-opacity="1" style="fill-rule:evenodd;" id="9" fill="black"/>
                    </g>
                   </g>
                  </g>
                 </g>
                </g>
               </g>
              </g>
             </g>
            </g>
           </g>
          </g>
         </g>
        </g>
       </g>
       <g transform="matrix(2.42789, 0, 0, 5.54033, 1.86855, 1.40278)">
        <g>
         <g>
          <g>
           <g>
            <g>
             <g>
              <g>
               <g>
                <g>
                 <g>
                  <g>
                   <g>
                    <g>
                     <g d="m0.141468,1.93429l0,0.54436l0.54436,0z" gorn="0.4.0.0.0.0.0.0.0.0.0.0.0.0.0.0.0.0.0.1.0.0.0.0.0.0.0.0.0.0.0.0.0" fill-opacity="1" style="fill-rule:evenodd" id="10" fill="black"/>
                    </g>
                   </g>
                  </g>
                 </g>
                </g>
               </g>
              </g>
             </g>
            </g>
           </g>
          </g>
         </g>
        </g>
       </g>
      </g>
     </g>
    </g>
   </g>
  </g>
 </g>
 <g partID="855304010">
  <g transform="translate(2.296,35.4775)">
   <g transform="matrix(1.52608, 0, 0, 1.52649, -0.427877, -0.174562)">
    <g id="copper0">
     <g gorn="0.2.0.0.0.0.0.0.6">
      <g stroke="black" connectorname="5" gorn="0.2.0.0.0.0.0.0.6.0" cy="3.12265" cx="18.9967" fill="none" id="11" stroke-width="0.72" r="1.35213"/>
      <g stroke="black" connectorname="4" gorn="0.2.0.0.0.0.0.0.6.1" cy="3.12265" cx="14.7447" fill="none" id="12" stroke-width="0.72" r="1.35213"/>
      <g stroke="black" connectorname="3" gorn="0.2.0.0.0.0.0.0.6.2" cy="3.12265" cx="10.4927" fill="none" id="13" stroke-width="0.72" r="1.35213"/>
      <g stroke="black" connectorname="2" gorn="0.2.0.0.0.0.0.0.6.3" cy="3.12265" cx="6.24076" fill="none" id="14" stroke-width="0.72" r="1.35213"/>
      <g stroke="none" d="m0.276661,1.41052l3.42425,0l0,3.42425l-3.42425,0zm0.72,1.71213a0.992126,0.992126,0,1,0,1.98425,0,0.992126,0.992126,0,1,0,-1.98425,0z" gorn="0.2.0.0.0.0.0.0.6.4" fill="black" id="15" stroke-width="0"/>
      <g stroke="black" connectorname="1" gorn="0.2.0.0.0.0.0.0.6.5" cy="3.12265" cx="1.98879" fill="none" id="16" stroke-width="0.72" r="1.35213"/>
     </g>
    </g>
   </g>
  </g>
 </g>
 <g partID="854194110">
  <g transform="translate(69.3696,19.6386)">
   <g transform="matrix(2.22045e-16,1,-1,2.22045e-16,0,0)">
    <g flipped="1" id="copper0">
     <g transform="matrix(-1, 0, 0, 1, 27.936, 0)">
      <g>
       <g>
        <g>
         <rect x="0" stroke="none" connectorname="1" width="3.6" y="5.23899" stroke-linecap="round" id="17" height="1.584" fill="black" stroke-width="0"/>
         <rect x="0" stroke="none" connectorname="2" width="3.6" y="7.50671" stroke-linecap="round" id="18" height="1.584" fill="black" stroke-width="0"/>
         <rect x="0" stroke="none" connectorname="3" width="3.6" y="9.77443" stroke-linecap="round" id="19" height="1.584" fill="black" stroke-width="0"/>
         <rect x="0" stroke="none" connectorname="4" width="3.6" y="12.0421" stroke-linecap="round" id="20" height="1.584" fill="black" stroke-width="0"/>
         <rect x="0" stroke="none" connectorname="5" width="3.6" y="14.3099" stroke-linecap="round" id="21" height="1.584" fill="black" stroke-width="0"/>
         <rect x="0" stroke="none" connectorname="6" width="3.6" y="16.5776" stroke-linecap="round" id="22" height="1.584" fill="black" stroke-width="0"/>
         <rect x="0" stroke="none" connectorname="7" width="3.6" y="18.8453" stroke-linecap="round" id="23" height="1.584" fill="black" stroke-width="0"/>
         <rect x="0" stroke="none" connectorname="8" width="3.6" y="21.113" stroke-linecap="round" id="24" height="1.584" fill="black" stroke-width="0"/>
         <rect x="5.23899" stroke="none" connectorname="9" width="1.584" y="24.336" stroke-linecap="round" id="25" height="3.6" fill="black" stroke-width="0"/>
         <rect x="7.50671" stroke="none" connectorname="10" width="1.584" y="24.336" stroke-linecap="round" id="26" height="3.6" fill="black" stroke-width="0"/>
         <rect x="9.77443" stroke="none" connectorname="11" width="1.584" y="24.336" stroke-linecap="round" id="27" height="3.6" fill="black" stroke-width="0"/>
         <rect x="12.0421" stroke="none" connectorname="12" width="1.584" y="24.336" stroke-linecap="round" id="28" height="3.6" fill="black" stroke-width="0"/>
         <rect x="14.3099" stroke="none" connectorname="13" width="1.584" y="24.336" stroke-linecap="round" id="29" height="3.6" fill="black" stroke-width="0"/>
         <rect x="16.5776" stroke="none" connectorname="14" width="1.584" y="24.336" stroke-linecap="round" id="30" height="3.6" fill="black" stroke-width="0"/>
         <rect x="18.8453" stroke="none" connectorname="15" width="1.584" y="24.336" stroke-linecap="round" id="31" height="3.6" fill="black" stroke-width="0"/>
         <rect x="21.113" stroke="none" connectorname="16" width="1.584" y="24.336" stroke-linecap="round" id="32" height="3.6" fill="black" stroke-width="0"/>
         <rect x="24.336" stroke="none" connectorname="17" width="3.6" y="21.113" stroke-linecap="round" id="33" height="1.584" fill="black" stroke-width="0"/>
         <rect x="24.336" stroke="none" connectorname="18" width="3.6" y="18.8453" stroke-linecap="round" id="34" height="1.584" fill="black" stroke-width="0"/>
         <rect x="24.336" stroke="none" connectorname="19" width="3.6" y="16.5776" stroke-linecap="round" id="35" height="1.584" fill="black" stroke-width="0"/>
         <rect x="24.336" stroke="none" connectorname="20" width="3.6" y="14.3099" stroke-linecap="round" id="36" height="1.584" fill="black" stroke-width="0"/>
         <rect x="24.336" stroke="none" connectorname="21" width="3.6" y="12.0421" stroke-linecap="round" id="37" height="1.584" fill="black" stroke-width="0"/>
         <rect x="24.336" stroke="none" connectorname="22" width="3.6" y="9.77443" stroke-linecap="round" id="38" height="1.584" fill="black" stroke-width="0"/>
         <rect x="24.336" stroke="none" connectorname="23" width="3.6" y="7.50671" stroke-linecap="round" id="39" height="1.584" fill="black" stroke-width="0"/>
         <rect x="24.336" stroke="none" connectorname="24" width="3.6" y="5.23899" stroke-linecap="round" id="40" height="1.584" fill="black" stroke-width="0"/>
         <rect x="21.113" stroke="none" connectorname="25" width="1.584" y="0" stroke-linecap="round" id="41" height="3.6" fill="black" stroke-width="0"/>
         <rect x="18.8453" stroke="none" connectorname="26" width="1.584" y="0" stroke-linecap="round" id="42" height="3.6" fill="black" stroke-width="0"/>
         <rect x="16.5776" stroke="none" connectorname="27" width="1.584" y="0" stroke-linecap="round" id="43" height="3.6" fill="black" stroke-width="0"/>
         <rect x="14.3099" stroke="none" connectorname="28" width="1.584" y="0" stroke-linecap="round" id="44" height="3.6" fill="black" stroke-width="0"/>
         <rect x="12.0421" stroke="none" connectorname="29" width="1.584" y="0" stroke-linecap="round" id="45" height="3.6" fill="black" stroke-width="0"/>
         <rect x="9.77443" stroke="none" connectorname="30" width="1.584" y="0" stroke-linecap="round" id="46" height="3.6" fill="black" stroke-width="0"/>
         <rect x="7.50671" stroke="none" connectorname="31" width="1.584" y="0" stroke-linecap="round" id="47" height="3.6" fill="black" stroke-width="0"/>
         <rect x="5.23899" stroke="none" connectorname="32" width="1.584" y="0" stroke-linecap="round" id="48" height="3.6" fill="black" stroke-width="0"/>
         <g id="49"/>
        </g>
        <g id="50"/>
       </g>
      </g>
     </g>
    </g>
   </g>
  </g>
 </g>
 <g partID="855150260">
  <g transform="translate(78.952,44.2519)">
   <g id="copper0" >
    <g stroke="black" cy="3.01733" cx="3.01733" fill="none" id="51"  stroke-width="0.850392" r="0.992124"/>
   </g>
  </g>
 </g>
 <g partID="855163120">
  <g transform="translate(71.752,37.0519)">
   <g id="copper0" >
    <g stroke="black" cy="3.01733" cx="3.01733" fill="none" id="52"  stroke-width="0.850392" r="0.992124"/>
   </g>
  </g>
 </g>
 <g partID="855289460">
  <g transform="translate(71.752,1.05216)">
   <g id="copper0" >
    <g stroke="black" cy="3.01733" cx="3.01733" fill="none" id="53"  stroke-width="0.850392" r="0.992124"/>
   </g>
  </g>
 </g>
 <g partID="855288660">
  <g transform="translate(100.552,29.8522)">
   <g id="copper0" >
    <g stroke="black" cy="3.01733" cx="3.01733" fill="none" id="54"  stroke-width="0.850392" r="0.992124"/>
   </g>
  </g>
 </g>
 <g partID="855287180">
  <g transform="translate(57.352,8.25216)">
   <g id="copper0" >
    <g stroke="black" cy="3.01733" cx="3.01733" fill="none" id="55"  stroke-width="0.850392" r="0.992124"/>
   </g>
  </g>
 </g>
 <g partID="855182090">
  <g transform="translate(50.152,8.25216)">
   <g id="copper0" >
    <g stroke="black" cy="3.01733" cx="3.01733" fill="none" id="56"  stroke-width="0.850392" r="0.992124"/>
   </g>
  </g>
 </g>
 <g partID="855307770">
  <g transform="translate(109.81,31.5985)">
   <g transform="matrix(0,1,-1,0,0,0)">
    <g flipped="1" id="copper0">
     <g transform="matrix(-1, 0, 0, 1, 12.4724, 0)">
      <g>
       <g>
        <g>
         <rect x="0" stroke="none" connectorname="1" width="3.40157" y="1.13839" stroke-linecap="round" id="57" height="5.66928" fill="black" stroke-width="0"/>
         <rect x="9.07085" stroke="none" connectorname="2" width="3.40157" y="1.13839" stroke-linecap="round" id="58" height="5.66928" fill="black" stroke-width="0"/>
         <g id="59"/>
        </g>
        <g id="60"/>
       </g>
      </g>
     </g>
    </g>
   </g>
  </g>
 </g>
</svg>
