<?xml version='1.0' encoding='UTF-8' standalone='no'?>
<!-- Created with Fritzing (https://fritzing.org/) -->
<svg xmlns="http://www.w3.org/2000/svg" x="0in" baseProfile="tiny" viewBox="0 0 111.516 53.8623" version="1.2" width="1.54884in" y="0in" height="0.748087in" xmlns:svg="http://www.w3.org/2000/svg" >
 <g partID="855297210">
  <g transform="matrix(1, 0, 0, 1, 110.064, 45.0012)">
   <g id="board">
    <g style="display:inline">
     <path stroke="black" d="m-19.6087,-45,-55.3896,0.00425197l0,31.8855l-2.74308,2.60564,-32.3181,-0.0178299,-0.00283465,19.3833l111.515,0l0,-28.0737l-21.0067,0l-4.32701,-4.38681l0,-17.0687z" fill-opacity="0.5" style="display:inline;fill-rule:evenodd;stroke-linecap:round;stroke-linejoin:round;stroke-miterlimit:4;stroke-dasharray:none" fill="none" id="boardoutline" stroke-width="0.5"/>
    </g>
   </g>
  </g>
 </g>
 <g partID="855271531">
  <g transform="translate(57.352,29.8522)">
   <g id="copper1" >
    <circle stroke="black" cy="3.01733" cx="3.01733" fill="none" id="connector0pin"  stroke-width="0.850392" r="0.992124"/>
   </g>
  </g>
 </g>
 <g partID="855271561">
  <g transform="translate(50.152,29.8522)">
   <g id="copper1" >
    <circle stroke="black" cy="3.01733" cx="3.01733" fill="none" id="connector0pin"  stroke-width="0.850392" r="0.992124"/>
   </g>
  </g>
 </g>
 <g partID="855136111">
  <g transform="translate(35.752,22.6522)">
   <g id="copper1" >
    <circle stroke="black" cy="3.01733" cx="3.01733" fill="none" id="connector0pin"  stroke-width="0.850392" r="0.992124"/>
   </g>
  </g>
 </g>
 <g partID="855140601">
  <g transform="translate(78.952,37.0519)">
   <g id="copper1" >
    <circle stroke="black" cy="3.01733" cx="3.01733" fill="none" id="connector0pin"  stroke-width="0.850392" r="0.992124"/>
   </g>
  </g>
 </g>
 <g partID="855140631">
  <g transform="translate(78.952,29.8522)">
   <g id="copper1" >
    <circle stroke="black" cy="3.01733" cx="3.01733" fill="none" id="connector0pin"  stroke-width="0.850392" r="0.992124"/>
   </g>
  </g>
 </g>
 <g partID="855304011">
  <g transform="translate(2.296,35.4775)">
   <g transform="matrix(1.52608, 0, 0, 1.52649, -0.427877, -0.174562)">
    <g id="copper1">
     <g gorn="0.2.0.0.0.0.0.0">
      <circle stroke="black" connectorname="5" gorn="0.2.0.0.0.0.0.0.0" cy="3.12265" cx="18.9967" fill="none" id="circle12" stroke-width="0.72" r="1.35213"/>
      <circle stroke="black" connectorname="4" gorn="0.2.0.0.0.0.0.0.1" cy="3.12265" cx="14.7447" fill="none" id="circle19" stroke-width="0.72" r="1.35213"/>
      <circle stroke="black" connectorname="3" gorn="0.2.0.0.0.0.0.0.2" cy="3.12265" cx="10.4927" fill="none" id="circle9" stroke-width="0.72" r="1.35213"/>
      <circle stroke="black" connectorname="2" gorn="0.2.0.0.0.0.0.0.3" cy="3.12265" cx="6.24076" fill="none" id="circle7" stroke-width="0.72" r="1.35213"/>
      <circle stroke="black" connectorname="1" gorn="0.2.0.0.0.0.0.0.4" cy="3.12265" cx="1.98879" fill="none" id="circle4" stroke-width="0.72" r="1.35213"/>
      <path stroke="none" d="m0.276661,1.41052l3.42425,0l0,3.42425l-3.42425,0zm0.72,1.71213a0.992126,0.992126,0,1,0,1.98425,0,0.992126,0.992126,0,1,0,-1.98425,0z" gorn="0.2.0.0.0.0.0.0.5" fill="black" id="path5" stroke-width="0"/>
      <g gorn="0.2.0.0.0.0.0.0.6" id="copper0">
       <circle stroke="black" connectorname="5" gorn="0.2.0.0.0.0.0.0.6.0" cy="3.12265" cx="18.9967" fill="none" id="connector4pad" stroke-width="0.72" r="1.35213"/>
       <circle stroke="black" connectorname="4" gorn="0.2.0.0.0.0.0.0.6.1" cy="3.12265" cx="14.7447" fill="none" id="connector3pad" stroke-width="0.72" r="1.35213"/>
       <circle stroke="black" connectorname="3" gorn="0.2.0.0.0.0.0.0.6.2" cy="3.12265" cx="10.4927" fill="none" id="connector2pad" stroke-width="0.72" r="1.35213"/>
       <circle stroke="black" connectorname="2" gorn="0.2.0.0.0.0.0.0.6.3" cy="3.12265" cx="6.24076" fill="none" id="connector1pad" stroke-width="0.72" r="1.35213"/>
       <path stroke="none" d="m0.276661,1.41052l3.42425,0l0,3.42425l-3.42425,0zm0.72,1.71213a0.992126,0.992126,0,1,0,1.98425,0,0.992126,0.992126,0,1,0,-1.98425,0z" gorn="0.2.0.0.0.0.0.0.6.4" fill="black" id="connector0pad" stroke-width="0"/>
       <circle stroke="black" connectorname="1" gorn="0.2.0.0.0.0.0.0.6.5" cy="3.12265" cx="1.98879" fill="none" id="circle11" stroke-width="0.72" r="1.35213"/>
      </g>
     </g>
    </g>
   </g>
  </g>
 </g>
 <g partID="855150261">
  <g transform="translate(78.952,44.2519)">
   <g id="copper1" >
    <circle stroke="black" cy="3.01733" cx="3.01733" fill="none" id="connector0pin"  stroke-width="0.850392" r="0.992124"/>
   </g>
  </g>
 </g>
 <g partID="855163121">
  <g transform="translate(71.752,37.0519)">
   <g id="copper1" >
    <circle stroke="black" cy="3.01733" cx="3.01733" fill="none" id="connector0pin"  stroke-width="0.850392" r="0.992124"/>
   </g>
  </g>
 </g>
 <g partID="855289461">
  <g transform="translate(71.752,1.05216)">
   <g id="copper1" >
    <circle stroke="black" cy="3.01733" cx="3.01733" fill="none" id="connector0pin"  stroke-width="0.850392" r="0.992124"/>
   </g>
  </g>
 </g>
 <g partID="855288661">
  <g transform="translate(100.552,29.8522)">
   <g id="copper1" >
    <circle stroke="black" cy="3.01733" cx="3.01733" fill="none" id="connector0pin"  stroke-width="0.850392" r="0.992124"/>
   </g>
  </g>
 </g>
 <g partID="855287181">
  <g transform="translate(57.352,8.25216)">
   <g id="copper1" >
    <circle stroke="black" cy="3.01733" cx="3.01733" fill="none" id="connector0pin"  stroke-width="0.850392" r="0.992124"/>
   </g>
  </g>
 </g>
 <g partID="855182091">
  <g transform="translate(50.152,8.25216)">
   <g id="copper1" >
    <circle stroke="black" cy="3.01733" cx="3.01733" fill="none" id="connector0pin"  stroke-width="0.850392" r="0.992124"/>
   </g>
  </g>
 </g>
 <g partID="854231630">
  <g transform="translate(90.9878,48.9705)">
   <g transform="matrix(0,-1,1,0,0,0)">
    <g gorn="0.1" id="copper1" >
     <rect x="0" stroke="none" connectorname="1" gorn="0.1.0" width="3.40157" y="1.24299" stroke-linecap="round" id="connector0pad" fill="black" height="1.41732"  stroke-width="0"/>
     <rect x="0" stroke="none" connectorname="2" gorn="0.1.1" width="3.40157" y="4.78629" stroke-linecap="round" id="connector1pad" fill="black" height="1.41732"  stroke-width="0"/>
     <rect x="0" stroke="none" connectorname="3" gorn="0.1.2" width="3.40157" y="8.32959" stroke-linecap="round" id="connector2pad" fill="black" height="1.41732"  stroke-width="0"/>
     <rect x="0" stroke="none" connectorname="4" gorn="0.1.3" width="3.40157" y="11.8729" stroke-linecap="round" id="connector3pad" fill="black" height="1.41732"  stroke-width="0"/>
     <rect x="6.80314" stroke="none" connectorname="8" gorn="0.1.4" width="3.40157" y="1.24299" stroke-linecap="round" id="connector7pin" fill="black" height="1.41732"  stroke-width="0"/>
     <rect x="6.80314" stroke="none" connectorname="7" gorn="0.1.5" width="3.40157" y="4.78629" stroke-linecap="round" id="connector6pin" fill="black" height="1.41732"  stroke-width="0"/>
     <rect x="6.80314" stroke="none" connectorname="6" gorn="0.1.6" width="3.40157" y="8.32959" stroke-linecap="round" id="connector5pin" fill="black" height="1.41732"  stroke-width="0"/>
     <rect x="6.80314" stroke="none" connectorname="5" gorn="0.1.7" width="3.40157" y="11.8729" stroke-linecap="round" id="connector4pin" fill="black" height="1.41732"  stroke-width="0"/>
     <g gorn="0.1.8" id="copper0" />
    </g>
   </g>
  </g>
 </g>
 <g partID="855236320">
  <g transform="translate(67.8248,11.5246)">
   <g transform="matrix(1,0,0,1,0,0)">
    <g id="copper1" >
     <!-- unten links -->
     <rect x="0.425197" stroke="none" fill-opacity="1" width="2.26772" y="5.66929" height="2.55118" id="connector0pin" fill="black" />
     <g x="1.55906" width="0" y="6.94488" height="0" id="connector0terminal" fill="none"  stroke-width="0"/>
     <!-- unten rechts -->
     <rect x="5.81102" stroke="none" fill-opacity="1" width="2.26772" y="5.66929" height="2.55118" id="connector1pin" fill="black" />
     <g x="6.94488" width="0" y="6.94488" height="0" id="connector1terminal" fill="none"  stroke-width="0"/>
     <!-- oben mitte -->
     <rect x="3.11811" stroke="none" fill-opacity="1" width="2.26772" y="0" height="2.55118" id="connector2pin" fill="black" />
     <g x="4.25197" width="0" y="1.27559" height="0" id="connector2terminal" fill="none"  stroke-width="0"/>
    </g>
   </g>
  </g>
 </g>
 <g partID="855287830">
  <line stroke="black" y1="11.2695" y2="11.2695" x1="59.8027" x2="53.7363" stroke-linecap="round" stroke-width="0.864"/>
 </g>
 <g partID="855287730">
  <line stroke="black" y1="11.9246" y2="11.429" x1="72.0052" x2="71.9647" stroke-linecap="round" stroke-width="0.864"/>
 </g>
 <g partID="855287720">
  <line stroke="black" y1="11.429" y2="11.2773" x1="71.9648" x2="60.9366" stroke-linecap="round" stroke-width="0.864"/>
 </g>
 <g partID="855289640">
  <line stroke="black" y1="17.5939" y2="11.2837" x1="74.7669" x2="74.7471" stroke-linecap="round" stroke-width="0.864"/>
 </g>
 <g partID="855289630">
  <line stroke="black" y1="11.2837" y2="4.63647" x1="74.7472" x2="74.7681" stroke-linecap="round" stroke-width="0.864"/>
 </g>
 <g partID="855289180">
  <line stroke="black" y1="33.4364" y2="40.0907" x1="103.568" x2="103.554" stroke-linecap="round" stroke-width="0.864"/>
 </g>
 <g partID="855289170">
  <line stroke="black" y1="40.0911" y2="40.4666" x1="103.554" x2="103.569" stroke-linecap="round" stroke-width="0.864"/>
 </g>
 <g partID="855272530">
  <line stroke="black" y1="44.9591" y2="44.8588" x1="30.6984" x2="40.361" stroke-linecap="round" stroke-width="0.864"/>
 </g>
 <g partID="855272460">
  <line stroke="black" y1="44.8591" y2="38.7543" x1="40.3608" x2="47.6104" stroke-linecap="round" stroke-width="0.864"/>
 </g>
 <g partID="855272390">
  <line stroke="black" y1="38.7543" y2="28.8341" x1="47.6104" x2="47.7058" stroke-linecap="round" stroke-width="0.864"/>
 </g>
 <g partID="855272320">
  <line stroke="black" y1="28.8344" y2="28.8344" x1="47.7056" x2="56.9582" stroke-linecap="round" stroke-width="0.864"/>
 </g>
 <g partID="855272250">
  <line stroke="black" y1="28.8344" y2="32.4365" x1="56.9584" x2="60.0036" stroke-linecap="round" stroke-width="0.864"/>
 </g>
 <g partID="855272180">
  <line stroke="black" y1="41.5828" y2="44.959" x1="30.8088" x2="30.6982" stroke-linecap="round" stroke-width="0.864"/>
 </g>
 <g partID="855272050">
  <line stroke="black" y1="47.0447" y2="47.0535" x1="24.0944" x2="43.6989" stroke-linecap="round" stroke-width="0.864"/>
 </g>
 <g partID="855271980">
  <line stroke="black" y1="47.0535" y2="41.1391" x1="43.6992" x2="50.1856" stroke-linecap="round" stroke-width="0.864"/>
 </g>
 <g partID="855271910">
  <line stroke="black" y1="41.1391" y2="41.0437" x1="50.1856" x2="53.0472" stroke-linecap="round" stroke-width="0.864"/>
 </g>
 <g partID="855271840">
  <line stroke="black" y1="41.0439" y2="33.4365" x1="53.0472" x2="53.1609" stroke-linecap="round" stroke-width="0.864"/>
 </g>
 <g partID="855271770">
  <line stroke="black" y1="41.5824" y2="47.0446" x1="24.3099" x2="24.0943" stroke-linecap="round" stroke-width="0.864"/>
 </g>
 <g partID="855270170">
  <line stroke="black" y1="16.2668" y2="16.2291" x1="69.0592" x2="38.851" stroke-linecap="round" stroke-width="1.152"/>
 </g>
 <g partID="855270140">
  <line stroke="black" y1="16.2291" y2="25.1026" x1="38.8512" x2="38.7745" stroke-linecap="round" stroke-width="1.152"/>
 </g>
 <g partID="855270110">
  <line stroke="black" y1="17.5939" y2="16.2668" x1="69.2549" x2="69.0592" stroke-linecap="round" stroke-width="1.152"/>
 </g>
 <g partID="855264940">
  <line stroke="black" y1="50.1575" y2="50.0566" x1="74.596" x2="4.86336" stroke-linecap="round" stroke-width="0.864"/>
 </g>
 <g partID="855264910">
  <line stroke="black" y1="50.0567" y2="42.16" x1="4.8632" x2="4.89468" stroke-linecap="round" stroke-width="0.864"/>
 </g>
 <g partID="855264880">
  <line stroke="black" y1="40.6364" y2="50.158" x1="74.7599" x2="74.5965" stroke-linecap="round" stroke-width="0.864"/>
 </g>
 <g partID="855196370">
  <line stroke="black" y1="45.9691" y2="41.7675" x1="103.569" x2="103.569" stroke-linecap="round" stroke-width="0.799999"/>
 </g>
 <g partID="855151260">
  <line stroke="black" y1="30.3458" y2="39.1658" x1="96.4592" x2="96.4802" stroke-linecap="round" stroke-width="0.799999"/>
 </g>
 <g partID="855293310">
  <line stroke="black" y1="40.0175" y2="40.4666" x1="92.9816" x2="92.9394" stroke-linecap="round" stroke-width="0.799999"/>
 </g>
 <g partID="855148740">
  <line stroke="black" y1="40.0669" y2="40.018" x1="82.5365" x2="92.9819" stroke-linecap="round" stroke-width="0.799999"/>
 </g>
 <g partID="855276040">
  <line stroke="black" y1="30.2375" y2="30.2375" x1="81.8384" x2="81.7301" stroke-linecap="round" stroke-width="0.799999"/>
 </g>
 <g partID="855276010">
  <line stroke="black" y1="30.2375" y2="30.3458" x1="81.7304" x2="96.4592" stroke-linecap="round" stroke-width="0.799999"/>
 </g>
 <g partID="855148710">
  <line stroke="black" y1="32.3033" y2="30.2376" x1="81.9414" x2="81.8387" stroke-linecap="round" stroke-width="0.799999"/>
 </g>
 <g partID="855151090">
  <line stroke="black" y1="47.2697" y2="47.2407" x1="92.9394" x2="92.9936" stroke-linecap="round" stroke-width="0.799999"/>
 </g>
 <g partID="855151080">
  <line stroke="black" y1="47.2407" y2="47.2679" x1="92.9936" x2="82.5363" stroke-linecap="round" stroke-width="0.799999"/>
 </g>
 <g partID="855139360">
  <line stroke="black" y1="47.2697" y2="47.2697" x1="96.174" x2="93.2481" stroke-linecap="round" stroke-width="0.799999"/>
 </g>
 <g partID="855139200">
  <line stroke="black" y1="47.2697" y2="47.2697" x1="103.261" x2="100.335" stroke-linecap="round" stroke-width="0.799999"/>
 </g>
</svg>
