<?xml version='1.0' encoding='UTF-8' standalone='no'?>
<!-- Created with Fritzing (https://fritzing.org/) -->
<svg xmlns="http://www.w3.org/2000/svg" x="0in" baseProfile="tiny" viewBox="0 0 111.516 53.8623" version="1.2" width="1.54884in" y="0in" height="0.748087in" xmlns:svg="http://www.w3.org/2000/svg" >
 <g transform="matrix(-1, 0, 0, 1, 111.516, 0)">
  <g partID="855297210">
   <g transform="matrix(1, 0, 0, 1, 110.064, 45.0012)">
    <g id="board">
     <g style="display:inline">
      <path stroke="black" d="m-19.6087,-45,-55.3896,0.00425197l0,31.8855l-2.74308,2.60564,-32.3181,-0.0178299,-0.00283465,19.3833l111.515,0l0,-28.0737l-21.0067,0l-4.32701,-4.38681l0,-17.0687z" fill-opacity="0.5" style="display:inline;fill-rule:evenodd;stroke-linecap:round;stroke-linejoin:round;stroke-miterlimit:4;stroke-dasharray:none" fill="none" id="boardoutline" stroke-width="0.5"/>
     </g>
    </g>
   </g>
  </g>
  <g partID="855271531">
   <g transform="translate(57.352,29.8522)">
    <g id="copper1" >
     <circle stroke="black" cy="3.01733" cx="3.01733" fill="black" id="connector0pin"  stroke-width="1.57039" r="0.992124"/>
    </g>
   </g>
  </g>
  <g partID="855271561">
   <g transform="translate(50.152,29.8522)">
    <g id="copper1" >
     <circle stroke="black" cy="3.01733" cx="3.01733" fill="black" id="connector0pin"  stroke-width="1.57039" r="0.992124"/>
    </g>
   </g>
  </g>
  <g partID="855136111">
   <g transform="translate(35.752,22.6522)">
    <g id="copper1" >
     <circle stroke="black" cy="3.01733" cx="3.01733" fill="black" id="connector0pin"  stroke-width="1.57039" r="0.992124"/>
    </g>
   </g>
  </g>
  <g partID="855140601">
   <g transform="translate(78.952,37.0519)">
    <g id="copper1" >
     <circle stroke="black" cy="3.01733" cx="3.01733" fill="black" id="connector0pin"  stroke-width="1.57039" r="0.992124"/>
    </g>
   </g>
  </g>
  <g partID="855140631">
   <g transform="translate(78.952,29.8522)">
    <g id="copper1" >
     <circle stroke="black" cy="3.01733" cx="3.01733" fill="black" id="connector0pin"  stroke-width="1.57039" r="0.992124"/>
    </g>
   </g>
  </g>
  <g partID="855304011">
   <g transform="translate(2.296,35.4775)">
    <g transform="matrix(1.52608, 0, 0, 1.52649, -0.427877, -0.174562)">
     <g id="copper1">
      <g gorn="0.2.0.0.0.0.0.0">
       <circle stroke="black" connectorname="5" gorn="0.2.0.0.0.0.0.0.0" cy="3.12265" cx="18.9967" fill="black" id="circle12" stroke-width="1.44" r="1.35213"/>
       <circle stroke="black" connectorname="4" gorn="0.2.0.0.0.0.0.0.1" cy="3.12265" cx="14.7447" fill="black" id="circle19" stroke-width="1.44" r="1.35213"/>
       <circle stroke="black" connectorname="3" gorn="0.2.0.0.0.0.0.0.2" cy="3.12265" cx="10.4927" fill="black" id="circle9" stroke-width="1.44" r="1.35213"/>
       <circle stroke="black" connectorname="2" gorn="0.2.0.0.0.0.0.0.3" cy="3.12265" cx="6.24076" fill="black" id="circle7" stroke-width="1.44" r="1.35213"/>
       <circle stroke="black" connectorname="1" gorn="0.2.0.0.0.0.0.0.4" cy="3.12265" cx="1.98879" fill="black" id="circle4" stroke-width="1.44" r="1.35213"/>
       <path stroke="black" d="m0.276661,1.41052l3.42425,0l0,3.42425l-3.42425,0zm0.72,1.71213a0.992126,0.992126,0,1,0,1.98425,0,0.992126,0.992126,0,1,0,-1.98425,0z" gorn="0.2.0.0.0.0.0.0.5" fill="black" id="path5" stroke-width="0.72"/>
       <g gorn="0.2.0.0.0.0.0.0.6" id="copper0">
        <circle stroke="black" connectorname="5" gorn="0.2.0.0.0.0.0.0.6.0" cy="3.12265" cx="18.9967" fill="black" id="connector4pad" stroke-width="1.44" r="1.35213"/>
        <circle stroke="black" connectorname="4" gorn="0.2.0.0.0.0.0.0.6.1" cy="3.12265" cx="14.7447" fill="black" id="connector3pad" stroke-width="1.44" r="1.35213"/>
        <circle stroke="black" connectorname="3" gorn="0.2.0.0.0.0.0.0.6.2" cy="3.12265" cx="10.4927" fill="black" id="connector2pad" stroke-width="1.44" r="1.35213"/>
        <circle stroke="black" connectorname="2" gorn="0.2.0.0.0.0.0.0.6.3" cy="3.12265" cx="6.24076" fill="black" id="connector1pad" stroke-width="1.44" r="1.35213"/>
        <path stroke="black" d="m0.276661,1.41052l3.42425,0l0,3.42425l-3.42425,0zm0.72,1.71213a0.992126,0.992126,0,1,0,1.98425,0,0.992126,0.992126,0,1,0,-1.98425,0z" gorn="0.2.0.0.0.0.0.0.6.4" fill="black" id="connector0pad" stroke-width="0.72"/>
        <circle stroke="black" connectorname="1" gorn="0.2.0.0.0.0.0.0.6.5" cy="3.12265" cx="1.98879" fill="black" id="circle11" stroke-width="1.44" r="1.35213"/>
       </g>
      </g>
     </g>
    </g>
   </g>
  </g>
  <g partID="855150261">
   <g transform="translate(78.952,44.2519)">
    <g id="copper1" >
     <circle stroke="black" cy="3.01733" cx="3.01733" fill="black" id="connector0pin"  stroke-width="1.57039" r="0.992124"/>
    </g>
   </g>
  </g>
  <g partID="855163121">
   <g transform="translate(71.752,37.0519)">
    <g id="copper1" >
     <circle stroke="black" cy="3.01733" cx="3.01733" fill="black" id="connector0pin"  stroke-width="1.57039" r="0.992124"/>
    </g>
   </g>
  </g>
  <g partID="855289461">
   <g transform="translate(71.752,1.05216)">
    <g id="copper1" >
     <circle stroke="black" cy="3.01733" cx="3.01733" fill="black" id="connector0pin"  stroke-width="1.57039" r="0.992124"/>
    </g>
   </g>
  </g>
  <g partID="855288661">
   <g transform="translate(100.552,29.8522)">
    <g id="copper1" >
     <circle stroke="black" cy="3.01733" cx="3.01733" fill="black" id="connector0pin"  stroke-width="1.57039" r="0.992124"/>
    </g>
   </g>
  </g>
  <g partID="855287181">
   <g transform="translate(57.352,8.25216)">
    <g id="copper1" >
     <circle stroke="black" cy="3.01733" cx="3.01733" fill="black" id="connector0pin"  stroke-width="1.57039" r="0.992124"/>
    </g>
   </g>
  </g>
  <g partID="855182091">
   <g transform="translate(50.152,8.25216)">
    <g id="copper1" >
     <circle stroke="black" cy="3.01733" cx="3.01733" fill="black" id="connector0pin"  stroke-width="1.57039" r="0.992124"/>
    </g>
   </g>
  </g>
  <g partID="854231630">
   <g transform="translate(90.9878,48.9705)">
    <g transform="matrix(0,-1,1,0,0,0)">
     <g gorn="0.1" id="copper1" >
      <rect x="0" stroke="black" connectorname="1" gorn="0.1.0" width="3.40157" y="1.24299" stroke-linecap="round" id="connector0pad" fill="black" height="1.41732"  stroke-width="0.72"/>
      <rect x="0" stroke="black" connectorname="2" gorn="0.1.1" width="3.40157" y="4.78629" stroke-linecap="round" id="connector1pad" fill="black" height="1.41732"  stroke-width="0.72"/>
      <rect x="0" stroke="black" connectorname="3" gorn="0.1.2" width="3.40157" y="8.32959" stroke-linecap="round" id="connector2pad" fill="black" height="1.41732"  stroke-width="0.72"/>
      <rect x="0" stroke="black" connectorname="4" gorn="0.1.3" width="3.40157" y="11.8729" stroke-linecap="round" id="connector3pad" fill="black" height="1.41732"  stroke-width="0.72"/>
      <rect x="6.80314" stroke="black" connectorname="8" gorn="0.1.4" width="3.40157" y="1.24299" stroke-linecap="round" id="connector7pin" fill="black" height="1.41732"  stroke-width="0.72"/>
      <rect x="6.80314" stroke="black" connectorname="7" gorn="0.1.5" width="3.40157" y="4.78629" stroke-linecap="round" id="connector6pin" fill="black" height="1.41732"  stroke-width="0.72"/>
      <rect x="6.80314" stroke="black" connectorname="6" gorn="0.1.6" width="3.40157" y="8.32959" stroke-linecap="round" id="connector5pin" fill="black" height="1.41732"  stroke-width="0.72"/>
      <rect x="6.80314" stroke="black" connectorname="5" gorn="0.1.7" width="3.40157" y="11.8729" stroke-linecap="round" id="connector4pin" fill="black" height="1.41732"  stroke-width="0.72"/>
      <g gorn="0.1.8" id="copper0" />
     </g>
    </g>
   </g>
  </g>
  <g partID="855236320">
   <g transform="translate(67.8248,11.5246)">
    <g transform="matrix(1,0,0,1,0,0)">
     <g id="copper1" >
      <!-- unten links -->
      <rect x="0.425197" stroke="black" fill-opacity="1" width="2.26772" y="5.66929" height="2.55118" id="connector0pin" fill="black"  stroke-width="0.72"/>
      <g x="1.55906" stroke="black" width="0" y="6.94488" height="0" id="connector0terminal" fill="black"  stroke-width="0.72"/>
      <!-- unten rechts -->
      <rect x="5.81102" stroke="black" fill-opacity="1" width="2.26772" y="5.66929" height="2.55118" id="connector1pin" fill="black"  stroke-width="0.72"/>
      <g x="6.94488" stroke="black" width="0" y="6.94488" height="0" id="connector1terminal" fill="black"  stroke-width="0.72"/>
      <!-- oben mitte -->
      <rect x="3.11811" stroke="black" fill-opacity="1" width="2.26772" y="0" height="2.55118" id="connector2pin" fill="black"  stroke-width="0.72"/>
      <g x="4.25197" stroke="black" width="0" y="1.27559" height="0" id="connector2terminal" fill="black"  stroke-width="0.72"/>
     </g>
    </g>
   </g>
  </g>
 </g>
</svg>
