<?xml version='1.0' encoding='UTF-8' standalone='no'?>
<!-- Created with Fritzing (https://fritzing.org/) -->
<svg xmlns="http://www.w3.org/2000/svg" x="0in" baseProfile="tiny" viewBox="0 0 111.516 53.8623" version="1.2" width="1.54884in" y="0in" height="0.748087in" xmlns:svg="http://www.w3.org/2000/svg" >
 <g partID="855297210">
  <g transform="matrix(1, 0, 0, 1, 110.064, 45.0012)">
   <g id="board">
    <g style="display:inline">
     <path stroke="black" d="m-19.6087,-45,-55.3896,0.00425197l0,31.8855l-2.74308,2.60564,-32.3181,-0.0178299,-0.00283465,19.3833l111.515,0l0,-28.0737l-21.0067,0l-4.32701,-4.38681l0,-17.0687z" fill-opacity="0.5" style="display:inline;fill-rule:evenodd;stroke-linecap:round;stroke-linejoin:round;stroke-miterlimit:4;stroke-dasharray:none" fill="none" id="boardoutline" stroke-width="0.5"/>
    </g>
   </g>
  </g>
 </g>
 <g partID="855271530">
  <g transform="translate(57.352,29.8522)">
   <g id="copper0" >
    <circle stroke="black" cy="3.01733" cx="3.01733" fill="none" id="connector0pin"  stroke-width="0.850392" r="0.992124"/>
   </g>
  </g>
 </g>
 <g partID="855271560">
  <g transform="translate(50.152,29.8522)">
   <g id="copper0" >
    <circle stroke="black" cy="3.01733" cx="3.01733" fill="none" id="connector0pin"  stroke-width="0.850392" r="0.992124"/>
   </g>
  </g>
 </g>
 <g partID="855284150">
  <g transform="translate(89.2832,30.7435)">
   <g flipped="1" id="copper0">
    <g transform="matrix(-1, 0, 0, 1, 9.35433, 0)">
     <g>
      <g>
       <g>
        <rect x="0.566929" stroke="none" fill-opacity="1" width="3.40157" y="0.566929" height="3.11811" id="connector0pad" fill="black" stroke-width="0"/>
        <rect x="5.38583" stroke="none" fill-opacity="1" width="3.40157" y="0.566929" height="3.11811" id="connector1pad" fill="black" stroke-width="0"/>
       </g>
      </g>
     </g>
    </g>
   </g>
  </g>
 </g>
 <g partID="855284180">
  <g transform="translate(89.2832,37.9439)">
   <g flipped="1" id="copper0">
    <g transform="matrix(-1, 0, 0, 1, 9.35433, 0)">
     <g>
      <g>
       <g>
        <rect x="0.566929" stroke="none" fill-opacity="1" width="3.40157" y="0.566929" height="3.11811" id="connector0pad" fill="black" stroke-width="0"/>
        <rect x="5.38583" stroke="none" fill-opacity="1" width="3.40157" y="0.566929" height="3.11811" id="connector1pad" fill="black" stroke-width="0"/>
       </g>
      </g>
     </g>
    </g>
   </g>
  </g>
 </g>
 <g partID="855136110">
  <g transform="translate(35.752,22.6522)">
   <g id="copper0" >
    <circle stroke="black" cy="3.01733" cx="3.01733" fill="none" id="connector0pin"  stroke-width="0.850392" r="0.992124"/>
   </g>
  </g>
 </g>
 <g partID="855140600">
  <g transform="translate(78.952,37.0519)">
   <g id="copper0" >
    <circle stroke="black" cy="3.01733" cx="3.01733" fill="none" id="connector0pin"  stroke-width="0.850392" r="0.992124"/>
   </g>
  </g>
 </g>
 <g partID="855140630">
  <g transform="translate(78.952,29.8522)">
   <g id="copper0" >
    <circle stroke="black" cy="3.01733" cx="3.01733" fill="none" id="connector0pin"  stroke-width="0.850392" r="0.992124"/>
   </g>
  </g>
 </g>
 <g partID="855297070">
  <g transform="translate(80.8112,-0.10136)">
   <g transform="matrix(4.29042, 0, 0, 1.88015, -8.01687, -2.63744)">
    <g id="copper0">
     <g gorn="0.4.0.0.0.0.0.0.0.0.0.0.0.0.0.0.0.0">
      <g gorn="0.4.0.0.0.0.0.0.0.0.0.0.0.0.0.0.0.0.0" id="g31">
       <g transform="matrix(2.42789, 0, 0, 5.54033, 1.86855, 1.40278)">
        <g>
         <g>
          <g>
           <g>
            <g>
             <g>
              <g>
               <g>
                <g>
                 <g>
                  <g>
                   <g>
                    <g>
                     <path d="M0.140062,0.140062L0.140062,0.684282L0.684422,0.140062Z" gorn="0.4.0.0.0.0.0.0.0.0.0.0.0.0.0.0.0.0.0.0.0.0.0.0.0.0.0.0.0.0.0.0.0" fill-opacity="1" style="fill-rule:evenodd;" id="connector0pin" fill="black"/>
                    </g>
                   </g>
                  </g>
                 </g>
                </g>
               </g>
              </g>
             </g>
            </g>
           </g>
          </g>
         </g>
        </g>
       </g>
       <g transform="matrix(2.42789, 0, 0, 5.54033, 1.86855, 1.40278)">
        <g>
         <g>
          <g>
           <g>
            <g>
             <g>
              <g>
               <g>
                <g>
                 <g>
                  <g>
                   <g>
                    <g>
                     <path d="m0.141468,1.93429l0,0.54436l0.54436,0z" gorn="0.4.0.0.0.0.0.0.0.0.0.0.0.0.0.0.0.0.0.1.0.0.0.0.0.0.0.0.0.0.0.0.0" fill-opacity="1" style="fill-rule:evenodd" id="connector1pin" fill="black"/>
                    </g>
                   </g>
                  </g>
                 </g>
                </g>
               </g>
              </g>
             </g>
            </g>
           </g>
          </g>
         </g>
        </g>
       </g>
      </g>
     </g>
    </g>
   </g>
  </g>
 </g>
 <g partID="855304010">
  <g transform="translate(2.296,35.4775)">
   <g transform="matrix(1.52608, 0, 0, 1.52649, -0.427877, -0.174562)">
    <g id="copper0">
     <g gorn="0.2.0.0.0.0.0.0.6">
      <circle stroke="black" connectorname="5" gorn="0.2.0.0.0.0.0.0.6.0" cy="3.12265" cx="18.9967" fill="none" id="connector4pad" stroke-width="0.72" r="1.35213"/>
      <circle stroke="black" connectorname="4" gorn="0.2.0.0.0.0.0.0.6.1" cy="3.12265" cx="14.7447" fill="none" id="connector3pad" stroke-width="0.72" r="1.35213"/>
      <circle stroke="black" connectorname="3" gorn="0.2.0.0.0.0.0.0.6.2" cy="3.12265" cx="10.4927" fill="none" id="connector2pad" stroke-width="0.72" r="1.35213"/>
      <circle stroke="black" connectorname="2" gorn="0.2.0.0.0.0.0.0.6.3" cy="3.12265" cx="6.24076" fill="none" id="connector1pad" stroke-width="0.72" r="1.35213"/>
      <path stroke="none" d="m0.276661,1.41052l3.42425,0l0,3.42425l-3.42425,0zm0.72,1.71213a0.992126,0.992126,0,1,0,1.98425,0,0.992126,0.992126,0,1,0,-1.98425,0z" gorn="0.2.0.0.0.0.0.0.6.4" fill="black" id="connector0pad" stroke-width="0"/>
      <circle stroke="black" connectorname="1" gorn="0.2.0.0.0.0.0.0.6.5" cy="3.12265" cx="1.98879" fill="none" id="circle11" stroke-width="0.72" r="1.35213"/>
     </g>
    </g>
   </g>
  </g>
 </g>
 <g partID="854194110">
  <g transform="translate(69.3696,19.6386)">
   <g transform="matrix(2.22045e-16,1,-1,2.22045e-16,0,0)">
    <g flipped="1" id="copper0">
     <g transform="matrix(-1, 0, 0, 1, 27.936, 0)">
      <g>
       <g>
        <g>
         <rect x="0" stroke="none" connectorname="1" width="3.6" y="5.23899" stroke-linecap="round" id="connector0pad" height="1.584" fill="black" stroke-width="0"/>
         <rect x="0" stroke="none" connectorname="2" width="3.6" y="7.50671" stroke-linecap="round" id="connector1pad" height="1.584" fill="black" stroke-width="0"/>
         <rect x="0" stroke="none" connectorname="3" width="3.6" y="9.77443" stroke-linecap="round" id="connector2pad" height="1.584" fill="black" stroke-width="0"/>
         <rect x="0" stroke="none" connectorname="4" width="3.6" y="12.0421" stroke-linecap="round" id="connector3pad" height="1.584" fill="black" stroke-width="0"/>
         <rect x="0" stroke="none" connectorname="5" width="3.6" y="14.3099" stroke-linecap="round" id="connector4pad" height="1.584" fill="black" stroke-width="0"/>
         <rect x="0" stroke="none" connectorname="6" width="3.6" y="16.5776" stroke-linecap="round" id="connector5pad" height="1.584" fill="black" stroke-width="0"/>
         <rect x="0" stroke="none" connectorname="7" width="3.6" y="18.8453" stroke-linecap="round" id="connector6pad" height="1.584" fill="black" stroke-width="0"/>
         <rect x="0" stroke="none" connectorname="8" width="3.6" y="21.113" stroke-linecap="round" id="connector7pad" height="1.584" fill="black" stroke-width="0"/>
         <rect x="5.23899" stroke="none" connectorname="9" width="1.584" y="24.336" stroke-linecap="round" id="connector8pad" height="3.6" fill="black" stroke-width="0"/>
         <rect x="7.50671" stroke="none" connectorname="10" width="1.584" y="24.336" stroke-linecap="round" id="connector9pad" height="3.6" fill="black" stroke-width="0"/>
         <rect x="9.77443" stroke="none" connectorname="11" width="1.584" y="24.336" stroke-linecap="round" id="connector10pad" height="3.6" fill="black" stroke-width="0"/>
         <rect x="12.0421" stroke="none" connectorname="12" width="1.584" y="24.336" stroke-linecap="round" id="connector11pad" height="3.6" fill="black" stroke-width="0"/>
         <rect x="14.3099" stroke="none" connectorname="13" width="1.584" y="24.336" stroke-linecap="round" id="connector12pad" height="3.6" fill="black" stroke-width="0"/>
         <rect x="16.5776" stroke="none" connectorname="14" width="1.584" y="24.336" stroke-linecap="round" id="connector13pad" height="3.6" fill="black" stroke-width="0"/>
         <rect x="18.8453" stroke="none" connectorname="15" width="1.584" y="24.336" stroke-linecap="round" id="connector14pad" height="3.6" fill="black" stroke-width="0"/>
         <rect x="21.113" stroke="none" connectorname="16" width="1.584" y="24.336" stroke-linecap="round" id="connector15pad" height="3.6" fill="black" stroke-width="0"/>
         <rect x="24.336" stroke="none" connectorname="17" width="3.6" y="21.113" stroke-linecap="round" id="connector16pad" height="1.584" fill="black" stroke-width="0"/>
         <rect x="24.336" stroke="none" connectorname="18" width="3.6" y="18.8453" stroke-linecap="round" id="connector17pad" height="1.584" fill="black" stroke-width="0"/>
         <rect x="24.336" stroke="none" connectorname="19" width="3.6" y="16.5776" stroke-linecap="round" id="connector18pad" height="1.584" fill="black" stroke-width="0"/>
         <rect x="24.336" stroke="none" connectorname="20" width="3.6" y="14.3099" stroke-linecap="round" id="connector19pad" height="1.584" fill="black" stroke-width="0"/>
         <rect x="24.336" stroke="none" connectorname="21" width="3.6" y="12.0421" stroke-linecap="round" id="connector20pad" height="1.584" fill="black" stroke-width="0"/>
         <rect x="24.336" stroke="none" connectorname="22" width="3.6" y="9.77443" stroke-linecap="round" id="connector21pad" height="1.584" fill="black" stroke-width="0"/>
         <rect x="24.336" stroke="none" connectorname="23" width="3.6" y="7.50671" stroke-linecap="round" id="connector22pad" height="1.584" fill="black" stroke-width="0"/>
         <rect x="24.336" stroke="none" connectorname="24" width="3.6" y="5.23899" stroke-linecap="round" id="connector23pad" height="1.584" fill="black" stroke-width="0"/>
         <rect x="21.113" stroke="none" connectorname="25" width="1.584" y="0" stroke-linecap="round" id="connector24pad" height="3.6" fill="black" stroke-width="0"/>
         <rect x="18.8453" stroke="none" connectorname="26" width="1.584" y="0" stroke-linecap="round" id="connector25pad" height="3.6" fill="black" stroke-width="0"/>
         <rect x="16.5776" stroke="none" connectorname="27" width="1.584" y="0" stroke-linecap="round" id="connector26pad" height="3.6" fill="black" stroke-width="0"/>
         <rect x="14.3099" stroke="none" connectorname="28" width="1.584" y="0" stroke-linecap="round" id="connector27pad" height="3.6" fill="black" stroke-width="0"/>
         <rect x="12.0421" stroke="none" connectorname="29" width="1.584" y="0" stroke-linecap="round" id="connector28pad" height="3.6" fill="black" stroke-width="0"/>
         <rect x="9.77443" stroke="none" connectorname="30" width="1.584" y="0" stroke-linecap="round" id="connector29pad" height="3.6" fill="black" stroke-width="0"/>
         <rect x="7.50671" stroke="none" connectorname="31" width="1.584" y="0" stroke-linecap="round" id="connector30pad" height="3.6" fill="black" stroke-width="0"/>
         <rect x="5.23899" stroke="none" connectorname="32" width="1.584" y="0" stroke-linecap="round" id="connector31pad" height="3.6" fill="black" stroke-width="0"/>
         <g id="copper0"/>
        </g>
        <g/>
       </g>
      </g>
     </g>
    </g>
   </g>
  </g>
 </g>
 <g partID="855150260">
  <g transform="translate(78.952,44.2519)">
   <g id="copper0" >
    <circle stroke="black" cy="3.01733" cx="3.01733" fill="none" id="connector0pin"  stroke-width="0.850392" r="0.992124"/>
   </g>
  </g>
 </g>
 <g partID="855163120">
  <g transform="translate(71.752,37.0519)">
   <g id="copper0" >
    <circle stroke="black" cy="3.01733" cx="3.01733" fill="none" id="connector0pin"  stroke-width="0.850392" r="0.992124"/>
   </g>
  </g>
 </g>
 <g partID="855289460">
  <g transform="translate(71.752,1.05216)">
   <g id="copper0" >
    <circle stroke="black" cy="3.01733" cx="3.01733" fill="none" id="connector0pin"  stroke-width="0.850392" r="0.992124"/>
   </g>
  </g>
 </g>
 <g partID="855288660">
  <g transform="translate(100.552,29.8522)">
   <g id="copper0" >
    <circle stroke="black" cy="3.01733" cx="3.01733" fill="none" id="connector0pin"  stroke-width="0.850392" r="0.992124"/>
   </g>
  </g>
 </g>
 <g partID="855287180">
  <g transform="translate(57.352,8.25216)">
   <g id="copper0" >
    <circle stroke="black" cy="3.01733" cx="3.01733" fill="none" id="connector0pin"  stroke-width="0.850392" r="0.992124"/>
   </g>
  </g>
 </g>
 <g partID="855182090">
  <g transform="translate(50.152,8.25216)">
   <g id="copper0" >
    <circle stroke="black" cy="3.01733" cx="3.01733" fill="none" id="connector0pin"  stroke-width="0.850392" r="0.992124"/>
   </g>
  </g>
 </g>
 <g partID="855307770">
  <g transform="translate(109.81,31.5985)">
   <g transform="matrix(0,1,-1,0,0,0)">
    <g flipped="1" id="copper0">
     <g transform="matrix(-1, 0, 0, 1, 12.4724, 0)">
      <g>
       <g>
        <g>
         <rect x="0" stroke="none" connectorname="1" width="3.40157" y="1.13839" stroke-linecap="round" id="connector0pad" height="5.66928" fill="black" stroke-width="0"/>
         <rect x="9.07085" stroke="none" connectorname="2" width="3.40157" y="1.13839" stroke-linecap="round" id="connector1pad" height="5.66928" fill="black" stroke-width="0"/>
         <g id="copper0"/>
        </g>
        <g/>
       </g>
      </g>
     </g>
    </g>
   </g>
  </g>
 </g>
 <g partID="855295180">
  <line stroke="black" y1="4.03016" y2="4.06638" x1="81.9632" x2="75.3361" stroke-linecap="round" stroke-width="0.864"/>
 </g>
 <g partID="855295190">
  <line stroke="black" y1="4.04973" y2="4.03016" x1="82.5278" x2="81.9632" stroke-linecap="round" stroke-width="0.864"/>
 </g>
 <g partID="855291590">
  <line stroke="black" y1="47.2742" y2="41.229" x1="96.3273" x2="96.363" stroke-linecap="round" stroke-width="0.864"/>
 </g>
 <g partID="855291600">
  <line stroke="black" y1="34.0286" y2="47.2742" x1="96.3662" x2="96.3273" stroke-linecap="round" stroke-width="0.864"/>
 </g>
 <g partID="855291740">
  <line stroke="black" y1="47.2743" y2="47.2696" x1="96.3272" x2="82.536" stroke-linecap="round" stroke-width="0.864"/>
 </g>
 <g partID="855291690">
  <line stroke="black" y1="41.229" y2="47.2743" x1="96.363" x2="96.3272" stroke-linecap="round" stroke-width="0.864"/>
 </g>
 <g partID="855292930">
  <line stroke="black" y1="27.2113" y2="25.4608" x1="84.9386" x2="84.9904" stroke-linecap="round" stroke-width="0.864"/>
 </g>
 <g partID="855293000">
  <line stroke="black" y1="22.8877" y2="22.9151" x1="79.4711" x2="82.541" stroke-linecap="round" stroke-width="0.864"/>
 </g>
 <g partID="855287280">
  <line stroke="black" y1="11.429" y2="11.2749" x1="76.9872" x2="60.9363" stroke-linecap="round" stroke-width="0.864"/>
 </g>
 <g partID="855288790">
  <line stroke="black" y1="27.3563" y2="27.2113" x1="103.433" x2="84.9386" stroke-linecap="round" stroke-width="0.864"/>
 </g>
 <g partID="855288700">
  <line stroke="black" y1="32.3027" y2="27.3563" x1="103.555" x2="103.433" stroke-linecap="round" stroke-width="0.864"/>
 </g>
 <g partID="855289250">
  <line stroke="black" y1="7.33752" y2="22.8877" x1="79.4824" x2="79.4711" stroke-linecap="round" stroke-width="0.864"/>
 </g>
 <g partID="855251000">
  <line stroke="black" y1="50.0991" y2="47.1746" x1="52.0152" x2="52.0049" stroke-linecap="round" stroke-width="0.864"/>
 </g>
 <g partID="855250900">
  <line stroke="black" y1="50.0527" y2="50.0991" x1="11.4344" x2="52.0152" stroke-linecap="round" stroke-width="0.864"/>
 </g>
 <g partID="855250910">
  <line stroke="black" y1="41.5836" y2="50.0526" x1="11.3984" x2="11.4344" stroke-linecap="round" stroke-width="0.864"/>
 </g>
 <g partID="855269020">
  <line stroke="black" y1="47.1607" y2="41.5833" x1="18.0704" x2="17.9212" stroke-linecap="round" stroke-width="0.864"/>
 </g>
 <g partID="855268790">
  <line stroke="black" y1="47.0639" y2="47.1606" x1="41.172" x2="18.0706" stroke-linecap="round" stroke-width="0.864"/>
 </g>
 <g partID="855253830">
  <line stroke="black" y1="40.9823" y2="47.0635" x1="47.88" x2="41.1722" stroke-linecap="round" stroke-width="0.864"/>
 </g>
 <g partID="855253270">
  <line stroke="black" y1="41.0239" y2="40.9827" x1="54.2984" x2="47.8798" stroke-linecap="round" stroke-width="0.864"/>
 </g>
 <g partID="855259240">
  <path stroke="black" d="M56.4248,7.01984C56.4248,7.01984, 56.5739,25.8878 56.5355,21.4386" stroke-linecap="round" fill="none" stroke-width="0.864"/>
 </g>
 <g partID="855259810">
  <line stroke="black" y1="11.283" y2="11.2716" x1="49.4776" x2="52.6027" stroke-linecap="round" stroke-width="1.152"/>
 </g>
 <g partID="855259850">
  <line stroke="black" y1="11.2882" y2="11.283" x1="49.6128" x2="49.4773" stroke-linecap="round" stroke-width="1.152"/>
 </g>
 <g partID="855259820">
  <line stroke="black" y1="20.0386" y2="11.2882" x1="49.7155" x2="49.6125" stroke-linecap="round" stroke-width="1.152"/>
 </g>
 <g partID="855269750">
  <line stroke="black" y1="32.2952" y2="26.2364" x1="38.7352" x2="38.7666" stroke-linecap="round" stroke-width="0.864"/>
 </g>
 <g partID="855269760">
  <line stroke="black" y1="32.4175" y2="32.2953" x1="41.8336" x2="38.735" stroke-linecap="round" stroke-width="0.864"/>
 </g>
 <g partID="855271660">
  <line stroke="black" y1="36.9423" y2="36.9822" x1="64.0168" x2="66.1696" stroke-linecap="round" stroke-width="0.864"/>
 </g>
 <g partID="855271630">
  <line stroke="black" y1="33.2918" y2="36.9424" x1="60.7478" x2="64.0171" stroke-linecap="round" stroke-width="0.864"/>
 </g>
 <g partID="855271740">
  <line stroke="black" y1="39.2319" y2="39.2663" x1="61.1552" x2="66.1696" stroke-linecap="round" stroke-width="0.864"/>
 </g>
 <g partID="855271710">
  <line stroke="black" y1="33.2228" y2="39.232" x1="53.613" x2="61.1555" stroke-linecap="round" stroke-width="0.864"/>
 </g>
 <g partID="855284460">
  <line stroke="black" y1="40.0943" y2="32.8919" x1="96.3496" x2="96.3494" stroke-linecap="round" stroke-width="0.864"/>
 </g>
 <g partID="855284350">
  <line stroke="black" y1="32.8921" y2="28.7343" x1="96.3488" x2="96.3973" stroke-linecap="round" stroke-width="0.864"/>
 </g>
 <g partID="855278820">
  <line stroke="black" y1="47.1759" y2="40.0945" x1="96.4168" x2="96.3493" stroke-linecap="round" stroke-width="0.864"/>
 </g>
 <g partID="855278710">
  <line stroke="black" y1="28.5893" y2="11.429" x1="76.8152" x2="76.987" stroke-linecap="round" stroke-width="0.864"/>
 </g>
 <g partID="855278600">
  <line stroke="black" y1="28.7343" y2="28.5893" x1="96.3976" x2="76.8155" stroke-linecap="round" stroke-width="0.864"/>
 </g>
 <g partID="855276810">
  <line stroke="black" y1="47.2659" y2="47.1762" x1="82.5365" x2="96.417" stroke-linecap="round" stroke-width="0.864"/>
 </g>
 <g partID="855278150">
  <line stroke="black" y1="7.01984" y2="7.33749" x1="56.4248" x2="79.4823" stroke-linecap="round" stroke-width="0.864"/>
 </g>
 <g partID="855284570">
  <line stroke="black" y1="40.0696" y2="40.0701" x1="82.5365" x2="90.2501" stroke-linecap="round" stroke-width="0.864"/>
 </g>
 <g partID="855284640">
  <line stroke="black" y1="32.8695" y2="32.8695" x1="82.5365" x2="90.2501" stroke-linecap="round" stroke-width="0.864"/>
 </g>
 <g partID="855188240">
  <line stroke="black" y1="30.205" y2="30.205" x1="82.0384" x2="68.9696" stroke-linecap="round" stroke-width="0.799999"/>
 </g>
 <g partID="855155670">
  <line stroke="black" y1="31.8516" y2="30.205" x1="82.0384" x2="82.0384" stroke-linecap="round" stroke-width="0.799999"/>
 </g>
 <g partID="855152390">
  <line stroke="black" y1="32.3039" y2="31.8516" x1="82.008" x2="82.0387" stroke-linecap="round" stroke-width="0.799999"/>
 </g>
 <g partID="855152450">
  <line stroke="black" y1="32.6671" y2="32.4987" x1="78.0312" x2="68.9696" stroke-linecap="round" stroke-width="0.799999"/>
 </g>
 <g partID="855260560">
  <line stroke="black" y1="40.0447" y2="32.6669" x1="77.9352" x2="78.0316" stroke-linecap="round" stroke-width="0.799999"/>
 </g>
 <g partID="855152420">
  <line stroke="black" y1="40.0661" y2="40.045" x1="81.4027" x2="77.9355" stroke-linecap="round" stroke-width="0.799999"/>
 </g>
 <g partID="855163380">
  <line stroke="black" y1="34.7471" y2="34.7417" x1="74.684" x2="68.9696" stroke-linecap="round" stroke-width="0.799999"/>
 </g>
 <g partID="855163310">
  <line stroke="black" y1="34.9223" y2="34.7472" x1="74.684" x2="74.684" stroke-linecap="round" stroke-width="0.799999"/>
 </g>
 <g partID="855163260">
  <line stroke="black" y1="39.5027" y2="34.9226" x1="74.7602" x2="74.6843" stroke-linecap="round" stroke-width="0.799999"/>
 </g>
 <g partID="855181030">
  <line stroke="black" y1="40.9823" y2="25.7566" x1="47.692" x2="47.692" stroke-linecap="round" stroke-width="0.864"/>
 </g>
 <g partID="855173060">
  <line stroke="black" y1="40.9951" y2="40.9826" x1="54.2424" x2="47.6918" stroke-linecap="round" stroke-width="0.864"/>
 </g>
 <g partID="855171380">
  <line stroke="black" y1="25.7569" y2="25.7569" x1="47.692" x2="56.5267" stroke-linecap="round" stroke-width="0.864"/>
 </g>
 <g partID="855171270">
  <line stroke="black" y1="25.7569" y2="22.8386" x1="56.5264" x2="56.5323" stroke-linecap="round" stroke-width="0.864"/>
 </g>
 <g partID="855171200">
  <line stroke="black" y1="44.3746" y2="40.9949" x1="54.2606" x2="54.2427" stroke-linecap="round" stroke-width="0.864"/>
 </g>
 <g partID="855270700">
  <line stroke="black" y1="41.1399" y2="44.3746" x1="58.8288" x2="58.811" stroke-linecap="round" stroke-width="0.864"/>
 </g>
 <g partID="855173410">
  <line stroke="black" y1="41.0239" y2="41.1401" x1="54.2984" x2="58.8287" stroke-linecap="round" stroke-width="0.864"/>
 </g>
 <g partID="855180090">
  <line stroke="black" y1="50.3815" y2="50.0995" x1="81.9464" x2="52.0149" stroke-linecap="round" stroke-width="0.864"/>
 </g>
 <g partID="855180020">
  <line stroke="black" y1="50.0991" y2="47.1746" x1="52.0152" x2="52.0052" stroke-linecap="round" stroke-width="0.864"/>
 </g>
 <g partID="855179950">
  <line stroke="black" y1="47.8364" y2="50.3818" x1="81.9654" x2="81.9467" stroke-linecap="round" stroke-width="0.864"/>
 </g>
 <g partID="855180230">
  <line stroke="black" y1="50.0991" y2="47.1746" x1="56.5264" x2="56.5324" stroke-linecap="round" stroke-width="0.864"/>
 </g>
 <g partID="855180160">
  <line stroke="black" y1="50.0991" y2="50.0991" x1="52.0152" x2="56.5265" stroke-linecap="round" stroke-width="0.864"/>
 </g>
 <g partID="855307050">
  <line stroke="black" y1="42.4393" y2="42.388" x1="96.4098" x2="103.403" stroke-linecap="round" stroke-width="0.864"/>
 </g>
 <g partID="855306960">
  <line stroke="black" y1="41.229" y2="42.4393" x1="96.3894" x2="96.4098" stroke-linecap="round" stroke-width="0.864"/>
 </g>
 <g partID="855307220">
  <line stroke="black" y1="33.2992" y2="32.975" x1="105.837" x2="104.126" stroke-linecap="round" stroke-width="0.864"/>
 </g>
</svg>
