<?xml version='1.0' encoding='UTF-8' standalone='no'?>
<!-- Created with Fritzing (https://fritzing.org/) -->
<svg xmlns="http://www.w3.org/2000/svg" height="0.748087in" baseProfile="tiny" viewBox="0 0 111.516 53.8623"  xmlns:svg="http://www.w3.org/2000/svg" version="1.2" x="0in" y="0in" width="1.54884in">
 <g partID="855297210">
  <g transform="matrix(1, 0, 0, 1, 110.064, 45.0012)">
   <g id="board">
    <g style="display:inline">
     <path stroke="black" id="boardoutline" d="m-19.6087,-45,-55.3896,0.00425197l0,31.8855l-2.74308,2.60564,-32.3181,-0.0178299,-0.00283465,19.3833l111.515,0l0,-28.0737l-21.0067,0l-4.32701,-4.38681l0,-17.0687z" style="display:inline;fill-rule:evenodd;stroke-linecap:round;stroke-linejoin:round;stroke-miterlimit:4;stroke-dasharray:none" stroke-width="0.5" fill="none" fill-opacity="0.5"/>
    </g>
   </g>
  </g>
 </g>
 <g partID="855271531">
  <g transform="translate(57.352,29.8522)">
   <g id="copper1" >
    <g cx="3.01733" cy="3.01733" r="0.992124" stroke="black" id="0"  stroke-width="0.850392" fill="none"/>
   </g>
  </g>
 </g>
 <g partID="855271561">
  <g transform="translate(50.152,29.8522)">
   <g id="copper1" >
    <g cx="3.01733" cy="3.01733" r="0.992124" stroke="black" id="1"  stroke-width="0.850392" fill="none"/>
   </g>
  </g>
 </g>
 <g partID="855136111">
  <g transform="translate(35.752,22.6522)">
   <g id="copper1" >
    <g cx="3.01733" cy="3.01733" r="0.992124" stroke="black" id="2"  stroke-width="0.850392" fill="none"/>
   </g>
  </g>
 </g>
 <g partID="855140601">
  <g transform="translate(78.952,37.0519)">
   <g id="copper1" >
    <g cx="3.01733" cy="3.01733" r="0.992124" stroke="black" id="3"  stroke-width="0.850392" fill="none"/>
   </g>
  </g>
 </g>
 <g partID="855140631">
  <g transform="translate(78.952,29.8522)">
   <g id="copper1" >
    <g cx="3.01733" cy="3.01733" r="0.992124" stroke="black" id="4"  stroke-width="0.850392" fill="none"/>
   </g>
  </g>
 </g>
 <g partID="855304011">
  <g transform="translate(2.296,35.4775)">
   <g transform="matrix(1.52608, 0, 0, 1.52649, -0.427877, -0.174562)">
    <g id="copper1">
     <g gorn="0.2.0.0.0.0.0.0">
      <g cy="3.12265" cx="18.9967" r="1.35213" stroke="black" id="5" connectorname="5" stroke-width="0.72" fill="none" gorn="0.2.0.0.0.0.0.0.0"/>
      <g cy="3.12265" cx="14.7447" r="1.35213" stroke="black" id="6" connectorname="4" stroke-width="0.72" fill="none" gorn="0.2.0.0.0.0.0.0.1"/>
      <g cy="3.12265" cx="10.4927" r="1.35213" stroke="black" id="7" connectorname="3" stroke-width="0.72" fill="none" gorn="0.2.0.0.0.0.0.0.2"/>
      <g cy="3.12265" cx="6.24076" r="1.35213" stroke="black" id="8" connectorname="2" stroke-width="0.72" fill="none" gorn="0.2.0.0.0.0.0.0.3"/>
      <g cy="3.12265" cx="1.98879" r="1.35213" stroke="black" id="9" connectorname="1" stroke-width="0.72" fill="none" gorn="0.2.0.0.0.0.0.0.4"/>
      <g stroke="none" id="10" d="m0.276661,1.41052l3.42425,0l0,3.42425l-3.42425,0zm0.72,1.71213a0.992126,0.992126,0,1,0,1.98425,0,0.992126,0.992126,0,1,0,-1.98425,0z" stroke-width="0" fill="black" gorn="0.2.0.0.0.0.0.0.5"/>
      <g id="copper0" gorn="0.2.0.0.0.0.0.0.6">
       <g cy="3.12265" cx="18.9967" r="1.35213" stroke="black" id="11" connectorname="5" stroke-width="0.72" fill="none" gorn="0.2.0.0.0.0.0.0.6.0"/>
       <g cy="3.12265" cx="14.7447" r="1.35213" stroke="black" id="12" connectorname="4" stroke-width="0.72" fill="none" gorn="0.2.0.0.0.0.0.0.6.1"/>
       <g cy="3.12265" cx="10.4927" r="1.35213" stroke="black" id="13" connectorname="3" stroke-width="0.72" fill="none" gorn="0.2.0.0.0.0.0.0.6.2"/>
       <g cy="3.12265" cx="6.24076" r="1.35213" stroke="black" id="14" connectorname="2" stroke-width="0.72" fill="none" gorn="0.2.0.0.0.0.0.0.6.3"/>
       <g stroke="none" id="15" d="m0.276661,1.41052l3.42425,0l0,3.42425l-3.42425,0zm0.72,1.71213a0.992126,0.992126,0,1,0,1.98425,0,0.992126,0.992126,0,1,0,-1.98425,0z" stroke-width="0" fill="black" gorn="0.2.0.0.0.0.0.0.6.4"/>
       <g cy="3.12265" cx="1.98879" r="1.35213" stroke="black" id="16" connectorname="1" stroke-width="0.72" fill="none" gorn="0.2.0.0.0.0.0.0.6.5"/>
      </g>
     </g>
    </g>
   </g>
  </g>
 </g>
 <g partID="855150261">
  <g transform="translate(78.952,44.2519)">
   <g id="copper1" >
    <g cx="3.01733" cy="3.01733" r="0.992124" stroke="black" id="17"  stroke-width="0.850392" fill="none"/>
   </g>
  </g>
 </g>
 <g partID="855163121">
  <g transform="translate(71.752,37.0519)">
   <g id="copper1" >
    <g cx="3.01733" cy="3.01733" r="0.992124" stroke="black" id="18"  stroke-width="0.850392" fill="none"/>
   </g>
  </g>
 </g>
 <g partID="855289461">
  <g transform="translate(71.752,1.05216)">
   <g id="copper1" >
    <g cx="3.01733" cy="3.01733" r="0.992124" stroke="black" id="19"  stroke-width="0.850392" fill="none"/>
   </g>
  </g>
 </g>
 <g partID="855288661">
  <g transform="translate(100.552,29.8522)">
   <g id="copper1" >
    <g cx="3.01733" cy="3.01733" r="0.992124" stroke="black" id="20"  stroke-width="0.850392" fill="none"/>
   </g>
  </g>
 </g>
 <g partID="855287181">
  <g transform="translate(57.352,8.25216)">
   <g id="copper1" >
    <g cx="3.01733" cy="3.01733" r="0.992124" stroke="black" id="21"  stroke-width="0.850392" fill="none"/>
   </g>
  </g>
 </g>
 <g partID="855182091">
  <g transform="translate(50.152,8.25216)">
   <g id="copper1" >
    <g cx="3.01733" cy="3.01733" r="0.992124" stroke="black" id="22"  stroke-width="0.850392" fill="none"/>
   </g>
  </g>
 </g>
 <g partID="854231630">
  <g transform="translate(90.9878,48.9705)">
   <g transform="matrix(0,-1,1,0,0,0)">
    <g id="copper1"  gorn="0.1">
     <rect stroke="none" height="1.41732" id="23"  connectorname="1" stroke-width="0" x="0" fill="black" gorn="0.1.0" stroke-linecap="round" width="3.40157" y="1.24299"/>
     <rect stroke="none" height="1.41732" id="24"  connectorname="2" stroke-width="0" x="0" fill="black" gorn="0.1.1" stroke-linecap="round" width="3.40157" y="4.78629"/>
     <rect stroke="none" height="1.41732" id="25"  connectorname="3" stroke-width="0" x="0" fill="black" gorn="0.1.2" stroke-linecap="round" width="3.40157" y="8.32959"/>
     <rect stroke="none" height="1.41732" id="26"  connectorname="4" stroke-width="0" x="0" fill="black" gorn="0.1.3" stroke-linecap="round" width="3.40157" y="11.8729"/>
     <rect stroke="none" height="1.41732" id="27"  connectorname="8" stroke-width="0" x="6.80314" fill="black" gorn="0.1.4" stroke-linecap="round" width="3.40157" y="1.24299"/>
     <rect stroke="none" height="1.41732" id="28"  connectorname="7" stroke-width="0" x="6.80314" fill="black" gorn="0.1.5" stroke-linecap="round" width="3.40157" y="4.78629"/>
     <rect stroke="none" height="1.41732" id="29"  connectorname="6" stroke-width="0" x="6.80314" fill="black" gorn="0.1.6" stroke-linecap="round" width="3.40157" y="8.32959"/>
     <rect stroke="none" height="1.41732" id="30"  connectorname="5" stroke-width="0" x="6.80314" fill="black" gorn="0.1.7" stroke-linecap="round" width="3.40157" y="11.8729"/>
     <g id="31"  gorn="0.1.8"/>
    </g>
   </g>
  </g>
 </g>
 <g partID="855236320">
  <g transform="translate(67.8248,11.5246)">
   <g transform="matrix(1,0,0,1,0,0)">
    <g id="copper1" >
     <!-- unten links -->
     <rect stroke="none" height="2.55118" id="32"  x="0.425197" fill="black" width="2.26772" y="5.66929" fill-opacity="1"/>
     <g height="0" id="33"  stroke-width="0" x="1.55906" fill="none" width="0" y="6.94488"/>
     <!-- unten rechts -->
     <rect stroke="none" height="2.55118" id="34"  x="5.81102" fill="black" width="2.26772" y="5.66929" fill-opacity="1"/>
     <g height="0" id="35"  stroke-width="0" x="6.94488" fill="none" width="0" y="6.94488"/>
     <!-- oben mitte -->
     <rect stroke="none" height="2.55118" id="36"  x="3.11811" fill="black" width="2.26772" y="0" fill-opacity="1"/>
     <g height="0" id="37"  stroke-width="0" x="4.25197" fill="none" width="0" y="1.27559"/>
    </g>
   </g>
  </g>
 </g>
</svg>
