<?xml version='1.0' encoding='UTF-8' standalone='no'?>
<!-- Created with Fritzing (https://fritzing.org/) -->
<svg xmlns="http://www.w3.org/2000/svg" height="0.748087in" baseProfile="tiny" viewBox="0 0 111.516 53.8623"  xmlns:svg="http://www.w3.org/2000/svg" version="1.2" x="0in" y="0in" width="1.54884in">
 <g transform="matrix(-1, 0, 0, 1, 111.516, 0)">
  <g partID="855297212">
   <g transform="matrix(1, 0, 0, 1, 0.00122729, 0.00121368)">
    <g id="silkscreen">
     <g style="display:inline">
      <path stroke="black" id="silkscreenoutline" stroke-opacity="1" d="m90.2187,0.373785,-55.0166,0.00425197L35.2018,31.8195l-2.72461,2.56933,-32.1007,-0.0175748,-0.00293103,19.1133L111.138,53.4844L111.138,25.8019l-20.8653,0L85.9749,21.4762L85.9749,4.64528Z" style="display:inline;fill-rule:evenodd;stroke-linecap:round;stroke-linejoin:round;stroke-miterlimit:4;stroke-dasharray:none;" stroke-width="0.75" fill="none" fill-opacity="0.5"/>
     </g>
    </g>
   </g>
  </g>
  <g partID="855297210">
   <g transform="matrix(1, 0, 0, 1, 110.064, 45.0012)">
    <g id="board">
     <g style="display:inline">
      <path stroke="black" id="boardoutline" d="m-19.6087,-45,-55.3896,0.00425197l0,31.8855l-2.74308,2.60564,-32.3181,-0.0178299,-0.00283465,19.3833l111.515,0l0,-28.0737l-21.0067,0l-4.32701,-4.38681l0,-17.0687z" style="display:inline;fill-rule:evenodd;stroke-linecap:round;stroke-linejoin:round;stroke-miterlimit:4;stroke-dasharray:none" stroke-width="0.5" fill="none" fill-opacity="0.5"/>
     </g>
    </g>
   </g>
  </g>
  <g partID="855297212">
   <g transform="matrix(1, 0, 0, 1, 0.00122729, 0.00121368)">
    <g id="silkscreen">
     <g style="display:inline">
      <path stroke="black" id="silkscreenoutline" stroke-opacity="1" d="m90.2187,0.373785,-55.0166,0.00425197L35.2018,31.8195l-2.72461,2.56933,-32.1007,-0.0175748,-0.00293103,19.1133L111.138,53.4844L111.138,25.8019l-20.8653,0L85.9749,21.4762L85.9749,4.64528Z" style="display:inline;fill-rule:evenodd;stroke-linecap:round;stroke-linejoin:round;stroke-miterlimit:4;stroke-dasharray:none;" stroke-width="0.75" fill="none" fill-opacity="0.5"/>
     </g>
    </g>
   </g>
  </g>
  <g partID="855297071">
   <g transform="translate(80.8112,-0.10136)">
    <g transform="matrix(3.39649, 0, 0, 1.76161, -3.58775, -1.74651)">
     <g id="silkscreen">
      <g gorn="0.3.0.0.0.0.0.0.0.0.0.0.0.0.0.0.0.0">
       <!-- 120 -->
       <line x1="1.17085" stroke="black" id="line1771" y2="16.2301" y1="16.2277" stroke-width="0.027466" gorn="0.3.0.0.0.0.0.0.0.0.0.0.0.0.0.0.0.0.0" fill="black" x2="9.01475" fill-opacity="1"/>
       <line x1="1.1556" stroke="black" id="line12" y2="1.05021" y1="1.04785" stroke-width="0.027466" gorn="0.3.0.0.0.0.0.0.0.0.0.0.0.0.0.0.0.0.1" fill="black" x2="8.99951" fill-opacity="1"/>
      </g>
     </g>
    </g>
   </g>
  </g>
  <g partID="855304012">
   <g transform="translate(2.296,35.4775)">
    <g transform="matrix(1.32554, 0, 0, 1, 0, 0.167244)">
     <g id="silkscreen">
      <g gorn="0.3.0.0.0.0.0.0">
       <line class="other" x1="3.68957" stroke="black" id="line25" y2="0.288" y1="0.288" stroke-width="0.576" gorn="0.3.0.0.0.0.0.0.0" x2="0.288" stroke-linecap="round"/>
      </g>
     </g>
    </g>
   </g>
  </g>
  <g partID="854231631">
   <g transform="translate(90.9878,48.9705)">
    <g transform="matrix(0,-1,1,0,0,0)">
     <g id="silkscreen" gorn="0.2">
      <line x1="0.850392" class="other" stroke="black" y2="14.3532" y1="14.3532" stroke-width="0.359999" x2="9.35431" stroke-linecap="round"/>
      <line x1="9.35431" class="other" stroke="black" y2="0.18" y1="0.18" stroke-width="0.359999" x2="0.850392" stroke-linecap="round"/>
      <line x1="0.850392" class="other" stroke="black" y2="3.15637" y1="4.29023" stroke-width="0.359999" x2="0.850392" stroke-linecap="round"/>
      <line x1="0.850392" class="other" stroke="black" y2="0.746928" y1="0.18" stroke-width="0.359999" x2="0.850392" stroke-linecap="round"/>
      <line x1="9.35431" class="other" stroke="black" y2="0.746928" y1="0.18" stroke-width="0.359999" x2="9.35431" stroke-linecap="round"/>
      <line x1="9.35431" class="other" stroke="black" y2="3.15637" y1="4.29023" stroke-width="0.359999" x2="9.35431" stroke-linecap="round"/>
      <line x1="0.850392" class="other" stroke="black" y2="6.69967" y1="7.83353" stroke-width="0.359999" x2="0.850392" stroke-linecap="round"/>
      <line x1="0.850392" class="other" stroke="black" y2="10.243" y1="11.3768" stroke-width="0.359999" x2="0.850392" stroke-linecap="round"/>
      <line x1="0.850392" class="other" stroke="black" y2="14.3532" y1="13.7863" stroke-width="0.359999" x2="0.850392" stroke-linecap="round"/>
      <line x1="9.35431" class="other" stroke="black" y2="6.69967" y1="7.83353" stroke-width="0.359999" x2="9.35431" stroke-linecap="round"/>
      <line x1="9.35431" class="other" stroke="black" y2="10.243" y1="11.3768" stroke-width="0.359999" x2="9.35431" stroke-linecap="round"/>
      <line x1="9.35431" class="other" stroke="black" y2="14.3532" y1="13.7863" stroke-width="0.359999" x2="9.35431" stroke-linecap="round"/>
      <circle cy="1.20047" cx="4.02519" class="other" r="0.141732" stroke="black" stroke-width="0.359999" fill="none"/>
     </g>
    </g>
   </g>
  </g>
  <g partID="855236321">
   <g transform="translate(67.8248,11.5246)">
    <g transform="matrix(1,0,0,1,0,0)">
     <g id="silkscreen">
      <rect stroke="black" height="2.55118" stroke-opacity="1" stroke-width="0.283465" x="0.141732" fill="none" width="8.22047" y="2.83465"/>
     </g>
    </g>
   </g>
  </g>
  <g partID="855271531">
   <g transform="translate(57.352,29.8522)">
    <g id="copper1">
     <circle cx="3.01733" cy="3.01733" r="0.992124" stroke="white" id="connector0pin" stroke-width="1.57039" fill="white"/>
    </g>
   </g>
  </g>
  <g partID="855271561">
   <g transform="translate(50.152,29.8522)">
    <g id="copper1">
     <circle cx="3.01733" cy="3.01733" r="0.992124" stroke="white" id="connector0pin" stroke-width="1.57039" fill="white"/>
    </g>
   </g>
  </g>
  <g partID="855136111">
   <g transform="translate(35.752,22.6522)">
    <g id="copper1">
     <circle cx="3.01733" cy="3.01733" r="0.992124" stroke="white" id="connector0pin" stroke-width="1.57039" fill="white"/>
    </g>
   </g>
  </g>
  <g partID="855140601">
   <g transform="translate(78.952,37.0519)">
    <g id="copper1">
     <circle cx="3.01733" cy="3.01733" r="0.992124" stroke="white" id="connector0pin" stroke-width="1.57039" fill="white"/>
    </g>
   </g>
  </g>
  <g partID="855140631">
   <g transform="translate(78.952,29.8522)">
    <g id="copper1">
     <circle cx="3.01733" cy="3.01733" r="0.992124" stroke="white" id="connector0pin" stroke-width="1.57039" fill="white"/>
    </g>
   </g>
  </g>
  <g partID="855304011">
   <g transform="translate(2.296,35.4775)">
    <g transform="matrix(1.52608, 0, 0, 1.52649, -0.427877, -0.174562)">
     <g id="copper1">
      <g gorn="0.2.0.0.0.0.0.0">
       <circle cy="3.12265" cx="18.9967" r="1.35213" stroke="white" id="circle12" connectorname="5" stroke-width="1.44" fill="white" gorn="0.2.0.0.0.0.0.0.0"/>
       <circle cy="3.12265" cx="14.7447" r="1.35213" stroke="white" id="circle19" connectorname="4" stroke-width="1.44" fill="white" gorn="0.2.0.0.0.0.0.0.1"/>
       <circle cy="3.12265" cx="10.4927" r="1.35213" stroke="white" id="circle9" connectorname="3" stroke-width="1.44" fill="white" gorn="0.2.0.0.0.0.0.0.2"/>
       <circle cy="3.12265" cx="6.24076" r="1.35213" stroke="white" id="circle7" connectorname="2" stroke-width="1.44" fill="white" gorn="0.2.0.0.0.0.0.0.3"/>
       <circle cy="3.12265" cx="1.98879" r="1.35213" stroke="white" id="circle4" connectorname="1" stroke-width="1.44" fill="white" gorn="0.2.0.0.0.0.0.0.4"/>
       <path stroke="white" id="path5" d="m0.276661,1.41052l3.42425,0l0,3.42425l-3.42425,0zm0.72,1.71213a0.992126,0.992126,0,1,0,1.98425,0,0.992126,0.992126,0,1,0,-1.98425,0z" stroke-width="0.72" fill="white" gorn="0.2.0.0.0.0.0.0.5"/>
       <g id="copper0" gorn="0.2.0.0.0.0.0.0.6">
        <circle cy="3.12265" cx="18.9967" r="1.35213" stroke="white" id="connector4pad" connectorname="5" stroke-width="1.44" fill="white" gorn="0.2.0.0.0.0.0.0.6.0"/>
        <circle cy="3.12265" cx="14.7447" r="1.35213" stroke="white" id="connector3pad" connectorname="4" stroke-width="1.44" fill="white" gorn="0.2.0.0.0.0.0.0.6.1"/>
        <circle cy="3.12265" cx="10.4927" r="1.35213" stroke="white" id="connector2pad" connectorname="3" stroke-width="1.44" fill="white" gorn="0.2.0.0.0.0.0.0.6.2"/>
        <circle cy="3.12265" cx="6.24076" r="1.35213" stroke="white" id="connector1pad" connectorname="2" stroke-width="1.44" fill="white" gorn="0.2.0.0.0.0.0.0.6.3"/>
        <path stroke="white" id="connector0pad" d="m0.276661,1.41052l3.42425,0l0,3.42425l-3.42425,0zm0.72,1.71213a0.992126,0.992126,0,1,0,1.98425,0,0.992126,0.992126,0,1,0,-1.98425,0z" stroke-width="0.72" fill="white" gorn="0.2.0.0.0.0.0.0.6.4"/>
        <circle cy="3.12265" cx="1.98879" r="1.35213" stroke="white" id="circle11" connectorname="1" stroke-width="1.44" fill="white" gorn="0.2.0.0.0.0.0.0.6.5"/>
       </g>
      </g>
     </g>
    </g>
   </g>
  </g>
  <g partID="855150261">
   <g transform="translate(78.952,44.2519)">
    <g id="copper1">
     <circle cx="3.01733" cy="3.01733" r="0.992124" stroke="white" id="connector0pin" stroke-width="1.57039" fill="white"/>
    </g>
   </g>
  </g>
  <g partID="855163121">
   <g transform="translate(71.752,37.0519)">
    <g id="copper1">
     <circle cx="3.01733" cy="3.01733" r="0.992124" stroke="white" id="connector0pin" stroke-width="1.57039" fill="white"/>
    </g>
   </g>
  </g>
  <g partID="855289461">
   <g transform="translate(71.752,1.05216)">
    <g id="copper1">
     <circle cx="3.01733" cy="3.01733" r="0.992124" stroke="white" id="connector0pin" stroke-width="1.57039" fill="white"/>
    </g>
   </g>
  </g>
  <g partID="855288661">
   <g transform="translate(100.552,29.8522)">
    <g id="copper1">
     <circle cx="3.01733" cy="3.01733" r="0.992124" stroke="white" id="connector0pin" stroke-width="1.57039" fill="white"/>
    </g>
   </g>
  </g>
  <g partID="855287181">
   <g transform="translate(57.352,8.25216)">
    <g id="copper1">
     <circle cx="3.01733" cy="3.01733" r="0.992124" stroke="white" id="connector0pin" stroke-width="1.57039" fill="white"/>
    </g>
   </g>
  </g>
  <g partID="855182091">
   <g transform="translate(50.152,8.25216)">
    <g id="copper1">
     <circle cx="3.01733" cy="3.01733" r="0.992124" stroke="white" id="connector0pin" stroke-width="1.57039" fill="white"/>
    </g>
   </g>
  </g>
  <g partID="854231630">
   <g transform="translate(90.9878,48.9705)">
    <g transform="matrix(0,-1,1,0,0,0)">
     <g id="copper1" gorn="0.1">
      <rect stroke="white" height="1.41732" id="connector0pad" connectorname="1" stroke-width="0.72" x="0" fill="white" gorn="0.1.0" stroke-linecap="round" width="3.40157" y="1.24299"/>
      <rect stroke="white" height="1.41732" id="connector1pad" connectorname="2" stroke-width="0.72" x="0" fill="white" gorn="0.1.1" stroke-linecap="round" width="3.40157" y="4.78629"/>
      <rect stroke="white" height="1.41732" id="connector2pad" connectorname="3" stroke-width="0.72" x="0" fill="white" gorn="0.1.2" stroke-linecap="round" width="3.40157" y="8.32959"/>
      <rect stroke="white" height="1.41732" id="connector3pad" connectorname="4" stroke-width="0.72" x="0" fill="white" gorn="0.1.3" stroke-linecap="round" width="3.40157" y="11.8729"/>
      <rect stroke="white" height="1.41732" id="connector7pin" connectorname="8" stroke-width="0.72" x="6.80314" fill="white" gorn="0.1.4" stroke-linecap="round" width="3.40157" y="1.24299"/>
      <rect stroke="white" height="1.41732" id="connector6pin" connectorname="7" stroke-width="0.72" x="6.80314" fill="white" gorn="0.1.5" stroke-linecap="round" width="3.40157" y="4.78629"/>
      <rect stroke="white" height="1.41732" id="connector5pin" connectorname="6" stroke-width="0.72" x="6.80314" fill="white" gorn="0.1.6" stroke-linecap="round" width="3.40157" y="8.32959"/>
      <rect stroke="white" height="1.41732" id="connector4pin" connectorname="5" stroke-width="0.72" x="6.80314" fill="white" gorn="0.1.7" stroke-linecap="round" width="3.40157" y="11.8729"/>
      <g id="copper0" gorn="0.1.8"/>
     </g>
    </g>
   </g>
  </g>
  <g partID="855236320">
   <g transform="translate(67.8248,11.5246)">
    <g transform="matrix(1,0,0,1,0,0)">
     <g id="copper1">
      <!-- unten links -->
      <rect stroke="white" height="2.55118" id="connector0pin" stroke-width="0.72" x="0.425197" fill="white" width="2.26772" y="5.66929" fill-opacity="1"/>
      <g stroke="white" height="0" id="connector0terminal" stroke-width="0.72" x="1.55906" fill="white" width="0" y="6.94488"/>
      <!-- unten rechts -->
      <rect stroke="white" height="2.55118" id="connector1pin" stroke-width="0.72" x="5.81102" fill="white" width="2.26772" y="5.66929" fill-opacity="1"/>
      <g stroke="white" height="0" id="connector1terminal" stroke-width="0.72" x="6.94488" fill="white" width="0" y="6.94488"/>
      <!-- oben mitte -->
      <rect stroke="white" height="2.55118" id="connector2pin" stroke-width="0.72" x="3.11811" fill="white" width="2.26772" y="0" fill-opacity="1"/>
      <g stroke="white" height="0" id="connector2terminal" stroke-width="0.72" x="4.25197" fill="white" width="0" y="1.27559"/>
     </g>
    </g>
   </g>
  </g>
 </g>
</svg>
