<?xml version='1.0' encoding='UTF-8' standalone='no'?>
<!-- Created with Fritzing (https://fritzing.org/) -->
<svg xmlns="http://www.w3.org/2000/svg" height="0.748087in" baseProfile="tiny" viewBox="0 0 111.516 53.8623"  xmlns:svg="http://www.w3.org/2000/svg" version="1.2" x="0in" y="0in" width="1.54884in">
 <g transform="matrix(-1, 0, 0, 1, 111.516, 0)">
  <g partID="855297211">
   <g transform="matrix(1, 0, 0, 1, 0.00122729, 0.00121368)">
    <g id="silkscreen0">
     <g style="display:inline">
      <path stroke="black" id="silkscreen0outline" stroke-opacity="1" d="m90.2187,0.373785,-55.0166,0.00425197L35.2018,31.8195l-2.72461,2.56933,-32.1007,-0.0175748,-0.00293103,19.1133L111.138,53.4844L111.138,25.8019l-20.8653,0L85.9749,21.4762L85.9749,4.64528Z" style="display:inline;fill-rule:evenodd;stroke-linecap:round;stroke-linejoin:round;stroke-miterlimit:4;stroke-dasharray:none;" stroke-width="0.75" fill="none" fill-opacity="0.5"/>
     </g>
    </g>
   </g>
  </g>
  <g partID="855297210">
   <g transform="matrix(1, 0, 0, 1, 110.064, 45.0012)">
    <g id="board">
     <g style="display:inline">
      <path stroke="black" id="boardoutline" d="m-19.6087,-45,-55.3896,0.00425197l0,31.8855l-2.74308,2.60564,-32.3181,-0.0178299,-0.00283465,19.3833l111.515,0l0,-28.0737l-21.0067,0l-4.32701,-4.38681l0,-17.0687z" style="display:inline;fill-rule:evenodd;stroke-linecap:round;stroke-linejoin:round;stroke-miterlimit:4;stroke-dasharray:none" stroke-width="0.5" fill="none" fill-opacity="0.5"/>
     </g>
    </g>
   </g>
  </g>
  <g partID="855307771">
   <g transform="translate(109.81,31.5983)">
    <g transform="matrix(0,1,-1,0,0,0)">
     <g flipped="1" id="silkscreen0">
      <g transform="matrix(-1, 0, 0, 1, 12.4724, 0)">
       <g>
        <g>
         <g>
          <line class="other" x1="1.70078" stroke="black" y2="0.287999" y1="0.287999" stroke-width="0.575999" x2="10.7716" stroke-linecap="round"/>
          <line class="other" x1="1.70078" stroke="black" y2="7.65806" y1="7.65806" stroke-width="0.575999" x2="10.7716" stroke-linecap="round"/>
         </g>
        </g>
       </g>
      </g>
     </g>
    </g>
   </g>
  </g>
  <g partID="855307831">
   <g transform="translate(72.644,49.5375)">
    <g transform="matrix(0,-1,1,0,0,0)">
     <g flipped="1" id="silkscreen0">
      <g transform="matrix(-1, 0, 0, 1, 9.35433, 0)">
       <g>
        <g>
         <g>
          <rect stroke="black" height="3.9685" id="silkscreen" stroke-opacity="1" stroke-width="0.283465" x="0.141732" fill="none" width="9.07087" y="0.141732"/>
         </g>
        </g>
       </g>
      </g>
     </g>
    </g>
   </g>
  </g>
  <g partID="855284151">
   <g transform="translate(89.2832,30.7435)">
    <g flipped="1" id="silkscreen0">
     <g transform="matrix(-1, 0, 0, 1, 9.35433, 0)">
      <g>
       <g>
        <g>
         <rect stroke="black" height="3.9685" id="silkscreen" stroke-opacity="1" stroke-width="0.283465" x="0.141732" fill="none" width="9.07087" y="0.141732"/>
        </g>
       </g>
      </g>
     </g>
    </g>
   </g>
  </g>
  <g partID="855284181">
   <g transform="translate(89.2832,37.9439)">
    <g flipped="1" id="silkscreen0">
     <g transform="matrix(-1, 0, 0, 1, 9.35433, 0)">
      <g>
       <g>
        <g>
         <rect stroke="black" height="3.9685" id="silkscreen" stroke-opacity="1" stroke-width="0.283465" x="0.141732" fill="none" width="9.07087" y="0.141732"/>
        </g>
       </g>
      </g>
     </g>
    </g>
   </g>
  </g>
  <g partID="855297211">
   <g transform="matrix(1, 0, 0, 1, 0.00122729, 0.00121368)">
    <g id="silkscreen0">
     <g style="display:inline">
      <path stroke="black" id="silkscreen0outline" stroke-opacity="1" d="m90.2187,0.373785,-55.0166,0.00425197L35.2018,31.8195l-2.72461,2.56933,-32.1007,-0.0175748,-0.00293103,19.1133L111.138,53.4844L111.138,25.8019l-20.8653,0L85.9749,21.4762L85.9749,4.64528Z" style="display:inline;fill-rule:evenodd;stroke-linecap:round;stroke-linejoin:round;stroke-miterlimit:4;stroke-dasharray:none;" stroke-width="0.75" fill="none" fill-opacity="0.5"/>
     </g>
    </g>
   </g>
  </g>
  <g partID="854194111">
   <g transform="translate(69.3696,19.6386)">
    <g transform="matrix(2.22045e-16,1,-1,2.22045e-16,0,0)">
     <g flipped="1" id="silkscreen0">
      <g transform="matrix(-1, 0, 0, 1, 27.936, 0)">
       <g>
        <g>
         <g>
          <line class="other" x1="23.9034" stroke="black" y2="23.9034" y1="4.03257" stroke-width="0.432" x2="23.9034" stroke-linecap="round"/>
          <line class="other" x1="23.9034" stroke="black" y2="23.9034" y1="23.9034" stroke-width="0.432" x2="4.03257" stroke-linecap="round"/>
          <line class="other" x1="4.03257" stroke="black" y2="5.03887" y1="23.9034" stroke-width="0.432" x2="4.03257" stroke-linecap="round"/>
          <line class="other" x1="5.03887" stroke="black" y2="4.03257" y1="4.03257" stroke-width="0.432" x2="23.9034" stroke-linecap="round"/>
          <line class="other" x1="5.03887" stroke="black" y2="5.03887" y1="4.03257" stroke-width="0.432" x2="4.03257" stroke-linecap="round"/>
          <circle cx="6.192" cy="6.192" class="other" r="1.0182" stroke="black" stroke-width="0.432" fill="none"/>
         </g>
        </g>
       </g>
      </g>
     </g>
    </g>
   </g>
  </g>
  <g partID="855307770">
   <g transform="translate(109.81,31.5983)">
    <g transform="matrix(0,1,-1,0,0,0)">
     <g flipped="1" id="copper0">
      <g transform="matrix(-1, 0, 0, 1, 12.4724, 0)">
       <g>
        <g>
         <g>
          <rect stroke="white" height="5.66928" id="connector0pad" connectorname="1" stroke-width="0.72" x="0" fill="white" y="1.13839" width="3.40157" stroke-linecap="round"/>
          <rect stroke="white" height="5.66928" id="connector1pad" connectorname="2" stroke-width="0.72" x="9.07085" fill="white" y="1.13839" width="3.40157" stroke-linecap="round"/>
          <g id="copper0"/>
         </g>
         <g/>
        </g>
       </g>
      </g>
     </g>
    </g>
   </g>
  </g>
  <g partID="855307830">
   <g transform="translate(72.644,49.5375)">
    <g transform="matrix(0,-1,1,0,0,0)">
     <g flipped="1" id="copper0">
      <g transform="matrix(-1, 0, 0, 1, 9.35433, 0)">
       <g>
        <g>
         <g>
          <rect stroke="white" height="3.11811" id="connector0pad" stroke-width="0.72" x="0.566929" fill="white" width="3.40157" y="0.566929" fill-opacity="1"/>
          <rect stroke="white" height="3.11811" id="connector1pad" stroke-width="0.72" x="5.38583" fill="white" width="3.40157" y="0.566929" fill-opacity="1"/>
         </g>
        </g>
       </g>
      </g>
     </g>
    </g>
   </g>
  </g>
  <g partID="855271530">
   <g transform="translate(57.352,29.8522)">
    <g id="copper0">
     <circle cx="3.01733" cy="3.01733" r="0.992124" stroke="white" id="connector0pin" stroke-width="1.57039" fill="white"/>
    </g>
   </g>
  </g>
  <g partID="855271560">
   <g transform="translate(50.152,29.8522)">
    <g id="copper0">
     <circle cx="3.01733" cy="3.01733" r="0.992124" stroke="white" id="connector0pin" stroke-width="1.57039" fill="white"/>
    </g>
   </g>
  </g>
  <g partID="855284150">
   <g transform="translate(89.2832,30.7435)">
    <g flipped="1" id="copper0">
     <g transform="matrix(-1, 0, 0, 1, 9.35433, 0)">
      <g>
       <g>
        <g>
         <rect stroke="white" height="3.11811" id="connector0pad" stroke-width="0.72" x="0.566929" fill="white" width="3.40157" y="0.566929" fill-opacity="1"/>
         <rect stroke="white" height="3.11811" id="connector1pad" stroke-width="0.72" x="5.38583" fill="white" width="3.40157" y="0.566929" fill-opacity="1"/>
        </g>
       </g>
      </g>
     </g>
    </g>
   </g>
  </g>
  <g partID="855284180">
   <g transform="translate(89.2832,37.9439)">
    <g flipped="1" id="copper0">
     <g transform="matrix(-1, 0, 0, 1, 9.35433, 0)">
      <g>
       <g>
        <g>
         <rect stroke="white" height="3.11811" id="connector0pad" stroke-width="0.72" x="0.566929" fill="white" width="3.40157" y="0.566929" fill-opacity="1"/>
         <rect stroke="white" height="3.11811" id="connector1pad" stroke-width="0.72" x="5.38583" fill="white" width="3.40157" y="0.566929" fill-opacity="1"/>
        </g>
       </g>
      </g>
     </g>
    </g>
   </g>
  </g>
  <g partID="855136110">
   <g transform="translate(35.752,22.6522)">
    <g id="copper0">
     <circle cx="3.01733" cy="3.01733" r="0.992124" stroke="white" id="connector0pin" stroke-width="1.57039" fill="white"/>
    </g>
   </g>
  </g>
  <g partID="855140600">
   <g transform="translate(78.952,37.0519)">
    <g id="copper0">
     <circle cx="3.01733" cy="3.01733" r="0.992124" stroke="white" id="connector0pin" stroke-width="1.57039" fill="white"/>
    </g>
   </g>
  </g>
  <g partID="855140630">
   <g transform="translate(78.952,29.8522)">
    <g id="copper0">
     <circle cx="3.01733" cy="3.01733" r="0.992124" stroke="white" id="connector0pin" stroke-width="1.57039" fill="white"/>
    </g>
   </g>
  </g>
  <g partID="855297070">
   <g transform="translate(80.8112,-0.10136)">
    <g transform="matrix(4.29042, 0, 0, 1.88015, -8.01687, -2.63744)">
     <g id="copper0">
      <g gorn="0.4.0.0.0.0.0.0.0.0.0.0.0.0.0.0.0.0">
       <g id="g31" gorn="0.4.0.0.0.0.0.0.0.0.0.0.0.0.0.0.0.0.0">
        <g transform="matrix(2.42789, 0, 0, 5.54033, 1.86855, 1.40278)">
         <g>
          <g>
           <g>
            <g>
             <g>
              <g>
               <g>
                <g>
                 <g>
                  <g>
                   <g>
                    <g>
                     <g>
                      <path stroke="white" id="connector0pin" d="M0.140062,0.140062L0.140062,0.684282L0.684422,0.140062Z" style="fill-rule:evenodd;" stroke-width="0.72" gorn="0.4.0.0.0.0.0.0.0.0.0.0.0.0.0.0.0.0.0.0.0.0.0.0.0.0.0.0.0.0.0.0.0" fill="white" fill-opacity="1"/>
                     </g>
                    </g>
                   </g>
                  </g>
                 </g>
                </g>
               </g>
              </g>
             </g>
            </g>
           </g>
          </g>
         </g>
        </g>
        <g transform="matrix(2.42789, 0, 0, 5.54033, 1.86855, 1.40278)">
         <g>
          <g>
           <g>
            <g>
             <g>
              <g>
               <g>
                <g>
                 <g>
                  <g>
                   <g>
                    <g>
                     <g>
                      <path stroke="white" id="connector1pin" d="m0.141468,1.93429l0,0.54436l0.54436,0z" style="fill-rule:evenodd" stroke-width="0.72" gorn="0.4.0.0.0.0.0.0.0.0.0.0.0.0.0.0.0.0.0.1.0.0.0.0.0.0.0.0.0.0.0.0.0" fill="white" fill-opacity="1"/>
                     </g>
                    </g>
                   </g>
                  </g>
                 </g>
                </g>
               </g>
              </g>
             </g>
            </g>
           </g>
          </g>
         </g>
        </g>
       </g>
      </g>
     </g>
    </g>
   </g>
  </g>
  <g partID="855304010">
   <g transform="translate(2.296,35.4775)">
    <g transform="matrix(1.52608, 0, 0, 1.52649, -0.427877, -0.174562)">
     <g id="copper0">
      <g gorn="0.2.0.0.0.0.0.0.6">
       <circle cy="3.12265" cx="18.9967" r="1.35213" stroke="white" id="connector4pad" connectorname="5" stroke-width="1.44" fill="white" gorn="0.2.0.0.0.0.0.0.6.0"/>
       <circle cy="3.12265" cx="14.7447" r="1.35213" stroke="white" id="connector3pad" connectorname="4" stroke-width="1.44" fill="white" gorn="0.2.0.0.0.0.0.0.6.1"/>
       <circle cy="3.12265" cx="10.4927" r="1.35213" stroke="white" id="connector2pad" connectorname="3" stroke-width="1.44" fill="white" gorn="0.2.0.0.0.0.0.0.6.2"/>
       <circle cy="3.12265" cx="6.24076" r="1.35213" stroke="white" id="connector1pad" connectorname="2" stroke-width="1.44" fill="white" gorn="0.2.0.0.0.0.0.0.6.3"/>
       <path stroke="white" id="connector0pad" d="m0.276661,1.41052l3.42425,0l0,3.42425l-3.42425,0zm0.72,1.71213a0.992126,0.992126,0,1,0,1.98425,0,0.992126,0.992126,0,1,0,-1.98425,0z" stroke-width="0.72" fill="white" gorn="0.2.0.0.0.0.0.0.6.4"/>
       <circle cy="3.12265" cx="1.98879" r="1.35213" stroke="white" id="circle11" connectorname="1" stroke-width="1.44" fill="white" gorn="0.2.0.0.0.0.0.0.6.5"/>
      </g>
     </g>
    </g>
   </g>
  </g>
  <g partID="854194110">
   <g transform="translate(69.3696,19.6386)">
    <g transform="matrix(2.22045e-16,1,-1,2.22045e-16,0,0)">
     <g flipped="1" id="copper0">
      <g transform="matrix(-1, 0, 0, 1, 27.936, 0)">
       <g>
        <g>
         <g>
          <rect stroke="white" height="1.584" id="connector0pad" connectorname="1" stroke-width="0.72" x="0" fill="white" y="5.23899" width="3.6" stroke-linecap="round"/>
          <rect stroke="white" height="1.584" id="connector1pad" connectorname="2" stroke-width="0.72" x="0" fill="white" y="7.50671" width="3.6" stroke-linecap="round"/>
          <rect stroke="white" height="1.584" id="connector2pad" connectorname="3" stroke-width="0.72" x="0" fill="white" y="9.77443" width="3.6" stroke-linecap="round"/>
          <rect stroke="white" height="1.584" id="connector3pad" connectorname="4" stroke-width="0.72" x="0" fill="white" y="12.0421" width="3.6" stroke-linecap="round"/>
          <rect stroke="white" height="1.584" id="connector4pad" connectorname="5" stroke-width="0.72" x="0" fill="white" y="14.3099" width="3.6" stroke-linecap="round"/>
          <rect stroke="white" height="1.584" id="connector5pad" connectorname="6" stroke-width="0.72" x="0" fill="white" y="16.5776" width="3.6" stroke-linecap="round"/>
          <rect stroke="white" height="1.584" id="connector6pad" connectorname="7" stroke-width="0.72" x="0" fill="white" y="18.8453" width="3.6" stroke-linecap="round"/>
          <rect stroke="white" height="1.584" id="connector7pad" connectorname="8" stroke-width="0.72" x="0" fill="white" y="21.113" width="3.6" stroke-linecap="round"/>
          <rect stroke="white" height="3.6" id="connector8pad" connectorname="9" stroke-width="0.72" x="5.23899" fill="white" y="24.336" width="1.584" stroke-linecap="round"/>
          <rect stroke="white" height="3.6" id="connector9pad" connectorname="10" stroke-width="0.72" x="7.50671" fill="white" y="24.336" width="1.584" stroke-linecap="round"/>
          <rect stroke="white" height="3.6" id="connector10pad" connectorname="11" stroke-width="0.72" x="9.77443" fill="white" y="24.336" width="1.584" stroke-linecap="round"/>
          <rect stroke="white" height="3.6" id="connector11pad" connectorname="12" stroke-width="0.72" x="12.0421" fill="white" y="24.336" width="1.584" stroke-linecap="round"/>
          <rect stroke="white" height="3.6" id="connector12pad" connectorname="13" stroke-width="0.72" x="14.3099" fill="white" y="24.336" width="1.584" stroke-linecap="round"/>
          <rect stroke="white" height="3.6" id="connector13pad" connectorname="14" stroke-width="0.72" x="16.5776" fill="white" y="24.336" width="1.584" stroke-linecap="round"/>
          <rect stroke="white" height="3.6" id="connector14pad" connectorname="15" stroke-width="0.72" x="18.8453" fill="white" y="24.336" width="1.584" stroke-linecap="round"/>
          <rect stroke="white" height="3.6" id="connector15pad" connectorname="16" stroke-width="0.72" x="21.113" fill="white" y="24.336" width="1.584" stroke-linecap="round"/>
          <rect stroke="white" height="1.584" id="connector16pad" connectorname="17" stroke-width="0.72" x="24.336" fill="white" y="21.113" width="3.6" stroke-linecap="round"/>
          <rect stroke="white" height="1.584" id="connector17pad" connectorname="18" stroke-width="0.72" x="24.336" fill="white" y="18.8453" width="3.6" stroke-linecap="round"/>
          <rect stroke="white" height="1.584" id="connector18pad" connectorname="19" stroke-width="0.72" x="24.336" fill="white" y="16.5776" width="3.6" stroke-linecap="round"/>
          <rect stroke="white" height="1.584" id="connector19pad" connectorname="20" stroke-width="0.72" x="24.336" fill="white" y="14.3099" width="3.6" stroke-linecap="round"/>
          <rect stroke="white" height="1.584" id="connector20pad" connectorname="21" stroke-width="0.72" x="24.336" fill="white" y="12.0421" width="3.6" stroke-linecap="round"/>
          <rect stroke="white" height="1.584" id="connector21pad" connectorname="22" stroke-width="0.72" x="24.336" fill="white" y="9.77443" width="3.6" stroke-linecap="round"/>
          <rect stroke="white" height="1.584" id="connector22pad" connectorname="23" stroke-width="0.72" x="24.336" fill="white" y="7.50671" width="3.6" stroke-linecap="round"/>
          <rect stroke="white" height="1.584" id="connector23pad" connectorname="24" stroke-width="0.72" x="24.336" fill="white" y="5.23899" width="3.6" stroke-linecap="round"/>
          <rect stroke="white" height="3.6" id="connector24pad" connectorname="25" stroke-width="0.72" x="21.113" fill="white" y="0" width="1.584" stroke-linecap="round"/>
          <rect stroke="white" height="3.6" id="connector25pad" connectorname="26" stroke-width="0.72" x="18.8453" fill="white" y="0" width="1.584" stroke-linecap="round"/>
          <rect stroke="white" height="3.6" id="connector26pad" connectorname="27" stroke-width="0.72" x="16.5776" fill="white" y="0" width="1.584" stroke-linecap="round"/>
          <rect stroke="white" height="3.6" id="connector27pad" connectorname="28" stroke-width="0.72" x="14.3099" fill="white" y="0" width="1.584" stroke-linecap="round"/>
          <rect stroke="white" height="3.6" id="connector28pad" connectorname="29" stroke-width="0.72" x="12.0421" fill="white" y="0" width="1.584" stroke-linecap="round"/>
          <rect stroke="white" height="3.6" id="connector29pad" connectorname="30" stroke-width="0.72" x="9.77443" fill="white" y="0" width="1.584" stroke-linecap="round"/>
          <rect stroke="white" height="3.6" id="connector30pad" connectorname="31" stroke-width="0.72" x="7.50671" fill="white" y="0" width="1.584" stroke-linecap="round"/>
          <rect stroke="white" height="3.6" id="connector31pad" connectorname="32" stroke-width="0.72" x="5.23899" fill="white" y="0" width="1.584" stroke-linecap="round"/>
          <g id="copper0"/>
         </g>
         <g/>
        </g>
       </g>
      </g>
     </g>
    </g>
   </g>
  </g>
  <g partID="855150260">
   <g transform="translate(78.952,44.2519)">
    <g id="copper0">
     <circle cx="3.01733" cy="3.01733" r="0.992124" stroke="white" id="connector0pin" stroke-width="1.57039" fill="white"/>
    </g>
   </g>
  </g>
  <g partID="855163120">
   <g transform="translate(71.752,37.0519)">
    <g id="copper0">
     <circle cx="3.01733" cy="3.01733" r="0.992124" stroke="white" id="connector0pin" stroke-width="1.57039" fill="white"/>
    </g>
   </g>
  </g>
  <g partID="855289460">
   <g transform="translate(71.752,1.05216)">
    <g id="copper0">
     <circle cx="3.01733" cy="3.01733" r="0.992124" stroke="white" id="connector0pin" stroke-width="1.57039" fill="white"/>
    </g>
   </g>
  </g>
  <g partID="855288660">
   <g transform="translate(100.552,29.8522)">
    <g id="copper0">
     <circle cx="3.01733" cy="3.01733" r="0.992124" stroke="white" id="connector0pin" stroke-width="1.57039" fill="white"/>
    </g>
   </g>
  </g>
  <g partID="855287180">
   <g transform="translate(57.352,8.25216)">
    <g id="copper0">
     <circle cx="3.01733" cy="3.01733" r="0.992124" stroke="white" id="connector0pin" stroke-width="1.57039" fill="white"/>
    </g>
   </g>
  </g>
  <g partID="855182090">
   <g transform="translate(50.152,8.25216)">
    <g id="copper0">
     <circle cx="3.01733" cy="3.01733" r="0.992124" stroke="white" id="connector0pin" stroke-width="1.57039" fill="white"/>
    </g>
   </g>
  </g>
 </g>
</svg>
