<?xml version='1.0' encoding='UTF-8' standalone='no'?>
<!-- Created with Fritzing (https://fritzing.org/) -->
<svg xmlns="http://www.w3.org/2000/svg" height="0.748087in" baseProfile="tiny" viewBox="0 0 111.516 53.8623"  xmlns:svg="http://www.w3.org/2000/svg" version="1.2" x="0in" y="0in" width="1.54884in">
 <g partID="855297210">
  <g transform="matrix(1, 0, 0, 1, 110.064, 45.0012)">
   <g id="board">
    <g style="display:inline">
     <path stroke="black" id="boardoutline" d="m-19.6087,-45,-55.3896,0.00425197l0,31.8855l-2.74308,2.60564,-32.3181,-0.0178299,-0.00283465,19.3833l111.515,0l0,-28.0737l-21.0067,0l-4.32701,-4.38681l0,-17.0687z" style="display:inline;fill-rule:evenodd;stroke-linecap:round;stroke-linejoin:round;stroke-miterlimit:4;stroke-dasharray:none" stroke-width="0.5" fill="none" fill-opacity="0.5"/>
    </g>
   </g>
  </g>
 </g>
 <g partID="855271531">
  <g transform="translate(57.352,29.8522)">
   <g id="copper1" >
    <circle cx="3.01733" cy="3.01733" r="0.992124" stroke="black" id="connector0pin"  stroke-width="0.850392" fill="none"/>
   </g>
  </g>
 </g>
 <g partID="855271561">
  <g transform="translate(50.152,29.8522)">
   <g id="copper1" >
    <circle cx="3.01733" cy="3.01733" r="0.992124" stroke="black" id="connector0pin"  stroke-width="0.850392" fill="none"/>
   </g>
  </g>
 </g>
 <g partID="855136111">
  <g transform="translate(35.752,22.6522)">
   <g id="copper1" >
    <circle cx="3.01733" cy="3.01733" r="0.992124" stroke="black" id="connector0pin"  stroke-width="0.850392" fill="none"/>
   </g>
  </g>
 </g>
 <g partID="855140601">
  <g transform="translate(78.952,37.0519)">
   <g id="copper1" >
    <circle cx="3.01733" cy="3.01733" r="0.992124" stroke="black" id="connector0pin"  stroke-width="0.850392" fill="none"/>
   </g>
  </g>
 </g>
 <g partID="855140631">
  <g transform="translate(78.952,29.8522)">
   <g id="copper1" >
    <circle cx="3.01733" cy="3.01733" r="0.992124" stroke="black" id="connector0pin"  stroke-width="0.850392" fill="none"/>
   </g>
  </g>
 </g>
 <g partID="855304011">
  <g transform="translate(2.296,35.4775)">
   <g transform="matrix(1.52608, 0, 0, 1.52649, -0.427877, -0.174562)">
    <g id="copper1">
     <g gorn="0.2.0.0.0.0.0.0">
      <circle cy="3.12265" cx="18.9967" r="1.35213" stroke="black" id="circle12" connectorname="5" stroke-width="0.72" fill="none" gorn="0.2.0.0.0.0.0.0.0"/>
      <circle cy="3.12265" cx="14.7447" r="1.35213" stroke="black" id="circle19" connectorname="4" stroke-width="0.72" fill="none" gorn="0.2.0.0.0.0.0.0.1"/>
      <circle cy="3.12265" cx="10.4927" r="1.35213" stroke="black" id="circle9" connectorname="3" stroke-width="0.72" fill="none" gorn="0.2.0.0.0.0.0.0.2"/>
      <circle cy="3.12265" cx="6.24076" r="1.35213" stroke="black" id="circle7" connectorname="2" stroke-width="0.72" fill="none" gorn="0.2.0.0.0.0.0.0.3"/>
      <circle cy="3.12265" cx="1.98879" r="1.35213" stroke="black" id="circle4" connectorname="1" stroke-width="0.72" fill="none" gorn="0.2.0.0.0.0.0.0.4"/>
      <path stroke="none" id="path5" d="m0.276661,1.41052l3.42425,0l0,3.42425l-3.42425,0zm0.72,1.71213a0.992126,0.992126,0,1,0,1.98425,0,0.992126,0.992126,0,1,0,-1.98425,0z" stroke-width="0" fill="black" gorn="0.2.0.0.0.0.0.0.5"/>
      <g id="copper0" gorn="0.2.0.0.0.0.0.0.6">
       <circle cy="3.12265" cx="18.9967" r="1.35213" stroke="black" id="connector4pad" connectorname="5" stroke-width="0.72" fill="none" gorn="0.2.0.0.0.0.0.0.6.0"/>
       <circle cy="3.12265" cx="14.7447" r="1.35213" stroke="black" id="connector3pad" connectorname="4" stroke-width="0.72" fill="none" gorn="0.2.0.0.0.0.0.0.6.1"/>
       <circle cy="3.12265" cx="10.4927" r="1.35213" stroke="black" id="connector2pad" connectorname="3" stroke-width="0.72" fill="none" gorn="0.2.0.0.0.0.0.0.6.2"/>
       <circle cy="3.12265" cx="6.24076" r="1.35213" stroke="black" id="connector1pad" connectorname="2" stroke-width="0.72" fill="none" gorn="0.2.0.0.0.0.0.0.6.3"/>
       <path stroke="none" id="connector0pad" d="m0.276661,1.41052l3.42425,0l0,3.42425l-3.42425,0zm0.72,1.71213a0.992126,0.992126,0,1,0,1.98425,0,0.992126,0.992126,0,1,0,-1.98425,0z" stroke-width="0" fill="black" gorn="0.2.0.0.0.0.0.0.6.4"/>
       <circle cy="3.12265" cx="1.98879" r="1.35213" stroke="black" id="circle11" connectorname="1" stroke-width="0.72" fill="none" gorn="0.2.0.0.0.0.0.0.6.5"/>
      </g>
     </g>
    </g>
   </g>
  </g>
 </g>
 <g partID="855150261">
  <g transform="translate(78.952,44.2519)">
   <g id="copper1" >
    <circle cx="3.01733" cy="3.01733" r="0.992124" stroke="black" id="connector0pin"  stroke-width="0.850392" fill="none"/>
   </g>
  </g>
 </g>
 <g partID="855163121">
  <g transform="translate(71.752,37.0519)">
   <g id="copper1" >
    <circle cx="3.01733" cy="3.01733" r="0.992124" stroke="black" id="connector0pin"  stroke-width="0.850392" fill="none"/>
   </g>
  </g>
 </g>
 <g partID="855289461">
  <g transform="translate(71.752,1.05216)">
   <g id="copper1" >
    <circle cx="3.01733" cy="3.01733" r="0.992124" stroke="black" id="connector0pin"  stroke-width="0.850392" fill="none"/>
   </g>
  </g>
 </g>
 <g partID="855288661">
  <g transform="translate(100.552,29.8522)">
   <g id="copper1" >
    <circle cx="3.01733" cy="3.01733" r="0.992124" stroke="black" id="connector0pin"  stroke-width="0.850392" fill="none"/>
   </g>
  </g>
 </g>
 <g partID="855287181">
  <g transform="translate(57.352,8.25216)">
   <g id="copper1" >
    <circle cx="3.01733" cy="3.01733" r="0.992124" stroke="black" id="connector0pin"  stroke-width="0.850392" fill="none"/>
   </g>
  </g>
 </g>
 <g partID="855182091">
  <g transform="translate(50.152,8.25216)">
   <g id="copper1" >
    <circle cx="3.01733" cy="3.01733" r="0.992124" stroke="black" id="connector0pin"  stroke-width="0.850392" fill="none"/>
   </g>
  </g>
 </g>
 <g partID="854231630">
  <g transform="translate(90.9878,48.9705)">
   <g transform="matrix(0,-1,1,0,0,0)">
    <g id="copper1"  gorn="0.1">
     <rect stroke="none" height="1.41732" id="connector0pad"  connectorname="1" stroke-width="0" x="0" fill="black" gorn="0.1.0" stroke-linecap="round" width="3.40157" y="1.24299"/>
     <rect stroke="none" height="1.41732" id="connector1pad"  connectorname="2" stroke-width="0" x="0" fill="black" gorn="0.1.1" stroke-linecap="round" width="3.40157" y="4.78629"/>
     <rect stroke="none" height="1.41732" id="connector2pad"  connectorname="3" stroke-width="0" x="0" fill="black" gorn="0.1.2" stroke-linecap="round" width="3.40157" y="8.32959"/>
     <rect stroke="none" height="1.41732" id="connector3pad"  connectorname="4" stroke-width="0" x="0" fill="black" gorn="0.1.3" stroke-linecap="round" width="3.40157" y="11.8729"/>
     <rect stroke="none" height="1.41732" id="connector7pin"  connectorname="8" stroke-width="0" x="6.80314" fill="black" gorn="0.1.4" stroke-linecap="round" width="3.40157" y="1.24299"/>
     <rect stroke="none" height="1.41732" id="connector6pin"  connectorname="7" stroke-width="0" x="6.80314" fill="black" gorn="0.1.5" stroke-linecap="round" width="3.40157" y="4.78629"/>
     <rect stroke="none" height="1.41732" id="connector5pin"  connectorname="6" stroke-width="0" x="6.80314" fill="black" gorn="0.1.6" stroke-linecap="round" width="3.40157" y="8.32959"/>
     <rect stroke="none" height="1.41732" id="connector4pin"  connectorname="5" stroke-width="0" x="6.80314" fill="black" gorn="0.1.7" stroke-linecap="round" width="3.40157" y="11.8729"/>
     <g id="copper0"  gorn="0.1.8"/>
    </g>
   </g>
  </g>
 </g>
 <g partID="855236320">
  <g transform="translate(67.8248,11.5246)">
   <g transform="matrix(1,0,0,1,0,0)">
    <g id="copper1" >
     <!-- unten links -->
     <rect stroke="none" height="2.55118" id="connector0pin"  x="0.425197" fill="black" width="2.26772" y="5.66929" fill-opacity="1"/>
     <g height="0" id="connector0terminal"  stroke-width="0" x="1.55906" fill="none" width="0" y="6.94488"/>
     <!-- unten rechts -->
     <rect stroke="none" height="2.55118" id="connector1pin"  x="5.81102" fill="black" width="2.26772" y="5.66929" fill-opacity="1"/>
     <g height="0" id="connector1terminal"  stroke-width="0" x="6.94488" fill="none" width="0" y="6.94488"/>
     <!-- oben mitte -->
     <rect stroke="none" height="2.55118" id="connector2pin"  x="3.11811" fill="black" width="2.26772" y="0" fill-opacity="1"/>
     <g height="0" id="connector2terminal"  stroke-width="0" x="4.25197" fill="none" width="0" y="1.27559"/>
    </g>
   </g>
  </g>
 </g>
 <g partID="855287830">
  <line x1="59.8027" stroke="black" y2="11.2695" y1="11.2695" stroke-width="0.864" x2="53.7363" stroke-linecap="round"/>
 </g>
 <g partID="855287730">
  <line x1="72.0052" stroke="black" y2="11.429" y1="11.9246" stroke-width="0.864" x2="71.9647" stroke-linecap="round"/>
 </g>
 <g partID="855287720">
  <line x1="71.9648" stroke="black" y2="11.2773" y1="11.429" stroke-width="0.864" x2="60.9366" stroke-linecap="round"/>
 </g>
 <g partID="855289640">
  <line x1="74.7669" stroke="black" y2="11.2837" y1="17.5939" stroke-width="0.864" x2="74.7471" stroke-linecap="round"/>
 </g>
 <g partID="855289630">
  <line x1="74.7472" stroke="black" y2="4.63647" y1="11.2837" stroke-width="0.864" x2="74.7681" stroke-linecap="round"/>
 </g>
 <g partID="855289180">
  <line x1="103.568" stroke="black" y2="40.0907" y1="33.4364" stroke-width="0.864" x2="103.554" stroke-linecap="round"/>
 </g>
 <g partID="855289170">
  <line x1="103.554" stroke="black" y2="40.4666" y1="40.0911" stroke-width="0.864" x2="103.569" stroke-linecap="round"/>
 </g>
 <g partID="855272530">
  <line x1="30.6984" stroke="black" y2="44.8588" y1="44.9591" stroke-width="0.864" x2="40.361" stroke-linecap="round"/>
 </g>
 <g partID="855272460">
  <line x1="40.3608" stroke="black" y2="38.7543" y1="44.8591" stroke-width="0.864" x2="47.6104" stroke-linecap="round"/>
 </g>
 <g partID="855272390">
  <line x1="47.6104" stroke="black" y2="28.8341" y1="38.7543" stroke-width="0.864" x2="47.7058" stroke-linecap="round"/>
 </g>
 <g partID="855272320">
  <line x1="47.7056" stroke="black" y2="28.8344" y1="28.8344" stroke-width="0.864" x2="56.9582" stroke-linecap="round"/>
 </g>
 <g partID="855272250">
  <line x1="56.9584" stroke="black" y2="32.4365" y1="28.8344" stroke-width="0.864" x2="60.0036" stroke-linecap="round"/>
 </g>
 <g partID="855272180">
  <line x1="30.8088" stroke="black" y2="44.959" y1="41.5828" stroke-width="0.864" x2="30.6982" stroke-linecap="round"/>
 </g>
 <g partID="855272050">
  <line x1="24.0944" stroke="black" y2="47.0535" y1="47.0447" stroke-width="0.864" x2="43.6989" stroke-linecap="round"/>
 </g>
 <g partID="855271980">
  <line x1="43.6992" stroke="black" y2="41.1391" y1="47.0535" stroke-width="0.864" x2="50.1856" stroke-linecap="round"/>
 </g>
 <g partID="855271910">
  <line x1="50.1856" stroke="black" y2="41.0437" y1="41.1391" stroke-width="0.864" x2="53.0472" stroke-linecap="round"/>
 </g>
 <g partID="855271840">
  <line x1="53.0472" stroke="black" y2="33.4365" y1="41.0439" stroke-width="0.864" x2="53.1609" stroke-linecap="round"/>
 </g>
 <g partID="855271770">
  <line x1="24.3099" stroke="black" y2="47.0446" y1="41.5824" stroke-width="0.864" x2="24.0943" stroke-linecap="round"/>
 </g>
 <g partID="855270170">
  <line x1="69.0592" stroke="black" y2="16.2291" y1="16.2668" stroke-width="1.152" x2="38.851" stroke-linecap="round"/>
 </g>
 <g partID="855270140">
  <line x1="38.8512" stroke="black" y2="25.1026" y1="16.2291" stroke-width="1.152" x2="38.7745" stroke-linecap="round"/>
 </g>
 <g partID="855270110">
  <line x1="69.2549" stroke="black" y2="16.2668" y1="17.5939" stroke-width="1.152" x2="69.0592" stroke-linecap="round"/>
 </g>
 <g partID="855264940">
  <line x1="74.6992" stroke="black" y2="51.1346" y1="51.3543" stroke-width="0.864" x2="4.98736" stroke-linecap="round"/>
 </g>
 <g partID="855264910">
  <line x1="4.9872" stroke="black" y2="42.1599" y1="51.1343" stroke-width="0.864" x2="4.91909" stroke-linecap="round"/>
 </g>
 <g partID="855264880">
  <line x1="74.7661" stroke="black" y2="51.3542" y1="40.6364" stroke-width="0.864" x2="74.6993" stroke-linecap="round"/>
 </g>
 <g partID="855196370">
  <line x1="103.57" stroke="black" y2="41.7673" y1="45.9689" stroke-width="0.799999" x2="103.57" stroke-linecap="round"/>
 </g>
 <g partID="855151260">
  <line x1="96.4592" stroke="black" y2="39.1658" y1="30.3458" stroke-width="0.799999" x2="96.4802" stroke-linecap="round"/>
 </g>
 <g partID="855293310">
  <line x1="92.9816" stroke="black" y2="40.4666" y1="40.0175" stroke-width="0.799999" x2="92.9394" stroke-linecap="round"/>
 </g>
 <g partID="855148740">
  <line x1="82.5365" stroke="black" y2="40.018" y1="40.0669" stroke-width="0.799999" x2="92.9819" stroke-linecap="round"/>
 </g>
 <g partID="855276040">
  <line x1="81.8384" stroke="black" y2="30.2375" y1="30.2375" stroke-width="0.799999" x2="81.7301" stroke-linecap="round"/>
 </g>
 <g partID="855276010">
  <line x1="81.7304" stroke="black" y2="30.3458" y1="30.2375" stroke-width="0.799999" x2="96.4592" stroke-linecap="round"/>
 </g>
 <g partID="855148710">
  <line x1="81.9414" stroke="black" y2="30.2376" y1="32.3033" stroke-width="0.799999" x2="81.8387" stroke-linecap="round"/>
 </g>
 <g partID="855151090">
  <line x1="92.9394" stroke="black" y2="47.2405" y1="47.2697" stroke-width="0.799999" x2="92.9934" stroke-linecap="round"/>
 </g>
 <g partID="855151080">
  <line x1="92.9936" stroke="black" y2="47.2679" y1="47.2407" stroke-width="0.799999" x2="82.5363" stroke-linecap="round"/>
 </g>
 <g partID="855139360">
  <line x1="96.174" stroke="black" y2="47.2695" y1="47.2695" stroke-width="0.799999" x2="93.2481" stroke-linecap="round"/>
 </g>
 <g partID="855139200">
  <line x1="103.261" stroke="black" y2="47.2695" y1="47.2695" stroke-width="0.799999" x2="100.335" stroke-linecap="round"/>
 </g>
</svg>
